SplineFontDB: 3.2
FontName: SeriousShannsBoldItalic
FullName: Serious Shanns Bold Italic
FamilyName: Serious Shanns
Weight: Bold
Copyright: https://github.com/kaBeech/serious-shanns/blob/main/LICENSE
Version: 6.0.0
ItalicAngle: -12.5
UnderlinePosition: 0
UnderlineWidth: 0
Ascent: 800
Descent: 200
InvalidEm: 0
sfntRevision: 0x00003333
LayerCount: 2
Layer: 0 0 "Back" 1
Layer: 1 0 "Fore" 0
XUID: [1021 45 630387186 10904090]
StyleMap: 0x0040
FSType: 0
OS2Version: 3
OS2_WeightWidthSlopeOnly: 0
OS2_UseTypoMetrics: 0
CreationTime: 1532631502
ModificationTime: 315532800
PfmFamily: 49
TTFWeight: 700
TTFWidth: 5
LineGap: 0
VLineGap: 0
Panose: 0 0 0 0 0 0 0 0 0 0
OS2TypoAscent: 613
OS2TypoAOffset: 0
OS2TypoDescent: -188
OS2TypoDOffset: 0
OS2TypoLinegap: 98
OS2WinAscent: 778
OS2WinAOffset: 0
OS2WinDescent: 308
OS2WinDOffset: 0
HheadAscent: 796
HheadAOffset: 0
HheadDescent: -317
HheadDOffset: 0
OS2SubXSize: 317
OS2SubYSize: 293
OS2SubXOff: 0
OS2SubYOff: 37
OS2SupXSize: 317
OS2SupYSize: 293
OS2SupXOff: 0
OS2SupYOff: 171
OS2StrikeYSize: 0
OS2StrikeYPos: 132
OS2CapHeight: 576
OS2XHeight: 485
OS2Vendor: 'NONE'
OS2CodePages: 00000001.00000000
OS2UnicodeRanges: 00000001.00000000.00000000.00000000
MarkAttachClasses: 1
DEI: 91125
LangName: 1033 "" "" "Normal" "" "" "Version 0.2.0"
Encoding: UnicodeBmp
Compacted: 1
UnicodeInterp: none
NameList: AGL For New Fonts
DisplaySize: -48
AntiAlias: 1
FitToEm: 0
WinInfo: 0 16 14
BeginPrivate: 9
BlueValues 32 [-40 -6 499 523 706 718 765 769]
OtherBlues 11 [-297 -287]
BlueScale 9 0.0291667
BlueShift 1 0
StdHW 5 [111]
StdVW 5 [118]
StemSnapH 33 [100 106 110 111 114 116 119 179]
StemSnapV 5 [118]
ForceBold 4 true
EndPrivate
BeginChars: 65537 123

StartChar: .notdef
Encoding: 65536 -1 0
Width: 550
VWidth: 886
GlyphClass: 1
Flags: W
HStem: -201.925 66.2998<140.74 375.34> 616.625 66.2998<281.295 515.895>
LayerCount: 2
Fore
SplineSet
66.28515625 -201.924804688 m 1
 232.5 682.924804688 l 1
 589.5 682.924804688 l 1
 424.134765625 -201.924804688 l 1
 66.28515625 -201.924804688 l 1
281.294921875 616.625 m 1
 140.740234375 -135.625 l 1
 375.33984375 -135.625 l 1
 515.89453125 616.625 l 1
 281.294921875 616.625 l 1
EndSplineSet
Validated: 524289
EndChar

StartChar: exclam
Encoding: 33 33 8
Width: 550
VWidth: 907
GlyphClass: 2
Flags: HMW
HStem: 25.9268 152.15<269.445 334.328 278.795 334.328>
VStem: 228.645 263.498
LayerCount: 2
Fore
SplineSet
462.248046875 684.674804688 m 0
 461.337890625 679.575195312 454.5078125 647.84375 441.755859375 589.4765625 c 0
 429.004882812 531.110351562 419.428710938 484.360351562 413.030273438 449.2265625 c 0
 409.780273438 432.793945312 406.704101562 415.651367188 403.799804688 397.801757812 c 0
 400.896484375 379.952148438 398.1640625 364.651367188 395.604492188 351.901367188 c 0
 393.043945312 339.151367188 391.01953125 330.369140625 389.529296875 325.551757812 c 0
 388.0390625 320.735351562 386.748046875 314.642578125 385.65234375 307.276367188 c 0
 384.556640625 299.909179688 383.295898438 293.109375 381.868164062 286.875976562 c 0
 377.4609375 271.008789062 369.4921875 258.826171875 357.963867188 250.326171875 c 0
 346.977539062 242.392578125 335.262695312 238.142578125 322.8203125 237.576171875 c 2
 320.270507812 237.576171875 l 2
 307.237304688 237.576171875 297.39453125 242.392578125 290.740234375 252.026367188 c 0
 286.71484375 257.693359375 284.518554688 264.745117188 284.149414062 273.182617188 c 0
 283.965820312 277.401367188 284.23828125 281.965820312 284.967773438 286.875976562 c 0
 286.37109375 293.67578125 288.956054688 302.600585938 292.723632812 313.651367188 c 0
 296.491210938 324.701171875 299.114257812 332.776367188 300.591796875 337.875976562 c 0
 302.068359375 342.975585938 304.099609375 351.618164062 306.684570312 363.80078125 c 0
 309.26953125 375.984375 311.58984375 387.7421875 313.64453125 399.075195312 c 0
 315.69921875 410.408203125 318.486328125 427.69140625 322.005859375 450.924804688 c 0
 325.91796875 478.124023438 330.163085938 504.19140625 334.741210938 529.124023438 c 0
 339.3203125 554.057617188 343.141601562 573.607421875 346.205078125 587.774414062 c 0
 349.270507812 601.94140625 353.036132812 619.5078125 357.50390625 640.475585938 c 0
 361.971679688 661.442382812 364.907226562 675.325195312 366.310546875 682.125 c 0
 370.051757812 700.2578125 377.513671875 714.283203125 388.698242188 724.200195312 c 0
 399.881835938 734.1171875 411.991210938 739.075195312 425.024414062 739.075195312 c 2
 428.423828125 739.075195312 l 2
 440.890625 739.075195312 450.439453125 734.541992188 457.067382812 725.475585938 c 0
 461.119140625 719.934570312 463.338867188 712.701171875 463.728515625 703.775390625 c 0
 463.9765625 698.09375 463.483398438 691.727539062 462.248046875 684.674804688 c 0
277.661132812 25.9267578125 m 2
 258.961914062 25.9267578125 244.78125 32.7265625 235.12109375 46.3271484375 c 0
 227.34375 57.09375 223.159179688 69.294921875 222.563476562 82.931640625 c 0
 222.28125 89.3916015625 222.8046875 96.1728515625 224.134765625 103.276367188 c 0
 227.77734375 123.676757812 238.638671875 140.959960938 256.719726562 155.126953125 c 0
 276.452148438 170.426757812 296.375976562 178.077148438 316.493164062 178.077148438 c 0
 336.610351562 178.077148438 351.782226562 171.276367188 362.008789062 157.676757812 c 0
 369.221679688 148.232421875 373.102539062 137.213867188 373.65234375 124.62109375 c 0
 373.927734375 118.325195312 373.369140625 111.634765625 371.978515625 104.551757812 c 0
 367.806640625 83.3017578125 357.954101562 65.59375 342.422851562 51.4267578125 c 0
 326.891601562 37.259765625 308.137695312 28.759765625 286.161132812 25.9267578125 c 2
 277.661132812 25.9267578125 l 2
EndSplineSet
Validated: 524289
EndChar

StartChar: quotedbl
Encoding: 34 34 9
Width: 550
VWidth: 941
GlyphClass: 2
Flags: W
HStem: 450.909 316.307
VStem: 402.923 96.8359<463.935 586.686>
LayerCount: 2
Fore
SplineSet
421.040039062 719.509765625 m 0
 420.228515625 712.142578125 418.1953125 700.243164062 414.946289062 683.810546875 c 0
 411.696289062 667.376953125 405.3828125 636.77734375 396.004882812 592.010742188 c 0
 386.158203125 544.977539062 378.243164062 512.110351562 372.258789062 493.41015625 c 0
 367.778320312 479.243164062 360.03125 468.4765625 349.01953125 461.109375 c 0
 339.116210938 454.309570312 329.34765625 450.909179688 319.71484375 450.909179688 c 0
 306.681640625 450.909179688 295.163085938 455.159179688 285.159179688 463.659179688 c 0
 279.36328125 469.212890625 276.284179688 476.154296875 275.919921875 484.484375 c 0
 275.764648438 488.0546875 276.107421875 491.879882812 276.948242188 495.958984375 c 2
 278.42578125 501.059570312 l 2
 283.694335938 523.159179688 289.306640625 550.359375 295.263671875 582.659179688 c 0
 297.134765625 591.7265625 298.697265625 601.359375 299.952148438 611.559570312 c 0
 309.919921875 668.79296875 316.454101562 707.325195312 319.555664062 727.158203125 c 0
 320.93359375 734.525390625 323.766601562 741.04296875 328.051757812 746.708984375 c 0
 333.420898438 753.509765625 339.715820312 758.609375 346.93359375 762.009765625 c 0
 355.70703125 765.48046875 364.33984375 767.215820312 372.830078125 767.215820312 c 0
 374.043945312 767.215820312 375.25390625 767.180664062 376.4609375 767.109375 c 0
 384.39453125 767.109375 390.80078125 766.401367188 395.678710938 764.984375 c 0
 400.55859375 763.567382812 405.337890625 761.159179688 410.01953125 757.759765625 c 0
 414.701171875 754.359375 418.041015625 749.259765625 420.038085938 742.458984375 c 0
 422.03515625 735.659179688 422.369140625 728.009765625 421.040039062 719.509765625 c 0
547.725585938 718.66015625 m 0
 546.838867188 712.993164062 545.940429688 707.611328125 545.030273438 702.510742188 c 0
 539.4921875 673.611328125 532.032226562 636.778320312 522.654296875 592.010742188 c 0
 512.80859375 544.978515625 505.17578125 512.111328125 499.758789062 493.411132812 c 0
 495.278320312 479.244140625 487.248046875 468.477539062 475.668945312 461.110351562 c 0
 465.766601562 454.310546875 455.71484375 450.91015625 445.514648438 450.91015625 c 0
 432.481445312 450.91015625 421.529296875 455.16015625 412.658203125 463.66015625 c 0
 406.557617188 469.505859375 403.3125 476.889648438 402.922851562 485.8125 c 0
 402.783203125 488.999023438 403.008789062 492.381835938 403.59765625 495.959960938 c 2
 405.075195312 501.060546875 l 2
 409.901367188 520.327148438 414.836914062 543.560546875 419.881835938 570.760742188 c 0
 430.416015625 627.993164062 438.969726562 678.709960938 445.540039062 722.91015625 c 1
 445.428710938 725.459960938 l 2
 446.78125 733.393554688 450.0078125 740.618164062 455.106445312 747.135742188 c 0
 460.205078125 753.65234375 466.36328125 758.610351562 473.58203125 762.010742188 c 0
 482.354492188 765.481445312 490.987304688 767.216796875 499.477539062 767.216796875 c 0
 500.69140625 767.216796875 501.901367188 767.181640625 503.109375 767.110351562 c 0
 511.041992188 767.110351562 517.448242188 766.40234375 522.327148438 764.985351562 c 0
 527.206054688 763.568359375 531.973632812 761.443359375 536.629882812 758.610351562 c 0
 541.87890625 755.209960938 545.366210938 749.96875 547.091796875 742.885742188 c 0
 548.818359375 735.801757812 549.028320312 727.727539062 547.725585938 718.66015625 c 0
EndSplineSet
Validated: 524289
EndChar

StartChar: numbersign
Encoding: 35 35 10
Width: 550
VWidth: 904
GlyphClass: 2
Flags: HMW
HStem: 42.3179 17.85G<160.103 166.336> 205.944 92.2259<314.236 314.236> 422.27 92.6517<405.182 438.332 366.932 474.032>
LayerCount: 2
Fore
SplineSet
249.125976562 420.568359375 m 1
 234.416992188 420.000976562 226.197265625 420.002929688 224.47265625 420.569335938 c 0
 210.305664062 420.569335938 199.944335938 424.252929688 193.389648438 431.619140625 c 0
 188.328125 437.619140625 185.6171875 444.749023438 185.256835938 453.0078125 c 0
 185.106445312 456.44921875 185.36328125 460.0859375 186.030273438 463.919921875 c 2
 185.918945312 466.469726562 l 2
 188.232421875 478.369140625 194.432617188 488.852539062 204.51953125 497.919921875 c 0
 214.606445312 506.986328125 227.571289062 511.803710938 243.4140625 512.370117188 c 0
 252.455078125 512.9375 265.4765625 513.220703125 282.4765625 513.220703125 c 1
 327.208007812 637.3203125 l 2
 335.5078125 654.887695312 345.743164062 667.0703125 357.913085938 673.870117188 c 0
 366.21484375 678.403320312 374.616210938 680.670898438 383.116210938 680.670898438 c 0
 386.515625 680.670898438 390.223632812 680.103515625 394.240234375 678.970703125 c 0
 407.397460938 676.137695312 416.489257812 669.0546875 421.517578125 657.721679688 c 0
 423.765625 652.9609375 425.014648438 647.69140625 425.267578125 641.911132812 c 0
 425.435546875 638.057617188 425.161132812 633.977539062 424.44140625 629.670898438 c 0
 423.53125 624.571289062 421.770507812 619.471679688 419.16015625 614.37109375 c 2
 382.703125 514.920898438 l 1
 451.553710938 514.920898438 l 1
 493.255859375 630.521484375 l 2
 501.530273438 648.654296875 511.75390625 661.12109375 523.923828125 667.920898438 c 0
 532.225585938 672.454101562 540.639648438 674.4375 549.1640625 673.870117188 c 0
 553.130859375 673.870117188 557.110351562 673.586914062 561.1015625 673.020507812 c 0
 574.258789062 670.1875 583.634765625 663.104492188 589.229492188 651.771484375 c 0
 591.462890625 647.350585938 592.697265625 642.420898438 592.934570312 636.981445312 c 0
 593.092773438 633.354492188 592.80859375 629.500976562 592.080078125 625.420898438 c 0
 591.194335938 619.75390625 589.1875 613.8046875 586.059570312 607.571289062 c 0
 576.775390625 586.604492188 565.078125 556.00390625 550.966796875 515.771484375 c 1
 565.159179688 515.204101562 576.124023438 510.670898438 583.862304688 502.170898438 c 0
 591.295898438 494.143554688 595.22265625 485.329101562 595.641601562 475.7265625 c 0
 595.725585938 473.806640625 595.668945312 471.854492188 595.47265625 469.87109375 c 0
 593.208007812 456.837890625 587.032226562 445.788085938 576.9453125 436.721679688 c 0
 566.858398438 427.654296875 554.17578125 422.836914062 538.901367188 422.270507812 c 2
 538.051757812 422.270507812 l 1
 517.651367188 422.270507812 l 1
 474.65625 297.3203125 l 1
 495.90625 297.3203125 l 2
 511.20703125 297.3203125 521.297851562 293.353515625 526.17578125 285.420898438 c 0
 529.4296875 280.131835938 531.208984375 273.961914062 531.517578125 266.911132812 c 0
 531.670898438 263.384765625 531.45703125 259.637695312 530.874023438 255.670898438 c 2
 530.911132812 254.8203125 l 2
 528.671875 241.220703125 523.747070312 230.737304688 516.134765625 223.370117188 c 0
 506.40625 212.603515625 493.890625 207.220703125 478.58984375 207.220703125 c 2
 442.890625 207.220703125 l 1
 421.712890625 147.153320312 406.801757812 105.786132812 398.159179688 83.119140625 c 0
 389.735351562 68.38671875 378.330078125 57.0537109375 363.943359375 49.1201171875 c 0
 355.474609375 44.5302734375 347.59375 42.2353515625 340.301757812 42.2353515625 c 0
 339.491210938 42.2353515625 338.686523438 42.263671875 337.891601562 42.3203125 c 0
 333.358398438 42.3203125 329.083984375 42.8876953125 325.067382812 44.0205078125 c 0
 313.04296875 46.853515625 305.009765625 55.63671875 300.966796875 70.369140625 c 0
 298.919921875 78.302734375 298.857421875 86.2353515625 300.77734375 94.1689453125 c 0
 302.180664062 100.96875 304.420898438 108.051757812 307.5 115.418945312 c 0
 316.2421875 135.818359375 327.951171875 166.135742188 342.626953125 206.369140625 c 1
 332.994140625 206.369140625 320.534179688 206.2265625 305.247070312 205.943359375 c 0
 289.958984375 205.661132812 277.498046875 205.518554688 267.865234375 205.518554688 c 1
 238.905273438 129.018554688 223.919921875 89.3515625 222.911132812 86.5185546875 c 0
 215.595703125 72.3515625 204.204101562 60.7353515625 188.732421875 51.66796875 c 0
 178.237304688 45.4345703125 168.740234375 42.318359375 160.240234375 42.318359375 c 0
 156.2734375 42.318359375 151.999023438 42.884765625 147.416015625 44.017578125 c 0
 135.392578125 46.8505859375 127.901367188 56.201171875 124.94140625 72.068359375 c 0
 123.461914062 80.0009765625 123.405273438 87.79296875 124.771484375 95.443359375 c 0
 126.13671875 103.092773438 128.62890625 110.884765625 132.250976562 118.818359375 c 0
 138.45703125 132.41796875 150.240234375 161.03515625 167.602539062 204.66796875 c 1
 155.702148438 204.66796875 l 2
 140.40234375 204.66796875 129.204101562 208.068359375 122.107421875 214.868164062 c 0
 116.553710938 220.188476562 113.596679688 226.987304688 113.235351562 235.263671875 c 0
 113.095703125 238.446289062 113.340820312 241.84765625 113.969726562 245.467773438 c 2
 113.821289062 248.868164062 l 2
 116.134765625 260.767578125 122.064453125 270.967773438 131.610351562 279.467773438 c 0
 141.15625 287.967773438 153.837890625 292.78515625 169.655273438 293.91796875 c 0
 174.188476562 293.91796875 179.849609375 294.059570312 186.63671875 294.342773438 c 0
 193.424804688 294.625976562 198.517578125 294.767578125 201.91796875 294.767578125 c 2
 249.125976562 420.568359375 l 1
419.8984375 422.26953125 m 1
 348.498046875 422.26953125 l 1
 302.06640625 298.169921875 l 1
 375.166015625 298.169921875 l 1
 390.409179688 338.40234375 405.3203125 379.76953125 419.8984375 422.26953125 c 1
EndSplineSet
Validated: 524289
EndChar

StartChar: dollar
Encoding: 36 36 11
Width: 550
VWidth: 901
GlyphClass: 2
Flags: HMW
HStem: 580.702 85.85
VStem: 457.627 99.8682
LayerCount: 2
Fore
SplineSet
299.134765625 -59.349609375 m 0
 287.323242188 -67.849609375 274.340820312 -72.0986328125 260.173828125 -72.0986328125 c 2
 259.32421875 -72.0986328125 l 2
 245.157226562 -72.0986328125 235.301757812 -66.9990234375 229.755859375 -56.798828125 c 0
 227.25390625 -52.5009765625 225.872070312 -47.3359375 225.609375 -41.302734375 c 0
 225.420898438 -36.9931640625 225.803710938 -32.2421875 226.755859375 -27.0478515625 c 0
 227.200195312 -24.21484375 228.258789062 -19.2568359375 229.931640625 -12.173828125 c 0
 231.606445312 -5.0908203125 234.337890625 6.951171875 238.12890625 23.951171875 c 1
 219.404296875 24.5185546875 201.430664062 27.3515625 184.208007812 32.451171875 c 0
 168.142578125 36.984375 154.24609375 43.7841796875 142.517578125 52.8515625 c 0
 120.2421875 69.8515625 105.750976562 90.2509765625 99.044921875 114.05078125 c 0
 97.4384765625 121.174804688 96.49609375 127.928710938 96.2177734375 134.311523438 c 0
 96.0087890625 139.099609375 96.1728515625 143.6796875 96.7109375 148.05078125 c 0
 97.1298828125 151.451171875 98.1259765625 154.568359375 99.703125 157.401367188 c 0
 104.825195312 169.868164062 113.766601562 179.217773438 126.528320312 185.451171875 c 0
 133.747070312 188.8515625 139.461914062 190.9765625 143.674804688 191.826171875 c 0
 147.887695312 192.67578125 151.26953125 193.1015625 153.819335938 193.1015625 c 2
 161.043945312 193.1015625 l 2
 167.301757812 192.534179688 172.66796875 189.701171875 177.140625 184.6015625 c 0
 181.61328125 179.500976562 185.721679688 172.984375 189.46875 165.05078125 c 0
 196.9609375 149.184570312 206.573242188 136.716796875 218.301757812 127.650390625 c 0
 228.255859375 120.283203125 241.19140625 116.033203125 257.108398438 114.900390625 c 1
 273.821289062 199.333007812 288.639648438 275.266601562 301.561523438 342.69921875 c 1
 299.862304688 342.69921875 296.720703125 343.266601562 292.137695312 344.399414062 c 0
 289.280273438 344.966796875 285.30078125 345.249023438 280.200195312 345.249023438 c 0
 258.569335938 347.516601562 239.905273438 353.18359375 224.208007812 362.25 c 0
 209.645507812 371.317382812 198.267578125 382.083984375 190.073242188 394.55078125 c 0
 181.87890625 407.017578125 176.333007812 420.4765625 173.435546875 434.92578125 c 0
 172.27734375 440.706054688 171.571289062 446.462890625 171.321289062 452.198242188 c 0
 170.9453125 460.799804688 171.592773438 469.350585938 173.26171875 477.8515625 c 0
 177.4453125 498.818359375 184.359375 518.934570312 194.001953125 538.202148438 c 0
 203.642578125 557.46875 216.31640625 575.4609375 232.018554688 592.177734375 c 0
 247.721679688 608.89453125 267.213867188 623.203125 290.494140625 635.102539062 c 0
 312.69140625 645.870117188 336.427734375 653.802734375 361.705078125 658.90234375 c 1
 364.043945312 670.236328125 366.862304688 683.552734375 370.161132812 698.852539062 c 0
 375.7734375 726.052734375 387.768554688 743.3359375 406.147460938 750.703125 c 0
 412.282226562 752.969726562 419.599609375 754.102539062 428.099609375 754.102539062 c 0
 445.666015625 754.102539062 457.258789062 748.15234375 462.87890625 736.252929688 c 0
 465.227539062 731.37109375 466.541015625 725.749023438 466.818359375 719.388671875 c 0
 467.056640625 713.936523438 466.534179688 707.940429688 465.25 701.40234375 c 0
 462.025390625 684.40234375 459.700195312 672.78515625 458.271484375 666.551757812 c 1
 470.221679688 665.418945312 485.940429688 662.301757812 505.4296875 657.202148438 c 0
 524.328125 652.668945312 538.963867188 648.418945312 549.3359375 644.452148438 c 0
 560.8671875 639.918945312 568.284179688 632.268554688 571.587890625 621.501953125 c 0
 574.201171875 613.569335938 574.842773438 605.3515625 573.513671875 596.8515625 c 0
 573.0703125 594.018554688 572.356445312 590.90234375 571.372070312 587.501953125 c 0
 568.911132812 579.001953125 564.532226562 572.202148438 558.23828125 567.1015625 c 0
 551.944335938 562.001953125 545.137695312 558.884765625 537.8203125 557.751953125 c 0
 534.4453125 557.184570312 531.340820312 556.90234375 528.5078125 556.90234375 c 0
 525.674804688 556.90234375 522.55078125 557.043945312 519.139648438 557.327148438 c 0
 515.7265625 557.610351562 511.716796875 558.6015625 507.109375 560.301757812 c 0
 501.392578125 561.434570312 494.77734375 563.702148438 487.26171875 567.1015625 c 0
 473.33984375 574.46875 458.125 579.001953125 441.618164062 580.702148438 c 1
 430.416992188 525.735351562 419.661132812 473.6015625 409.345703125 424.301757812 c 1
 432.185546875 420.334960938 453.12890625 414.384765625 472.17578125 406.452148438 c 0
 489.546875 397.952148438 503.30859375 387.751953125 513.4609375 375.8515625 c 0
 523.614257812 363.952148438 531.28515625 350.494140625 536.473632812 335.4765625 c 0
 541.357421875 321.342773438 544.107421875 307.208007812 544.724609375 293.07421875 c 0
 544.823242188 290.825195312 544.880859375 288.399414062 544.880859375 285.8125 c 0
 544.880859375 274.752929688 543.831054688 260.7421875 540.426757812 244.951171875 c 0
 535.35546875 218.318359375 526.256835938 193.1015625 513.12890625 169.30078125 c 0
 500.000976562 145.500976562 484.1875 124.818359375 465.6875 107.250976562 c 0
 447.186523438 89.6845703125 426.310546875 74.6669921875 403.053710938 62.2001953125 c 0
 380.881835938 50.8671875 357.760742188 41.80078125 333.690429688 35 c 1
 328.15234375 6.1005859375 325.0390625 -13.44921875 324.3515625 -23.6494140625 c 0
 319.352539062 -38.94921875 310.947265625 -50.849609375 299.134765625 -59.349609375 c 0
299.3828125 548.401367188 m 0
 284.084960938 535.368164062 274.552734375 520.067382812 270.787109375 502.5 c 0
 270.09765625 498.817382812 269.829101562 495.22265625 269.982421875 491.715820312 c 0
 270.44140625 481.197265625 274.69140625 471.475585938 282.731445312 462.55078125 c 0
 291.676757812 452.350585938 303.91015625 444.700195312 319.43359375 439.600585938 c 1
 326.399414062 474.733398438 335.19921875 519.783203125 345.833007812 574.75 c 1
 327.970703125 568.517578125 312.48828125 559.734375 299.3828125 548.401367188 c 0
408.659179688 167.600585938 m 0
 428.291992188 185.166992188 440.1640625 205.282226562 444.275390625 227.94921875 c 0
 446.096679688 238.149414062 446.845703125 246.932617188 446.524414062 254.299804688 c 0
 446.153320312 262.799804688 443.787109375 271.58203125 439.423828125 280.649414062 c 0
 432.498046875 296.516601562 415.766601562 309.833007812 389.229492188 320.600585938 c 1
 376.775390625 255.43359375 368.56640625 213.075195312 364.603515625 193.525390625 c 0
 360.639648438 173.975585938 356.318359375 152.8671875 351.641601562 130.200195312 c 1
 373.296875 140.400390625 392.301757812 152.8671875 408.659179688 167.600585938 c 0
EndSplineSet
Validated: 524289
EndChar

StartChar: percent
Encoding: 37 37 12
Width: 550
VWidth: 899
GlyphClass: 2
Flags: HMW
HStem: 15.0433 85.8491<385.212 425.162 396.262 425.162> 184.192 83.3<448.962 449.81> 406.048 84.1458<249.489 288.311> 565.843 82.4558<296.811 344.124>
VStem: 315.512 83.2983<136.592 137.442 137.442 137.442> 329.962 86.6958 467.661 81.6017
LayerCount: 2
Fore
SplineSet
161.249023438 466.823242188 m 0xf6
 159.260742188 474.569335938 158.087890625 482.513671875 157.732421875 490.658203125 c 0
 157.655273438 492.430664062 157.6171875 494.212890625 157.6171875 496.004882812 c 0
 157.6171875 504.348632812 158.455078125 512.896484375 160.1328125 521.6484375 c 0
 160.131835938 521.673828125 160.131835938 521.69921875 160.131835938 521.724609375 c 0
 160.131835938 522.265625 160.390625 522.807617188 160.908203125 523.348632812 c 0
 167.849609375 559.048828125 183.409179688 588.798828125 207.5859375 612.598632812 c 0
 231.763671875 636.399414062 262.552734375 648.298828125 299.952148438 648.298828125 c 0
 331.685546875 648.298828125 356.498046875 638.098632812 374.388671875 617.69921875 c 0
 383.92578125 606.932617188 389.631835938 593.048828125 391.5078125 576.048828125 c 0
 391.891601562 573.02734375 392.151367188 569.921875 392.291015625 566.733398438 c 0
 392.37109375 564.916015625 392.41015625 563.071289062 392.41015625 561.19921875 c 0
 392.41015625 551.5703125 391.361328125 541.219726562 389.260742188 530.149414062 c 0
 380.940429688 487.08203125 363.638671875 455.065429688 337.354492188 434.098632812 c 0
 313.803710938 415.3984375 282.194335938 406.047851562 242.52734375 406.047851562 c 0
 220.995117188 406.047851562 203.173828125 411.856445312 189.067382812 423.473632812 c 0
 174.959960938 435.08984375 165.6875 449.540039062 161.249023438 466.823242188 c 0xf6
103.38671875 10.7978515625 m 0
 97.0048828125 14.1982421875 92.005859375 18.4443359375 88.3828125 23.5439453125 c 0
 85.4140625 28.279296875 83.9296875 33.6337890625 83.9296875 39.60546875 c 0
 83.9296875 42.2099609375 84.2119140625 44.9306640625 84.775390625 47.76953125 c 0
 86.6337890625 57.119140625 91.2958984375 67.1767578125 98.7578125 77.9443359375 c 0
 114.15234375 101.744140625 149.669921875 151.327148438 205.313476562 226.694335938 c 0
 323.32421875 378.530273438 382.330078125 454.747070312 382.330078125 455.344726562 c 0
 382.330078125 455.344726562 l 0
 441.323242188 531.844726562 481.705078125 586.811523438 503.479492188 620.245117188 c 0
 514.29296875 632.14453125 526.708984375 639.794921875 540.727539062 643.1953125 c 2
 552.553710938 644.89453125 l 2
 561.053710938 644.89453125 568.518554688 642.627929688 574.950195312 638.094726562 c 0
 585.436523438 632.173828125 590.91015625 623.951171875 591.369140625 613.427734375 c 0
 591.400390625 612.732421875 591.4140625 612.083007812 591.4140625 611.47265625 c 0
 591.4140625 608.838867188 591.155273438 606.908203125 590.84765625 604.9453125 c 0
 589.000976562 595.3125 583.791992188 584.830078125 575.219726562 573.497070312 c 0
 549.478515625 540.063476562 484.352539062 454.780273438 379.83984375 317.647460938 c 0
 274.759765625 180.514648438 205.138671875 87.8642578125 170.974609375 39.697265625 c 0
 154.81640625 17.017578125 138.703125 5.677734375 122.635742188 5.677734375 c 0
 122.243164062 5.677734375 121.8515625 5.6845703125 121.458984375 5.6982421875 c 0
 115.225585938 5.6982421875 109.202148438 7.3984375 103.38671875 10.7978515625 c 0
303.520507812 556.918945312 m 0
 298.444335938 562.869140625 289.672851562 565.84375 277.206054688 565.84375 c 0
 267.005859375 565.84375 259.208984375 562.7265625 253.814453125 556.493164062 c 0
 246.768554688 549.125976562 241.263671875 538.926757812 237.30078125 525.893554688 c 0
 237.305664062 525.793945312 237.307617188 525.6953125 237.307617188 525.595703125 c 0
 237.307617188 524.561523438 237.071289062 523.52734375 236.598632812 522.494140625 c 0
 235.956054688 518.89453125 235.634765625 515.612304688 235.634765625 512.647460938 c 0
 235.634765625 507.211914062 236.71484375 502.844726562 238.875976562 499.543945312 c 0
 242.215820312 494.444335938 251.276367188 491.327148438 266.05859375 490.194335938 c 2
 266.909179688 490.194335938 l 2
 277.109375 490.194335938 285.202148438 493.02734375 291.1875 498.694335938 c 0
 298.2578125 505.494140625 303.529296875 514.561523438 307.000976562 525.89453125 c 0
 307 525.919921875 307 525.946289062 307 525.97265625 c 0
 307 526.538085938 307.24609375 527.362304688 307.740234375 528.444335938 c 0
 308.438476562 532.46484375 308.788085938 536.1484375 308.788085938 539.495117188 c 0
 308.788085938 540.166015625 308.7734375 540.823242188 308.745117188 541.466796875 c 0
 308.458984375 548.021484375 306.716796875 553.172851562 303.520507812 556.918945312 c 0
310.833984375 77.943359375 m 0
 308.54296875 86.185546875 307.20703125 94.662109375 306.826171875 103.373046875 c 0
 306.750976562 105.10546875 306.712890625 106.846679688 306.712890625 108.59765625 c 0
 306.712890625 117.411132812 307.670898438 126.458984375 309.584960938 135.7421875 c 1
 309.510742188 137.442382812 l 1xfa
 316.377929688 174.842773438 332.874023438 205.8671875 358.998046875 230.517578125 c 0
 385.12109375 255.166992188 417.733398438 267.4921875 456.833007812 267.4921875 c 0
 486.866210938 267.4921875 509.990234375 257.009765625 526.206054688 236.041992188 c 0
 534.634765625 224.708984375 539.52734375 209.9765625 540.885742188 191.84375 c 0
 541.03125 190.142578125 541.141601562 188.419921875 541.217773438 186.674804688 c 0
 541.302734375 184.747070312 541.344726562 182.791992188 541.344726562 180.810546875 c 0
 541.344726562 170.240234375 540.147460938 158.901367188 537.752929688 146.79296875 c 0
 536.8671875 141.125976562 535.698242188 135.458984375 534.245117188 129.791992188 c 0
 525.653320312 92.958984375 510.315429688 64.6259765625 488.231445312 44.79296875 c 0
 466.147460938 24.9599609375 436.6875 15.04296875 399.854492188 15.04296875 c 2
 395.604492188 15.04296875 l 2
 373.504882812 15.04296875 355.112304688 20.9931640625 340.42578125 32.8935546875 c 0
 325.739257812 44.79296875 315.875976562 59.810546875 310.833984375 77.943359375 c 0
420.756835938 100.892578125 m 2
 423.3046875 100.891601562 l 2
 432.9375 100.891601562 440.46484375 103.724609375 445.8828125 109.391601562 c 0
 452.928710938 116.758789062 458.162109375 126.67578125 461.584960938 139.142578125 c 1
 461.473632812 141.692382812 l 2
 462.518554688 148.036132812 463.041015625 153.640625 463.041015625 158.504882812 c 0
 463.041015625 159.432617188 463.021484375 160.334960938 462.983398438 161.208984375 c 0
 462.791992188 165.575195312 462.126953125 169.26953125 460.987304688 172.291992188 c 0
 457.240234375 180.225585938 448.567382812 184.192382812 434.967773438 184.192382812 c 0
 424.767578125 184.192382812 416.428710938 180.509765625 409.950195312 173.142578125 c 0
 402.387695312 164.642578125 396.650390625 153.309570312 392.735351562 139.142578125 c 1
 392.846679688 136.592773438 l 2
 391.890625 131.956054688 391.412109375 127.768554688 391.412109375 124.033203125 c 0
 391.412109375 118.637695312 392.409179688 114.182617188 394.404296875 110.666992188 c 0
 397.78125 104.717773438 406.565429688 101.458984375 420.756835938 100.892578125 c 2
EndSplineSet
Validated: 524289
EndChar

StartChar: ampersand
Encoding: 38 38 13
Width: 550
VWidth: 901
GlyphClass: 2
Flags: HMW
HStem: 5.25283 100.299<223.359 268.976> 589.201 87.5508<400.158 437.843>
LayerCount: 2
Fore
SplineSet
497.53515625 60.5 m 0
 497.092773438 57.6669921875 496.377929688 54.55078125 495.393554688 51.1513671875 c 0
 490.026367188 31.318359375 481.245117188 18.28515625 469.05078125 12.0517578125 c 0
 458.458007812 8.0849609375 451.743164062 6.1015625 448.91015625 6.1015625 c 2
 448.060546875 6.1015625 l 2
 441.260742188 6.1015625 434.361328125 8.369140625 427.36328125 12.90234375 c 0
 415.142578125 20.2685546875 406.0859375 33.0185546875 400.193359375 51.15234375 c 0
 399.502929688 53.9853515625 398.232421875 60.3603515625 396.3828125 70.27734375 c 2
 392.499023438 91.1015625 l 1
 386.01953125 83.7353515625 381.01953125 78.2099609375 377.497070312 74.52734375 c 0
 373.975585938 70.84375 368.401367188 65.4609375 360.778320312 58.3779296875 c 0
 353.154296875 51.294921875 346.73828125 45.76953125 341.52734375 41.802734375 c 0
 336.317382812 37.8359375 329.296875 33.1611328125 320.46484375 27.7783203125 c 0
 311.633789062 22.39453125 303.306640625 18.427734375 295.484375 15.8779296875 c 0
 287.663085938 13.328125 278.842773438 10.919921875 269.025390625 8.6533203125 c 0
 259.208007812 6.3857421875 249.198242188 5.2529296875 238.998046875 5.2529296875 c 0
 207.265625 5.2529296875 180.11328125 13.89453125 157.541992188 31.177734375 c 0
 134.969726562 48.4609375 119.099609375 71.2685546875 109.9296875 99.6015625 c 0
 105.174804688 114.29296875 102.450195312 129.592773438 101.755859375 145.502929688 c 0
 101.63671875 148.2265625 101.577148438 150.966796875 101.577148438 153.725585938 c 0
 101.577148438 165.934570312 102.7421875 178.493164062 105.072265625 191.40234375 c 0
 114.251953125 240.702148438 130.826171875 282.918945312 154.791992188 318.051757812 c 0
 182.453125 359.418945312 219.576171875 391.71875 266.161132812 414.952148438 c 1
 256.640625 438.327148438 l 2
 252.833007812 447.676757812 249.967773438 454.90234375 248.044921875 460.001953125 c 0
 246.122070312 465.1015625 243.989257812 471.759765625 241.647460938 479.9765625 c 0
 239.305664062 488.194335938 237.998046875 495.418945312 237.7265625 501.65234375 c 0
 237.587890625 504.815429688 237.51953125 507.967773438 237.51953125 511.111328125 c 0
 237.51953125 524.86328125 238.840820312 538.426757812 241.487304688 551.801757812 c 0
 243.283203125 562.569335938 246.6328125 573.4765625 251.532226562 584.52734375 c 0
 256.432617188 595.577148438 263.311523438 606.768554688 272.166015625 618.1015625 c 0
 281.022460938 629.435546875 291.35546875 639.3515625 303.16796875 647.8515625 c 0
 314.979492188 656.3515625 329.268554688 663.293945312 346.033203125 668.676757812 c 0
 362.798828125 674.060546875 380.813476562 676.751953125 400.081054688 676.751953125 c 0
 416.513671875 676.751953125 432.080078125 673.918945312 446.77734375 668.251953125 c 0
 461.474609375 662.584960938 474.435546875 654.509765625 485.659179688 644.02734375 c 0
 496.884765625 633.543945312 504.721679688 619.518554688 509.171875 601.952148438 c 0
 511.038085938 594.584960938 512.147460938 586.869140625 512.499023438 578.805664062 c 0
 512.581054688 576.928710938 512.622070312 575.032226562 512.622070312 573.1171875 c 0
 512.622070312 563.640625 511.6171875 553.702148438 509.608398438 543.301757812 c 0
 505.916015625 524.03515625 500.326171875 506.04296875 492.83984375 489.326171875 c 0
 485.3515625 472.609375 477.0390625 458.583984375 467.901367188 447.250976562 c 0
 458.763671875 435.91796875 447.89453125 425.29296875 435.293945312 415.375976562 c 0
 422.693359375 405.458984375 412.11328125 397.951171875 403.552734375 392.8515625 c 0
 394.9921875 387.750976562 386.548828125 383.217773438 378.221679688 379.250976562 c 1
 384.630859375 362.250976562 394.065429688 340.859375 406.5234375 315.076171875 c 0
 418.982421875 289.29296875 427.750976562 270.16796875 432.827148438 257.701171875 c 1
 434.946289062 261.1015625 438.1171875 266.342773438 442.340820312 273.42578125 c 0
 446.565429688 280.508789062 450.794921875 287.451171875 455.03125 294.250976562 c 0
 459.267578125 301.05078125 462.727539062 306.151367188 465.412109375 309.55078125 c 0
 478.836914062 326.55078125 491.413085938 337.034179688 503.139648438 341.000976562 c 0
 507.59765625 342.701171875 512.09375 343.55078125 516.626953125 343.55078125 c 0
 523.994140625 343.55078125 531.1640625 341.568359375 538.13671875 337.6015625 c 0
 548.125 331.961914062 553.4140625 322.37890625 554.004882812 308.852539062 c 0
 554.06640625 307.428710938 554.077148438 305.961914062 554.03515625 304.451171875 c 0
 554.18359375 301.05078125 553.764648438 297.651367188 552.780273438 294.250976562 c 0
 550.466796875 282.3515625 545.061523438 269.883789062 536.563476562 256.8515625 c 0
 532.84375 251.184570312 523.1328125 239.9921875 507.4296875 223.275390625 c 0
 491.7265625 206.55859375 478.775390625 191.68359375 468.578125 178.650390625 c 1
 472.423828125 168.450195312 477.439453125 154.142578125 483.626953125 135.725585938 c 0
 489.813476562 117.30859375 493.548828125 106.400390625 494.830078125 103 c 0
 497.28515625 95.677734375 498.680664062 88.1904296875 499.014648438 80.5390625 c 0
 499.30078125 73.9794921875 498.807617188 67.30078125 497.53515625 60.5 c 0
333.06640625 537.3515625 m 0
 331.920898438 531.118164062 331.498046875 524.6015625 331.794921875 517.801757812 c 0
 332.091796875 511.001953125 333.108398438 503.918945312 334.84765625 496.551757812 c 0
 338.323242188 481.819335938 342.846679688 469.069335938 348.416992188 458.301757812 c 1
 357.926757812 461.134765625 366.28515625 464.393554688 373.490234375 468.076171875 c 0
 380.696289062 471.758789062 388 476.434570312 395.403320312 482.1015625 c 0
 402.8046875 487.768554688 408.729492188 494.8515625 413.17578125 503.3515625 c 0
 417.62109375 511.8515625 420.98828125 522.333984375 423.27734375 534.80078125 c 0
 424.369140625 540.799804688 424.806640625 546.319335938 424.5859375 551.359375 c 0
 424.162109375 561.080078125 421.295898438 569.018554688 415.989257812 575.17578125 c 0
 407.931640625 584.526367188 396.53515625 589.201171875 381.802734375 589.201171875 c 0
 367.069335938 589.201171875 355.662109375 584.383789062 347.583007812 574.750976562 c 0
 341.154296875 566.250976562 336.315429688 553.784179688 333.06640625 537.3515625 c 0
205.036132812 199.051757812 m 0
 203.018554688 188.172851562 202.212890625 178.063476562 202.620117188 168.725585938 c 0
 203.232421875 154.716796875 206.57421875 142.442382812 212.64453125 131.90234375 c 0
 222.760742188 114.334960938 238.01953125 105.551757812 258.419921875 105.551757812 c 0
 270.319335938 105.551757812 282.970703125 107.819335938 296.373046875 112.3515625 c 0
 300.85546875 113.485351562 305.986328125 116.03515625 311.763671875 120.001953125 c 2
 325.380859375 129.3515625 l 2
 328.680664062 131.619140625 332.770507812 135.301757812 337.6484375 140.40234375 c 0
 342.525390625 145.501953125 346.052734375 149.043945312 348.234375 151.02734375 c 0
 350.4140625 153.009765625 353.111328125 156.126953125 356.326171875 160.376953125 c 0
 359.540039062 164.626953125 361.689453125 167.319335938 362.7734375 168.452148438 c 0
 358.630859375 185.452148438 354.563476562 200.751953125 350.569335938 214.3515625 c 0
 346.600585938 227.384765625 338.502929688 247.360351562 326.27734375 274.27734375 c 0
 314.052734375 301.194335938 305.092773438 321.452148438 299.399414062 335.051757812 c 1
 286.638671875 328.819335938 275.059570312 321.452148438 264.6640625 312.952148438 c 0
 252.642578125 302.751953125 242.782226562 291.702148438 235.084960938 279.801757812 c 0
 227.387695312 267.90234375 221.1328125 255.435546875 216.318359375 242.40234375 c 0
 211.50390625 229.369140625 207.743164062 214.918945312 205.036132812 199.051757812 c 0
EndSplineSet
Validated: 524289
EndChar

StartChar: quotesingle
Encoding: 39 39 14
Width: 550
VWidth: 941
GlyphClass: 2
Flags: W
HStem: 460.326 298.349<389.065 427.498>
LayerCount: 2
Fore
SplineSet
482.5 710.224609375 m 0
 481.12109375 702.858398438 479.072265625 691.3828125 476.352539062 675.799804688 c 0
 473.631835938 660.216796875 468.998046875 636.55859375 462.451171875 604.826171875 c 0
 452.13671875 555.526367188 443.98828125 521.526367188 438.00390625 502.826171875 c 0
 433.547851562 488.092773438 425.530273438 477.04296875 413.951171875 469.67578125 c 0
 404.024414062 463.442382812 394.243164062 460.326171875 384.609375 460.326171875 c 0
 371.009765625 460.326171875 359.491210938 464.576171875 350.052734375 473.076171875 c 0
 344.2578125 478.62890625 341.178710938 485.571289062 340.814453125 493.901367188 c 0
 340.659179688 497.470703125 341.001953125 501.295898438 341.842773438 505.375976562 c 0
 341.768554688 507.076171875 342.26171875 508.776367188 343.3203125 510.475585938 c 0
 349.130859375 533.142578125 354.250976562 558.642578125 358.680664062 586.975585938 c 0
 365.990234375 627.208984375 373.21484375 669.42578125 380.3515625 713.625976562 c 1
 380.240234375 716.17578125 l 2
 381.59375 724.109375 384.684570312 731.192382812 389.512695312 737.424804688 c 0
 394.857421875 744.791992188 401.15234375 749.891601562 408.395507812 752.724609375 c 0
 418.421875 756.692382812 428.536132812 758.674804688 438.736328125 758.674804688 c 0
 446.668945312 758.674804688 452.939453125 757.825195312 457.546875 756.125 c 0
 462.154296875 754.424804688 466.78515625 752.158203125 471.442382812 749.325195312 c 0
 476.69140625 745.924804688 480.177734375 740.68359375 481.904296875 733.599609375 c 0
 483.629882812 726.516601562 483.828125 718.724609375 482.5 710.224609375 c 0
EndSplineSet
Validated: 524289
EndChar

StartChar: parenleft
Encoding: 40 40 15
Width: 550
VWidth: 901
GlyphClass: 2
Flags: HMW
HStem: -71.25 92.65<331.678 378.141> 664 89.25<513.295 548.144>
LayerCount: 2
Fore
SplineSet
402.591796875 -27.900390625 m 0
 400.303710938 -40.3671875 393.958984375 -50.7080078125 383.549804688 -58.9248046875 c 0
 373.142578125 -67.1416015625 363.122070312 -71.25 353.489257812 -71.25 c 0
 316.088867188 -71.25 284.857421875 -56.7998046875 259.795898438 -27.900390625 c 0
 234.733398438 1 217.584960938 40.099609375 208.349609375 89.400390625 c 0
 204.298828125 111.021484375 201.739257812 134.060546875 200.671875 158.516601562 c 0
 200.290039062 167.26953125 200.098632812 176.205078125 200.098632812 185.321289062 c 0
 200.098632812 208.80859375 201.3671875 233.501953125 203.903320312 259.400390625 c 0
 205.40234375 276.966796875 208.693359375 298.924804688 213.776367188 325.275390625 c 0
 218.834960938 352.192382812 226.47265625 384.916992188 236.690429688 423.450195312 c 0
 254.712890625 490.8828125 275.534179688 546.1328125 299.154296875 589.200195312 c 0
 309.62109375 609.033203125 322.662109375 628.299804688 338.278320312 647 c 0
 353.895507812 665.700195312 370.701171875 683.125 388.696289062 699.275390625 c 0
 406.69140625 715.424804688 426.380859375 728.458007812 447.764648438 738.375 c 0
 469.1484375 748.291992188 489.190429688 753.25 507.889648438 753.25 c 0
 522.623046875 753.25 532.75 748.432617188 538.270507812 738.799804688 c 0
 540.772460938 734.501953125 542.16015625 729.240234375 542.431640625 723.014648438 c 0
 542.625976562 718.568359375 542.250976562 713.629882812 541.307617188 708.200195312 c 0
 538.575195312 692.900390625 531.987304688 681.567382812 521.541992188 674.200195312 c 0
 512.206054688 667.400390625 501.729492188 664 490.112304688 664 c 0
 478.495117188 664 466.620117188 660.174804688 454.487304688 652.525390625 c 0
 442.354492188 644.875 430.930664062 633.966796875 420.215820312 619.799804688 c 0
 398.171875 592.599609375 379.243164062 558.8828125 363.43359375 518.650390625 c 0
 351.14453125 488.6171875 338.993164062 448.950195312 326.978515625 399.650390625 c 0
 320.75 373.583007812 315.678710938 350.208007812 311.764648438 329.525390625 c 0
 307.850585938 308.841796875 305.106445312 290.567382812 303.532226562 274.700195312 c 0
 301.302734375 253.737304688 300.188476562 233.151367188 300.188476562 212.942382812 c 0
 300.188476562 205.056640625 300.358398438 197.228515625 300.697265625 189.45703125 c 0
 300.8984375 184.842773438 301.159179688 180.249023438 301.481445312 175.674804688 c 0
 303.728515625 143.658203125 308.458007812 116.458007812 315.668945312 94.0751953125 c 0
 322.87890625 71.6923828125 331.59765625 53.7001953125 341.82421875 40.099609375 c 0
 351.411132812 28.2001953125 361.033203125 21.966796875 370.690429688 21.400390625 c 0
 383.723632812 21.400390625 393.092773438 17.716796875 398.796875 10.349609375 c 0
 402.08203125 6.1083984375 403.89453125 0.0830078125 404.235351562 -7.7265625 c 0
 404.487304688 -13.482421875 403.938476562 -20.20703125 402.591796875 -27.900390625 c 0
EndSplineSet
Validated: 524289
EndChar

StartChar: parenright
Encoding: 41 41 16
Width: 550
VWidth: 901
GlyphClass: 2
Flags: HMW
HStem: -71.25 92.6483<205.678 209.645> 664 89.25<355.562 390.128>
VStem: 428.095 92.6491
LayerCount: 2
Fore
SplineSet
194.057617188 -71.25 m 0
 184.423828125 -71.25 175.745117188 -67.14453125 168.01953125 -58.927734375 c 0
 162.439453125 -52.9931640625 159.471679688 -45.94921875 159.116210938 -37.7978515625 c 0
 158.979492188 -34.6630859375 159.228515625 -31.3642578125 159.86328125 -27.9013671875 c 0
 163.0390625 -9.7685546875 169.140625 2.9814453125 178.168945312 10.3486328125 c 0
 187.197265625 17.71484375 198.228515625 21.3984375 211.26171875 21.3984375 c 0
 220.89453125 21.3984375 232.805664062 27.6318359375 246.994140625 40.0986328125 c 0
 262.267578125 53.6982421875 277.631835938 71.6904296875 293.087890625 94.0732421875 c 0
 308.54296875 116.456054688 323.5 143.798828125 337.956054688 176.098632812 c 0
 352.413085938 208.3984375 364.294921875 241.265625 373.602539062 274.698242188 c 0
 377.9609375 291.698242188 381.966796875 310.256835938 385.62109375 330.373046875 c 0
 389.276367188 350.490234375 393.084960938 373.58203125 397.046875 399.649414062 c 0
 402.852539062 441.669921875 405.75390625 476.447265625 405.75390625 503.983398438 c 0
 405.75390625 509.125 405.653320312 514.013671875 405.451171875 518.650390625 c 0
 405.392578125 520.633789062 405.321289062 522.604492188 405.236328125 524.560546875 c 0
 403.614257812 561.704101562 397.1015625 593.734375 385.697265625 620.650390625 c 0
 380.00390625 634.25 372.59765625 644.875 363.48046875 652.525390625 c 0
 354.36328125 660.174804688 343.99609375 664 332.379882812 664 c 0
 320.762695312 664 311.40625 667.400390625 304.309570312 674.200195312 c 0
 299.048828125 679.240234375 296.228515625 686.137695312 295.845703125 694.891601562 c 0
 295.669921875 698.932617188 296.01171875 703.368164062 296.875 708.200195312 c 0
 298.204101562 716.700195312 300.986328125 724.349609375 305.22265625 731.150390625 c 0
 309.458984375 737.950195312 314.619140625 743.049804688 320.704101562 746.450195312 c 0
 329.005859375 750.983398438 337.974609375 753.25 347.607421875 753.25 c 0
 366.874023438 753.25 385.223632812 748.291992188 402.65625 738.375 c 0
 420.08984375 728.458007812 434.825195312 715.424804688 446.86328125 699.275390625 c 0
 458.90234375 683.125 469.154296875 665.700195312 477.62109375 647 c 0
 486.086914062 628.299804688 491.887695312 609.033203125 495.020507812 589.200195312 c 0
 497.4453125 574.096679688 499.046875 557.6015625 499.828125 539.713867188 c 0
 500.19921875 531.21484375 500.384765625 522.40234375 500.384765625 513.275390625 c 0
 500.384765625 486.115234375 498.741210938 456.173828125 495.45703125 423.450195312 c 0
 491.497070312 384.349609375 486.975585938 351.625 481.892578125 325.275390625 c 0
 476.810546875 298.924804688 471.819335938 276.966796875 466.919921875 259.400390625 c 0
 449.314453125 195.3671875 426.572265625 138.700195312 398.69140625 89.400390625 c 0
 370.810546875 40.099609375 339.084960938 1 303.513671875 -27.900390625 c 0
 267.942382812 -56.7998046875 231.45703125 -71.25 194.057617188 -71.25 c 0
EndSplineSet
Validated: 524289
EndChar

StartChar: asterisk
Encoding: 42 42 17
Width: 550
VWidth: 902
GlyphClass: 2
Flags: HMW
HStem: 290.901 108.799<189.288 219.889> 297.7 101.151<524.471 549.687> 301.95 85.8509
LayerCount: 2
Fore
SplineSet
244.4296875 138.75 m 2x20
 236.778320312 138.750976562 l 2
 233.37890625 138.750976562 228.961914062 139.317382812 223.529296875 140.451171875 c 0
 218.096679688 141.583984375 213.033203125 143.9921875 208.33984375 147.674804688 c 0
 203.645507812 151.358398438 199.740234375 156.458007812 196.623046875 162.974609375 c 0
 193.504882812 169.4921875 192.314453125 177.284179688 193.051757812 186.350585938 c 0
 192.977539062 188.05078125 193.161132812 190.317382812 193.604492188 193.151367188 c 0
 194.909179688 202.217773438 198.788085938 210.717773438 205.241210938 218.651367188 c 2
 262.288085938 294.30078125 l 1
 227.821289062 292.034179688 201.802734375 290.901367188 184.236328125 290.901367188 c 0
 168.936523438 290.901367188 157.638671875 296.567382812 150.34375 307.901367188 c 0
 145.977539062 315.186523438 143.598632812 323.338867188 143.205078125 332.359375 c 0
 143.046875 335.967773438 143.20703125 339.71484375 143.685546875 343.600585938 c 2
 143.57421875 346.151367188 l 2
 145.345703125 357.484375 150.518554688 368.817382812 159.090820312 380.150390625 c 0
 163.893554688 386.950195312 170.470703125 392.049804688 178.822265625 395.450195312 c 0
 184.931640625 398.283203125 191.669921875 399.700195312 199.037109375 399.700195312 c 2
 202.436523438 399.700195312 l 1
 203.287109375 399.700195312 l 2x80
 224.328125 398 253.327148438 395.733398438 290.284179688 392.900390625 c 1
 278.081054688 425.766601562 267.606445312 451.549804688 258.856445312 470.25 c 0
 255.732421875 477.921875 253.998046875 485.701171875 253.653320312 493.587890625 c 0
 253.438476562 498.516601562 253.765625 503.487304688 254.63671875 508.5 c 0
 255.104492188 510.766601562 255.85546875 513.034179688 256.889648438 515.30078125 c 0
 261.86328125 531.16796875 270.1640625 542.217773438 281.791992188 548.451171875 c 0
 289.52734375 552.984375 297.786132812 555.250976562 306.569335938 555.250976562 c 0
 315.352539062 555.250976562 323.538085938 552.701171875 331.127929688 547.600585938 c 0
 339.309570312 541.93359375 344.780273438 533.43359375 347.541992188 522.100585938 c 0
 350.329101562 510.201171875 358.020507812 483.284179688 370.618164062 441.350585938 c 1
 391.998046875 470.817382812 409.819335938 497.451171875 424.079101562 521.250976562 c 0
 430.9765625 532.017578125 439.124023438 540.092773438 448.521484375 545.475585938 c 0
 457.919921875 550.859375 466.584960938 553.55078125 474.518554688 553.55078125 c 0
 483.018554688 553.55078125 490.201171875 551.284179688 496.065429688 546.750976562 c 0
 501.880859375 543.350585938 506.236328125 537.68359375 509.1328125 529.750976562 c 0
 510.666015625 525.55078125 511.538085938 521.033203125 511.749023438 516.197265625 c 0
 511.9375 511.899414062 511.602539062 507.350585938 510.74609375 502.55078125 c 0
 508.97265625 491.217773438 503.763671875 480.734375 495.118164062 471.1015625 c 0
 476.274414062 448.434570312 455.668945312 420.66796875 433.3046875 387.80078125 c 1x20
 470.11328125 388.368164062 496.622070312 391.201171875 512.833007812 396.30078125 c 0
 520.125976562 398.000976562 524.905273438 398.850585938 527.171875 398.850585938 c 0x40
 537.372070312 398.850585938 545.466796875 395.16796875 551.455078125 387.80078125 c 0x20
 558.182617188 379.725585938 561.743164062 371.171875 562.137695312 362.140625 c 0
 562.26953125 359.129882812 562.048828125 356.06640625 561.4765625 352.950195312 c 0
 559.1875 340.483398438 554.040039062 328.583007812 546.03515625 317.25 c 0
 541.231445312 310.450195312 535.234375 305.067382812 528.040039062 301.099609375 c 0
 523.0390625 298.833007812 517.98828125 297.700195312 512.888671875 297.700195312 c 0x40
 510.055664062 297.700195312 507.2109375 297.983398438 504.352539062 298.549804688 c 0
 491.786132812 300.817382812 468.787109375 301.950195312 435.353515625 301.950195312 c 2
 417.50390625 301.950195312 l 1
 447.490234375 218.650390625 l 2
 449.3671875 211.724609375 450.440429688 205.149414062 450.711914062 198.923828125 c 0
 450.9296875 193.94140625 450.634765625 189.18359375 449.825195312 184.650390625 c 0
 449.356445312 182.3828125 448.60546875 180.116210938 447.571289062 177.849609375 c 0
 443.607421875 164.81640625 436.377929688 155.18359375 425.883789062 148.950195312 c 0
 417.0390625 143.849609375 407.233398438 141.299804688 396.466796875 141.299804688 c 0
 387.966796875 141.299804688 379.946289062 143.283203125 372.407226562 147.25 c 0
 362.55078125 152.349609375 357.080078125 160.849609375 355.993164062 172.75 c 0
 354.04296875 191.450195312 348.088867188 217.516601562 338.12890625 250.950195312 c 1
 311.059570312 209.016601562 293.583984375 180.966796875 285.703125 166.799804688 c 0
 281.565429688 157.733398438 275.629882812 150.93359375 267.89453125 146.400390625 c 0
 260.159179688 141.8671875 252.336914062 139.317382812 244.4296875 138.75 c 2x20
EndSplineSet
Validated: 524289
EndChar

StartChar: plus
Encoding: 43 43 18
Width: 550
VWidth: 909
GlyphClass: 2
Flags: HMW
HStem: 354.025 90.1<487.297 492.397 487.297 487.297>
LayerCount: 2
Fore
SplineSet
395.268554688 355.724609375 m 1
 380.208007812 272.424804688 l 2
 376.958007812 255.9921875 371.08984375 244.375 362.604492188 237.575195312 c 0
 354.118164062 230.775390625 344.233398438 226.807617188 332.94921875 225.674804688 c 2
 332.099609375 225.674804688 l 2
 319.6328125 225.674804688 310.133789062 229.075195312 303.604492188 235.875 c 0
 298.3359375 240.923828125 295.515625 247.692382812 295.14453125 256.18359375 c 0
 294.932617188 261.03515625 295.520507812 266.448242188 296.908203125 272.423828125 c 2
 312.083007812 353.173828125 l 1
 241.5703125 352.32421875 l 2
 225.703125 352.32421875 214.596679688 356.857421875 208.250976562 365.923828125 c 0
 203.952148438 372.06640625 201.634765625 378.98828125 201.297851562 386.69140625 c 0
 201.138671875 390.358398438 201.427734375 394.203125 202.166015625 398.224609375 c 0
 202.140625 398.791992188 202.375 399.924804688 202.868164062 401.625 c 0
 205.181640625 413.525390625 210.956054688 424.0078125 220.194335938 433.075195312 c 0
 229.430664062 442.141601562 241.416015625 446.674804688 256.149414062 446.674804688 c 0
 257.282226562 446.674804688 265.646484375 446.533203125 281.2421875 446.25 c 0
 296.836914062 445.966796875 312.86328125 445.541992188 329.322265625 444.974609375 c 1
 335.228515625 478.408203125 339.658203125 506.741210938 342.610351562 529.974609375 c 0
 345.318359375 545.840820312 352.461914062 557.458007812 364.0390625 564.825195312 c 0
 372.291992188 570.4921875 382.368164062 573.325195312 394.268554688 573.325195312 c 2
 397.66796875 573.325195312 l 2
 409.000976562 573.325195312 417.908203125 570.4921875 424.388671875 564.825195312 c 0
 429.370117188 560.405273438 432.036132812 554.189453125 432.385742188 546.178710938 c 0
 432.57421875 541.864257812 432.090820312 537.030273438 430.935546875 531.674804688 c 0
 431.009765625 529.974609375 430.80078125 528.275390625 430.30859375 526.575195312 c 0
 423.071289062 497.674804688 417.1875 470.192382812 412.659179688 444.125 c 1
 490.008789062 444.125 l 2
 505.30859375 444.125 515.3984375 440.158203125 520.278320312 432.224609375 c 0
 523.53125 426.936523438 525.311523438 420.766601562 525.619140625 413.71484375 c 0
 525.7734375 410.188476562 525.55859375 406.442382812 524.9765625 402.474609375 c 2
 525.013671875 401.625 l 2
 524.153320312 395.391601562 522.694335938 389.8671875 520.637695312 385.049804688 c 0
 518.580078125 380.233398438 515.6796875 375.275390625 511.935546875 370.174804688 c 0
 507.674804688 363.942382812 501.627929688 359.692382812 493.79296875 357.424804688 c 0
 488.767578125 355.724609375 483.150390625 354.591796875 476.94140625 354.025390625 c 2
 471.841796875 354.025390625 l 2
 463.883789062 354.591796875 452.532226562 355.016601562 437.787109375 355.299804688 c 0
 423.041015625 355.583007812 408.868164062 355.724609375 395.268554688 355.724609375 c 1
EndSplineSet
Validated: 524289
EndChar

StartChar: comma
Encoding: 44 44 19
Width: 550
VWidth: 845
GlyphClass: 2
Flags: HMW
VStem: 146.203 237.998
LayerCount: 2
Fore
SplineSet
215.037109375 -194.424804688 m 0
 205.551757812 -197.825195312 197.6953125 -199.524414062 191.461914062 -199.524414062 c 0
 185.228515625 -199.524414062 180.091796875 -198.673828125 176.05078125 -196.973632812 c 0
 169.71875 -194.70703125 164.28515625 -190.315429688 159.75 -183.797851562 c 0
 155.215820312 -177.28125 153.021484375 -169.206054688 153.16796875 -159.573242188 c 0
 153.09375 -157.873046875 153.302734375 -156.172851562 153.794921875 -154.47265625 c 0
 155.124023438 -145.97265625 159.569335938 -137.47265625 167.131835938 -128.97265625 c 0
 180.606445312 -113.106445312 202.243164062 -76.556640625 232.044921875 -19.3232421875 c 0
 261.870117188 37.34375 280.80859375 77.2939453125 288.862304688 100.52734375 c 0
 292.950195312 110.7265625 299.397460938 118.801757812 308.203125 124.751953125 c 0
 317.010742188 130.702148438 325.6640625 133.676757812 334.1640625 133.676757812 c 0
 334.73046875 133.676757812 335.569335938 133.959960938 336.676757812 134.52734375 c 0
 342.91015625 134.52734375 349.1796875 133.676757812 355.487304688 131.9765625 c 0
 365.268554688 128.577148438 372.63671875 122.059570312 377.590820312 112.426757812 c 0
 379.837890625 107.666992188 381.088867188 102.397460938 381.340820312 96.6171875 c 0
 381.509765625 92.763671875 381.234375 88.68359375 380.515625 84.376953125 c 0
 380.12109375 80.41015625 379.124023438 77.29296875 377.5234375 75.0263671875 c 0
 366.8359375 47.2587890625 347.478515625 3.9091796875 319.451171875 -55.0244140625 c 0
 290.857421875 -113.95703125 270.211914062 -150.506835938 257.512695312 -164.673828125 c 0
 244.815429688 -178.840820312 230.655273438 -188.7578125 215.037109375 -194.424804688 c 0
EndSplineSet
Validated: 524289
EndChar

StartChar: hyphen
Encoding: 45 45 20
Width: 550
VWidth: 893
GlyphClass: 2
Flags: HMW
HStem: 238.626 95.1991<246.044 287.694> 242.451 92.65
VStem: 219.127 266.051<285.375 294.726>
LayerCount: 2
Fore
SplineSet
258.103515625 333.825195312 m 0xa0
 288.13671875 333.825195312 323.9609375 334.250976562 365.57421875 335.100585938 c 0
 407.1875 335.951171875 430.826171875 336.375976562 436.493164062 336.375976562 c 0
 451.793945312 336.375976562 462.024414062 332.409179688 467.188476562 324.475585938 c 0
 470.69921875 319.08203125 472.612304688 312.76953125 472.928710938 305.541015625 c 0
 473.077148438 302.139648438 472.87109375 298.534179688 472.311523438 294.725585938 c 1
 471.499023438 293.875976562 l 1
 469.259765625 280.276367188 464.6171875 269.79296875 457.572265625 262.42578125 c 0
 447.842773438 251.659179688 435.327148438 246.276367188 420.02734375 246.276367188 c 0
 413.227539062 246.276367188 386.5078125 245.000976562 339.869140625 242.451171875 c 0x60
 293.23046875 239.901367188 260.561523438 238.625976562 241.861328125 238.625976562 c 0
 229.39453125 238.625976562 220.178710938 242.026367188 214.21484375 248.826171875 c 0
 208.938476562 254.25390625 206.09375 261.670898438 205.682617188 271.078125 c 0
 205.493164062 275.419921875 205.822265625 280.185546875 206.668945312 285.375 c 0
 206.620117188 286.5078125 206.840820312 287.924804688 207.333984375 289.625 c 0
 210.041015625 305.4921875 216.888671875 317.392578125 227.875 325.325195312 c 0
 236.127929688 330.9921875 246.204101562 333.825195312 258.103515625 333.825195312 c 0xa0
EndSplineSet
Validated: 524289
EndChar

StartChar: period
Encoding: 46 46 21
Width: 550
VWidth: 859
GlyphClass: 2
Flags: HMW
HStem: -12.6499 151.302<259.098 323.981 268.448 323.981>
VStem: 217.448 149.175
LayerCount: 2
Fore
SplineSet
269.000976562 -12.6494140625 m 2
 250.30078125 -12.6494140625 235.836914062 -5.849609375 225.610351562 7.75 c 0
 217.833007812 18.5166015625 213.659179688 30.4580078125 213.086914062 43.5732421875 c 0
 212.815429688 49.78515625 213.352539062 56.26171875 214.697265625 63.0009765625 c 0
 218.881835938 83.9677734375 230.014648438 101.53515625 248.095703125 115.702148438 c 0
 267.828125 131.001953125 287.751953125 138.651367188 307.869140625 138.651367188 c 0
 327.986328125 138.651367188 343.158203125 131.8515625 353.384765625 118.251953125 c 0
 360.733398438 108.62890625 364.686523438 97.4375 365.243164062 84.677734375 c 0
 365.506835938 78.6513671875 365.012695312 72.2763671875 363.760742188 65.55078125 c 0
 359.859375 44.583984375 350.000976562 27.017578125 334.186523438 12.8505859375 c 0
 318.372070312 -1.31640625 299.4765625 -9.81640625 277.500976562 -12.6494140625 c 2
 269.000976562 -12.6494140625 l 2
EndSplineSet
Validated: 524289
EndChar

StartChar: slash
Encoding: 47 47 22
Width: 550
VWidth: 901
GlyphClass: 2
Flags: HMW
HStem: 686.035 17G<601.813 610.313>
LayerCount: 2
Fore
SplineSet
141.331054688 -5.0146484375 m 0
 132.979492188 -8.4150390625 125.12890625 -10.2578125 117.774414062 -10.541015625 c 0
 110.419921875 -10.8232421875 104.09375 -8.6982421875 98.7958984375 -4.166015625 c 0
 91.3046875 1.2744140625 87.2666015625 10.703125 86.681640625 24.12109375 c 0
 86.53515625 27.4765625 86.603515625 31.0810546875 86.888671875 34.9345703125 c 0
 86.7646484375 37.767578125 87.1962890625 40.884765625 88.1806640625 44.2841796875 c 0
 90.9375 59.017578125 97.119140625 73.1845703125 106.725585938 86.7841796875 c 0
 209.020507812 222.784179688 297.533203125 343.484375 372.264648438 448.884765625 c 0
 418.744140625 513.484375 468.794921875 587.151367188 522.415039062 669.884765625 c 0
 529.3125 680.651367188 537.737304688 688.868164062 547.689453125 694.53515625 c 0
 557.641601562 700.202148438 566.868164062 703.03515625 575.368164062 703.03515625 c 0
 583.868164062 703.03515625 591.887695312 701.051757812 599.427734375 697.084960938 c 0
 610.491210938 690.28515625 616.603515625 680.084960938 617.764648438 666.485351562 c 0
 617.938476562 662.518554688 617.556640625 658.268554688 616.62109375 653.735351562 c 0
 614.775390625 644.102539062 610.416015625 633.619140625 603.54296875 622.286132812 c 0
 584.430664062 592.819335938 532.575195312 521.561523438 447.977539062 408.510742188 c 0
 363.379882812 295.4609375 311.474609375 225.3359375 292.262695312 198.135742188 c 0
 280.5625 180.569335938 261.319335938 150.819335938 234.533203125 108.885742188 c 0
 207.748046875 66.953125 191.153320312 41.453125 184.748046875 32.3857421875 c 0
 171.915039062 14.8193359375 157.443359375 2.3525390625 141.331054688 -5.0146484375 c 0
EndSplineSet
Validated: 524289
EndChar

StartChar: zero
Encoding: 48 48 23
Width: 550
VWidth: 902
GlyphClass: 2
Flags: HMW
HStem: 31.65 91.7966<261.041 304.108> 572.247 90.1025<407.525 469.292>
LayerCount: 2
Fore
SplineSet
576.017578125 469.400390625 m 0
 575.549804688 467.1328125 575.561523438 466.849609375 576.053710938 468.548828125 c 1
 572.413085938 435.116210938 567.381835938 401.116210938 560.95703125 366.548828125 c 0
 554.533203125 331.982421875 547.092773438 297.982421875 538.634765625 264.548828125 c 0
 530.178710938 231.116210938 521.836914062 204.765625 513.611328125 185.499023438 c 0
 497.627929688 149.232421875 480.213867188 119.765625 461.37109375 97.0986328125 c 0
 452.233398438 85.765625 442.169921875 76.1318359375 431.18359375 68.19921875 c 0
 420.197265625 60.2666015625 409.418945312 54.033203125 398.849609375 49.5 c 0
 387.71484375 44.966796875 375.137695312 41 361.119140625 37.599609375 c 0
 347.076171875 34.7666015625 333.409179688 33.0673828125 320.116210938 32.5 c 0
 306.823242188 31.9326171875 291.39453125 31.650390625 273.827148438 31.650390625 c 0
 245.494140625 31.650390625 220.067382812 36.466796875 197.546875 46.099609375 c 0
 176.725585938 55.7333984375 159.9765625 69.474609375 147.296875 87.3251953125 c 0
 134.6171875 105.174804688 126.458007812 126.567382812 122.8203125 151.5 c 0
 121.828125 158.299804688 121.176757812 165.247070312 120.8671875 172.342773438 c 0
 120.7265625 175.563476562 120.65625 178.814453125 120.65625 182.095703125 c 0
 120.65625 198.091796875 122.327148438 214.809570312 125.668945312 232.25 c 0
 125.594726562 233.950195312 125.803710938 235.650390625 126.295898438 237.349609375 c 0
 131.341796875 264.549804688 136.154296875 290.6171875 140.732421875 315.549804688 c 0
 143.932617188 333.1171875 148.233398438 354.650390625 153.637695312 380.150390625 c 0
 159.041015625 405.650390625 164.2109375 426.7578125 169.1484375 443.474609375 c 0
 174.084960938 460.192382812 180.3828125 478.18359375 188.041992188 497.451171875 c 0
 195.67578125 517.284179688 203.420898438 534.567382812 211.27734375 549.299804688 c 0
 231.770507812 586.1328125 260.012695312 614.182617188 296.00390625 633.450195312 c 0
 334.830078125 652.716796875 378.891601562 662.349609375 428.192382812 662.349609375 c 0
 452.55859375 662.349609375 474.83203125 658.3828125 495.01171875 650.450195312 c 0
 514.625 642.516601562 531.01171875 630.6171875 544.170898438 614.75 c 0
 557.331054688 598.8828125 566.71484375 578.625 572.32421875 553.974609375 c 0
 575.12890625 541.650390625 576.838867188 528.439453125 577.454101562 514.34375 c 0
 577.626953125 510.37890625 577.713867188 506.344726562 577.713867188 502.239257812 c 0
 577.713867188 491.750976562 577.1484375 480.803710938 576.017578125 469.400390625 c 0
440.220703125 562.048828125 m 0
 428.874023438 568.889648438 415.720703125 572.30859375 400.762695312 572.30859375 c 0
 399.611328125 572.30859375 398.44921875 572.288085938 397.276367188 572.247070312 c 0
 367.809570312 572.247070312 343.641601562 564.455078125 324.772460938 548.872070312 c 0
 305.901367188 533.2890625 288.500976562 506.797851562 272.56640625 469.397460938 c 0
 266.41015625 454.6640625 260.857421875 439.081054688 255.908203125 422.6484375 c 0
 251.525390625 406.21484375 247.549804688 386.948242188 243.981445312 364.848632812 c 0
 237.532226562 330.848632812 230.751953125 291.46484375 223.639648438 246.698242188 c 1
 310.200195312 340.765625 390.981445312 437.381835938 465.985351562 536.548828125 c 1
 459.28125 547.31640625 450.693359375 555.81640625 440.220703125 562.048828125 c 0
479.491210938 441.34765625 m 1
 401.484375 333.114257812 317.965820312 240.747070312 228.940429688 164.247070312 c 1
 238.03515625 137.61328125 258.74609375 124.013671875 291.071289062 123.446289062 c 0
 306.37109375 123.446289062 319.7734375 124.721679688 331.279296875 127.271484375 c 0
 342.78515625 129.821289062 354.080078125 133.9296875 365.166015625 139.596679688 c 0
 387.313476562 151.497070312 406.711914062 174.446289062 423.360351562 208.446289062 c 0
 426.463867188 215.247070312 432.188476562 233.379882812 440.534179688 262.846679688 c 0
 448.881835938 292.313476562 457.2890625 326.880859375 465.756835938 366.547851562 c 0
 471.418945312 392.614257812 475.997070312 417.547851562 479.491210938 441.34765625 c 1
EndSplineSet
Validated: 524289
EndChar

StartChar: one
Encoding: 49 49 24
Width: 550
VWidth: 904
GlyphClass: 2
Flags: HMW
HStem: 46.425 94.35 49.825 96.9<113.863 156.363>
LayerCount: 2
Fore
SplineSet
83.646484375 82.125 m 0x40
 83.4609375 86.375 84.125 90.625 84.7529296875 95.724609375 c 0
 84.7158203125 96.5751953125 84.6416015625 98.275390625 85.4541015625 99.125 c 0
 87.447265625 111.875 92.9521484375 122.075195312 100.194335938 131.424804688 c 0
 109.948242188 141.625 122.475585938 146.724609375 138.625976562 146.724609375 c 0x40
 161.576171875 146.724609375 200.712890625 145.875 256 145.025390625 c 1
 259.544921875 161.174804688 261.463867188 175.625 262.64453125 187.525390625 c 0
 263.272460938 192.625 265.19140625 207.075195312 270.102539062 230.875 c 0
 274.274414062 252.125 277.745117188 269.974609375 281.364257812 284.424804688 c 2
 301.155273438 376.224609375 l 2
 320.357421875 462.075195312 331.767578125 512.224609375 335.38671875 526.674804688 c 1
 296.55078125 501.174804688 268.35546875 485.025390625 249.102539062 478.224609375 c 0
 242.376953125 476.525390625 238.1640625 475.674804688 235.61328125 475.674804688 c 0
 226.263671875 475.674804688 216.728515625 479.924804688 208.70703125 488.424804688 c 0
 200.685546875 496.924804688 196.02734375 506.275390625 195.65625 514.775390625 c 0
 195.544921875 517.325195312 196.284179688 519.875 196.985351562 523.275390625 c 0
 199.052734375 534.325195312 202.857421875 544.525390625 209.287109375 553.025390625 c 0
 215.715820312 561.525390625 224.694335938 570.025390625 236.260742188 577.674804688 c 0
 253.590820312 589.575195312 275.8359375 605.724609375 304.732421875 625.275390625 c 1
 314.858398438 626.974609375 326.423828125 634.625 338.580078125 648.224609375 c 0
 348.483398438 655.025390625 359.2734375 660.974609375 370.064453125 666.924804688 c 0
 380.041015625 672.025390625 388.4296875 674.575195312 396.080078125 674.575195312 c 2
 398.629882812 674.575195312 l 2
 413.080078125 674.575195312 426.939453125 668.625 440.171875 657.575195312 c 0
 447.232421875 651.625 451.7421875 645.674804688 454.514648438 640.575195312 c 0
 455.912109375 638.00390625 456.495117188 636.62890625 456.495117188 633.672851562 c 0
 456.495117188 623.6015625 450.35546875 597.096679688 426.1953125 490.974609375 c 0
 409.135742188 414.474609375 399.202148438 369.424804688 396.359375 356.674804688 c 0
 385.911132812 303.974609375 378.490234375 259.775390625 372.399414062 224.075195312 c 2
 372.399414062 224.075195312 371.623046875 222.375 371.734375 219.825195312 c 0
 368.30078125 201.125 364.3515625 174.775390625 358.999023438 141.625 c 1
 387.0859375 140.775390625 404.935546875 140.775390625 412.5859375 140.775390625 c 2
 442.3359375 140.775390625 l 2
 455.0859375 140.775390625 462.772460938 139.924804688 466.172851562 139.924804688 c 0
 484.022460938 139.924804688 495.221679688 136.525390625 501.541992188 128.025390625 c 0
 506.051757812 122.075195312 508.0859375 114.424804688 508.419921875 106.775390625 c 0
 508.568359375 103.375 508.716796875 99.974609375 508.015625 96.5751953125 c 0
 508.052734375 95.724609375 508.08984375 94.875 507.276367188 94.025390625 c 0
 505.283203125 81.275390625 498.965820312 70.224609375 490.024414062 60.875 c 0
 480.232421875 51.525390625 466.004882812 46.4248046875 448.155273438 46.4248046875 c 0x80
 248.331054688 48.125 138.643554688 48.974609375 119.056640625 49.8251953125 c 0
 104.606445312 49.8251953125 94.220703125 54.0751953125 88.712890625 63.4248046875 c 0
 85.9033203125 69.375 83.943359375 75.3251953125 83.646484375 82.125 c 0x40
EndSplineSet
Validated: 524289
EndChar

StartChar: two
Encoding: 50 50 25
Width: 550
VWidth: 902
GlyphClass: 2
Flags: HMW
HStem: 35.6443 96.0542 42.4443 96.0551<456.943 456.943 456.943 462.038> 483.597 17.85G<245.854 248.687> 573.696 92.6509<421.806 429.738>
LayerCount: 2
Fore
SplineSet
450.89453125 138.499023438 m 1x70
 451.73828125 138.493164062 l 1
 458.784179688 145.860351562 464.154296875 146.143554688 467.8515625 139.34375 c 0
 469.55078125 139.34375 472.673828125 139.201171875 477.219726562 138.918945312 c 0
 481.765625 138.635742188 485.202148438 137.78515625 487.53125 136.368164062 c 0
 489.859375 134.951171875 492.194335938 133.393554688 494.536132812 131.693359375 c 0
 498.034179688 129.426757812 500.451171875 126.026367188 501.78125 121.493164062 c 0
 503.2109375 114.693359375 503.274414062 106.760742188 501.970703125 97.693359375 c 0
 498.720703125 81.2607421875 492.244140625 67.376953125 482.5390625 56.0439453125 c 0
 474.435546875 46.9775390625 465.282226562 42.4443359375 455.08203125 42.4443359375 c 0x70
 418.249023438 42.4443359375 357.973632812 40.744140625 274.254882812 37.3447265625 c 0
 245.971679688 36.2109375 217.096679688 35.64453125 187.62890625 35.64453125 c 0
 160.4296875 35.64453125 139.130859375 36.77734375 123.73046875 39.0439453125 c 0
 115.181640625 40.177734375 108.50390625 43.8603515625 103.698242188 50.09375 c 0
 100.1015625 54.626953125 97.57421875 60.576171875 96.119140625 67.943359375 c 0
 95.5986328125 71.2177734375 95.2548828125 74.771484375 95.087890625 78.60546875 c 0
 95.0087890625 80.421875 94.9697265625 82.3017578125 94.9697265625 84.2431640625 c 0
 94.9697265625 96.6474609375 96.5869140625 111.614257812 99.822265625 129.143554688 c 0
 104.634765625 155.2109375 114.681640625 181.418945312 129.96484375 207.768554688 c 0
 145.247070312 234.118164062 165.09375 259.760742188 189.505859375 284.693359375 c 0
 213.916992188 309.626953125 241.65625 329.743164062 272.720703125 345.043945312 c 0
 340.418945312 377.91015625 384.196289062 400.577148438 404.051757812 413.043945312 c 0
 428.859375 428.911132812 445.697265625 445.627929688 454.5625 463.1953125 c 0
 459.759765625 473.961914062 463.7109375 487.279296875 466.41796875 503.146484375 c 0
 467.89453125 511.188476562 468.490234375 518.495117188 468.203125 525.063476562 c 0
 467.600585938 538.858398438 463.110351562 549.40234375 454.73046875 556.696289062 c 0
 441.768554688 568.029296875 419.98828125 573.696289062 389.387695312 573.696289062 c 0
 368.98828125 573.696289062 348.151367188 567.462890625 326.879882812 554.99609375 c 0
 305.606445312 542.529296875 288.220703125 528.646484375 274.721679688 513.345703125 c 0
 267.702148438 505.413085938 261.049804688 498.754882812 254.768554688 493.372070312 c 0
 248.486328125 487.989257812 241.958984375 485.013671875 235.182617188 484.447265625 c 0
 233.483398438 484.447265625 230.9453125 484.1640625 227.5703125 483.596679688 c 0
 221.903320312 483.596679688 214.12890625 486.4296875 204.249023438 492.096679688 c 0
 193.751953125 498.896484375 187.948242188 508.530273438 186.836914062 520.997070312 c 0
 186.712890625 523.830078125 186.860351562 526.947265625 187.279296875 530.346679688 c 0
 189.100585938 540.546875 194.259765625 552.1640625 202.758789062 565.197265625 c 0
 210.739257812 577.096679688 221.275390625 588.854492188 234.368164062 600.471679688 c 0
 247.4609375 612.088867188 262.28515625 622.997070312 278.83984375 633.197265625 c 0
 295.9609375 643.396484375 315.724609375 651.471679688 338.131835938 657.421875 c 0
 360.5390625 663.372070312 382.2265625 666.346679688 403.193359375 666.346679688 c 0
 468.360351562 666.346679688 514.32421875 651.896484375 541.086914062 622.997070312 c 0
 558.036132812 604.296875 567.182617188 579.546875 568.52734375 548.74609375 c 0
 568.643554688 546.090820312 568.701171875 543.391601562 568.701171875 540.646484375 c 0
 568.701171875 526.022460938 567.056640625 510.123046875 563.764648438 492.947265625 c 0
 554.485351562 445.9140625 535.483398438 407.380859375 506.76171875 377.34765625 c 0
 485.578125 356.380859375 449.747070312 333.430664062 399.267578125 308.498046875 c 0
 386.506835938 302.264648438 364.569335938 292.064453125 333.456054688 277.897460938 c 0
 307.341796875 265.998046875 284.74609375 251.405273438 265.66796875 234.123046875 c 0
 246.588867188 216.83984375 231.779296875 199.131835938 221.237304688 180.998046875 c 0
 212.272460938 165.698242188 205.340820312 149.265625 200.440429688 131.698242188 c 1xb0
 231.08984375 130.565429688 260.303710938 129.857421875 288.083007812 129.57421875 c 0
 293.634765625 129.517578125 298.94921875 129.489257812 304.024414062 129.489257812 c 0
 324.337890625 129.489257812 340.821289062 129.942382812 353.478515625 130.849609375 c 0
 368.728515625 131.982421875 401.200195312 134.532226562 450.89453125 138.499023438 c 1x70
EndSplineSet
Validated: 524289
EndChar

StartChar: three
Encoding: 51 51 26
Width: 550
VWidth: 902
GlyphClass: 2
Flags: HMW
HStem: 31.9507 91.7983<267.654 318.94> 312.449 106.25<308.173 312.989> 495.2 17.85G<253.207 258.874> 573.399 92.6509<392.325 450.124>
VStem: 480.724 97.75<496.051 509.932>
LayerCount: 2
Fore
SplineSet
526.715820312 289.923828125 m 0
 527.29296875 285.67578125 527.681640625 281.26953125 527.880859375 276.705078125 c 0
 527.986328125 274.299804688 528.0390625 271.849609375 528.0390625 269.356445312 c 0
 528.0390625 256.069335938 526.546875 241.534179688 523.564453125 225.75 c 0
 512.5625 166.25 486.01171875 118.932617188 443.912109375 83.7998046875 c 0
 401.923828125 49.224609375 347.381835938 31.9375 280.284179688 31.9375 c 0
 279.201171875 31.9375 278.115234375 31.94140625 277.026367188 31.951171875 c 0
 255.494140625 31.951171875 234.673828125 35.0673828125 214.568359375 41.30078125 c 0
 194.463867188 47.5341796875 178.109375 55.466796875 165.504882812 65.099609375 c 0
 152.90234375 74.7333984375 142.373046875 85.5 133.920898438 97.3994140625 c 0
 124.901367188 109.299804688 118.721679688 121.057617188 115.380859375 132.674804688 c 0
 113.525390625 139.127929688 112.466796875 145.362304688 112.204101562 151.37890625 c 0
 111.994140625 156.192382812 112.293945312 160.866210938 113.102539062 165.399414062 c 0
 113.521484375 168.799804688 114.505859375 172.200195312 116.057617188 175.599609375 c 0
 121.130859375 189.200195312 130.047851562 199.1171875 142.80859375 205.349609375 c 0
 152.243164062 209.8828125 160.64453125 212.149414062 168.01171875 212.149414062 c 0
 183.87890625 212.149414062 196.45703125 203.083007812 205.749023438 184.950195312 c 0
 214.375976562 169.083007812 226.751953125 154.916015625 242.87890625 142.44921875 c 0
 259.006835938 129.982421875 277.270507812 123.749023438 297.670898438 123.749023438 c 0
 329.403320312 123.749023438 356.947265625 132.107421875 380.299804688 148.82421875 c 0
 403.653320312 165.541015625 417.889648438 186.649414062 423.009765625 212.149414062 c 0
 424.904296875 221.735351562 425.678710938 230.502929688 425.33203125 238.450195312 c 0
 425.083984375 244.125976562 424.264648438 249.383789062 422.873046875 254.223632812 c 0
 419.533203125 265.840820312 412.99609375 276.041015625 403.262695312 284.82421875 c 0
 393.528320312 293.607421875 378.78125 300.407226562 359.021484375 305.223632812 c 0
 339.260742188 310.041015625 314.364257812 312.44921875 284.331054688 312.44921875 c 0
 269.598632812 312.44921875 258.017578125 318.116210938 249.58984375 329.44921875 c 0
 243.690429688 337.381835938 240.536132812 346.009765625 240.129882812 355.33203125 c 0
 239.955078125 359.326171875 240.28515625 363.44921875 241.120117188 367.69921875 c 0
 243.901367188 381.866210938 249.8984375 393.765625 259.110351562 403.399414062 c 0
 269.431640625 413.598632812 282.2421875 418.69921875 297.54296875 418.69921875 c 0
 344.009765625 418.69921875 381.618164062 426.916015625 410.3671875 443.348632812 c 0
 436.899414062 458.649414062 452.934570312 480.749023438 458.47265625 509.649414062 c 0
 458.450195312 510.166992188 458.653320312 510.919921875 459.083007812 511.91015625 c 0
 459.110351562 512.25390625 459.140625 512.6328125 459.173828125 513.047851562 c 0
 459.125 514.181640625 459.37109375 515.03125 459.913085938 515.598632812 c 0
 460.866210938 520.5703125 461.249023438 525.202148438 461.061523438 529.495117188 c 0
 460.522460938 541.836914062 455.271484375 551.372070312 445.307617188 558.098632812 c 0
 430.865234375 568.327148438 408.20703125 573.44140625 377.334960938 573.44140625 c 0
 375.709960938 573.44140625 374.061523438 573.427734375 372.390625 573.399414062 c 0
 362.190429688 573.399414062 351.21484375 571.69921875 339.462890625 568.298828125 c 0
 336.112304688 567.166015625 331.955078125 565.041015625 326.991210938 561.923828125 c 0
 322.02734375 558.806640625 318.170898438 556.256835938 315.424804688 554.274414062 c 0
 312.678710938 552.291015625 308.853515625 549.033203125 303.952148438 544.5 c 0
 299.049804688 539.966796875 295.798828125 536.56640625 294.197265625 534.299804688 c 0
 289.025390625 522.966796875 285.231445312 519 282.81640625 522.399414062 c 1
 269.833984375 508.233398438 257.467773438 499.450195312 245.716796875 496.049804688 c 0
 242.341796875 495.483398438 238.953125 495.200195312 235.552734375 495.200195312 c 0
 227.619140625 495.200195312 219.588867188 497.466796875 211.45703125 502 c 0
 202.032226562 507.609375 197.067382812 516.203125 196.5625 527.78125 c 0
 196.555664062 527.922851562 196.244140625 536.110351562 196.962890625 541.950195312 c 0
 198.78515625 552.149414062 203.685546875 563.200195312 211.666015625 575.099609375 c 0
 227.626953125 598.899414062 248.541015625 619.583007812 274.407226562 637.149414062 c 0
 288.177734375 646.216796875 304.869140625 653.299804688 324.479492188 658.399414062 c 0
 344.08984375 663.5 364.661132812 666.049804688 386.194335938 666.049804688 c 0
 455.89453125 666.049804688 504.666992188 652.166992188 532.512695312 624.399414062 c 0
 550.725585938 605.467773438 560.504882812 580.608398438 561.848632812 549.822265625 c 0
 561.956054688 547.370117188 562.009765625 544.880859375 562.009765625 542.353515625 c 0
 562.009765625 530.073242188 560.74609375 516.905273438 558.219726562 502.848632812 c 0
 558.26953125 501.715820312 558.036132812 500.583007812 557.517578125 499.450195312 c 0
 557.000976562 498.31640625 556.767578125 497.182617188 556.81640625 496.049804688 c 0
 554.109375 480.182617188 549.227539062 465.451171875 542.170898438 451.850585938 c 0
 535.115234375 438.250976562 526.83984375 426.633789062 517.342773438 417.000976562 c 0
 507.846679688 407.3671875 497.16796875 398.8671875 485.305664062 391.500976562 c 0
 473.4453125 384.133789062 461.3671875 378.466796875 449.07421875 374.5 c 1
 457.129882812 371.666992188 464.336914062 368.833984375 470.694335938 366.000976562 c 0
 485.182617188 358.633789062 497.514648438 348.716796875 507.693359375 336.25 c 0
 517.870117188 323.783203125 524.2109375 308.340820312 526.715820312 289.923828125 c 0
EndSplineSet
Validated: 524289
EndChar

StartChar: four
Encoding: 52 52 27
Width: 550
VWidth: 902
GlyphClass: 2
Flags: HMW
HStem: 33.174 17.85G<393.515 405.982> 238.873 76.5017<360.931 361.782 361.782 397.482>
LayerCount: 2
Fore
SplineSet
347.16015625 315.375 m 2
 400.708984375 315.375 l 1
 419.095703125 413.408203125 432.348632812 492.741210938 440.46875 553.374023438 c 1
 346.864257812 451.94140625 280.098632812 371.7578125 240.171875 312.825195312 c 1
 269.564453125 314.524414062 305.2265625 315.375 347.16015625 315.375 c 2
443.956054688 84.173828125 m 0
 442.182617188 72.8408203125 438.366210938 62.923828125 432.504882812 54.423828125 c 0
 422.922851562 40.2568359375 411.33203125 33.173828125 397.732421875 33.173828125 c 0
 386.399414062 33.173828125 376.290039062 37.56640625 367.407226562 46.3486328125 c 0
 360.00390625 53.66796875 356.129882812 61.2822265625 355.784179688 69.1923828125 c 0
 355.715820312 70.7744140625 355.788085938 72.3681640625 356.000976562 73.9736328125 c 0
 356.836914062 80.7734375 358.633789062 91.5400390625 361.390625 106.2734375 c 2
 373.869140625 170.873046875 l 2
 378.522460938 194.106445312 382.916015625 216.7734375 387.05078125 238.873046875 c 1
 351.350585938 238.873046875 l 2
 273.150390625 238.873046875 217.211914062 235.190429688 183.533203125 227.823242188 c 0
 179.591796875 227.255859375 175.495117188 226.973632812 171.245117188 226.973632812 c 0
 166.995117188 226.973632812 163.1328125 227.823242188 159.659179688 229.5234375 c 0
 152.736328125 232.356445312 147.592773438 236.606445312 144.227539062 242.2734375 c 0
 140.86328125 247.940429688 138.73046875 254.598632812 137.829101562 262.248046875 c 0
 136.928710938 269.8984375 137.155273438 277.690429688 138.508789062 285.623046875 c 0
 140.379882812 294.690429688 143.409179688 303.190429688 147.595703125 311.123046875 c 0
 155.944335938 327.556640625 175.071289062 353.481445312 204.975585938 388.8984375 c 0
 234.877929688 424.315429688 273.61328125 468.373046875 321.178710938 521.073242188 c 0
 363.350585938 567.540039062 397.380859375 605.790039062 423.268554688 635.823242188 c 0
 432.999023438 646.58984375 443.123046875 654.806640625 453.642578125 660.473632812 c 0
 464.162109375 666.140625 473.671875 668.973632812 482.171875 668.973632812 c 0
 485.004882812 668.973632812 486.974609375 669.256835938 488.083984375 669.82421875 c 0
 497.716796875 669.82421875 506.032226562 667.556640625 513.030273438 663.024414062 c 0
 521.231445312 657.7109375 525.599609375 648.913085938 526.135742188 636.62890625 c 0
 526.157226562 636.120117188 526.180664062 635.2578125 526.180664062 633.985351562 c 0
 526.180664062 625.764648438 525.227539062 600.421875 517.006835938 542.75 c 0
 511.150390625 501.666992188 505.711914062 467.2421875 500.69140625 439.474609375 c 0
 493.454101562 397.541992188 486.490234375 355.891601562 479.795898438 314.524414062 c 1
 487.729492188 314.524414062 496.525390625 314.2421875 506.182617188 313.674804688 c 0
 519.782226562 313.674804688 528.708007812 310.416992188 532.958984375 303.899414062 c 0
 537.2109375 297.3828125 538.42578125 289.024414062 536.604492188 278.825195312 c 0
 534.291015625 266.924804688 530.178710938 257.291992188 524.266601562 249.924804688 c 0
 516.137695312 241.424804688 505.2734375 237.174804688 491.672851562 237.174804688 c 0
 482.606445312 237.174804688 474.094726562 237.458007812 466.135742188 238.024414062 c 1
 452.461914062 162.46875 445.625 118.122070312 445.625 104.98828125 c 0
 445.625 92.193359375 445.625 91.466796875 443.956054688 84.173828125 c 0
EndSplineSet
Validated: 524289
EndChar

StartChar: five
Encoding: 53 53 28
Width: 550
VWidth: 902
GlyphClass: 2
Flags: HMW
HStem: 36.7479 92.6509<275.562 299.363> 398.848 96.0491<395.413 460.012> 557.798 96.0491<573.345 607.058> 567.148 88.3991
LayerCount: 2
Fore
SplineSet
191.2734375 528.899414062 m 0xd0
 195.60546875 546.466796875 198.715820312 559.497070312 200.612304688 567.997070312 c 1
 198.689453125 573.096679688 197.59765625 578.622070312 197.337890625 584.572265625 c 0
 197.078125 590.522460938 197.649414062 596.897460938 199.052734375 603.697265625 c 0
 202.228515625 621.830078125 210.109375 635.997070312 222.697265625 646.197265625 c 0
 231.442382812 653.564453125 240.915039062 657.247070312 251.114257812 657.247070312 c 0
 270.947265625 657.247070312 319.706054688 656.680664062 397.387695312 655.546875 c 0xd0
 476.770507812 654.4140625 535.4453125 653.846679688 573.412109375 653.846679688 c 0
 583.612304688 653.846679688 590.893554688 649.314453125 595.255859375 640.247070312 c 0
 598.403320312 633.872070312 600.151367188 626.690429688 600.500976562 618.702148438 c 0
 600.771484375 612.48828125 600.196289062 605.787109375 598.774414062 598.59765625 c 0
 595.525390625 582.165039062 588.924804688 571.115234375 578.971679688 565.448242188 c 0
 576.212890625 563.748046875 573.448242188 562.189453125 570.676757812 560.7734375 c 0
 567.90625 559.356445312 564.259765625 558.505859375 559.739257812 558.22265625 c 0
 555.21875 557.939453125 551.966796875 557.797851562 549.984375 557.797851562 c 0xe0
 548.000976562 557.797851562 545.161132812 557.939453125 541.466796875 558.22265625 c 0
 537.770507812 558.505859375 535.35546875 558.6484375 534.22265625 558.6484375 c 0
 526.85546875 558.6484375 513.20703125 559.78125 493.275390625 562.047851562 c 0
 472.799804688 563.748046875 454.611328125 565.0234375 438.70703125 565.873046875 c 0
 422.803710938 566.72265625 401.251953125 567.1484375 374.051757812 567.1484375 c 0
 346.8515625 567.1484375 319.405273438 566.297851562 291.713867188 564.59765625 c 1
 281.668945312 522.09765625 275.69921875 496.59765625 273.803710938 488.09765625 c 0
 271.982421875 477.8984375 270.603515625 470.53125 269.668945312 465.998046875 c 0
 268.732421875 461.46484375 267.575195312 455.514648438 266.198242188 448.1484375 c 1
 282.703125 459.481445312 301.83203125 469.114257812 323.5859375 477.046875 c 0
 354.799804688 488.947265625 388.540039062 494.897460938 424.806640625 494.897460938 c 0
 452.006835938 494.897460938 475.450195312 490.080078125 495.137695312 480.447265625 c 0
 513.150390625 470.247070312 527.202148438 456.647460938 537.293945312 439.647460938 c 0
 547.385742188 422.647460938 553.770507812 402.955078125 556.448242188 380.572265625 c 0
 557.021484375 375.776367188 557.416992188 370.895507812 557.633789062 365.9296875 c 0
 557.765625 362.913085938 557.831054688 359.864257812 557.831054688 356.78515625 c 0
 557.831054688 341.280273438 556.161132812 324.985351562 552.821289062 307.897460938 c 0
 545.018554688 265.963867188 532.799804688 227.856445312 516.1640625 193.573242188 c 0
 499.52734375 159.290039062 479.809570312 130.672851562 457.01171875 107.72265625 c 0
 434.213867188 84.7734375 407.787109375 67.064453125 377.731445312 54.59765625 c 0
 347.083984375 42.6982421875 314.760742188 36.748046875 280.760742188 36.748046875 c 0
 254.693359375 36.748046875 231.052734375 39.5810546875 209.838867188 45.248046875 c 0
 188.625 50.9150390625 171.869140625 58.2822265625 159.57421875 67.3486328125 c 0
 147.278320312 76.416015625 137.495117188 86.3330078125 130.224609375 97.099609375 c 0
 122.954101562 107.866210938 117.360351562 119.19921875 113.440429688 131.099609375 c 0
 112.022460938 137.616210938 111.186523438 143.778320312 110.932617188 149.586914062 c 0
 110.678710938 155.395507812 111.008789062 160.849609375 111.918945312 165.94921875 c 0
 112.337890625 169.349609375 113.0390625 172.75 114.0234375 176.149414062 c 0
 119.145507812 188.616210938 128.358398438 198.25 141.661132812 205.049804688 c 0
 148.905273438 207.8828125 154.625976562 209.866210938 158.826171875 210.999023438 c 0
 163.02734375 212.131835938 166.40234375 212.69921875 168.952148438 212.69921875 c 0
 171.501953125 212.69921875 173.922851562 212.416015625 176.21484375 211.848632812 c 0
 183.040039062 211.282226562 188.55859375 208.165039062 192.7734375 202.498046875 c 0
 196.37109375 197.96484375 200.326171875 191.731445312 204.639648438 183.798828125 c 0
 221.522460938 147.532226562 249.939453125 129.3984375 289.889648438 129.3984375 c 0
 329.83984375 129.3984375 364.188476562 144.131835938 392.935546875 173.598632812 c 0
 422.765625 204.19921875 442.776367188 245.565429688 452.966796875 297.69921875 c 0
 455.006835938 308.520507812 456.026367188 318.55078125 456.026367188 327.791015625 c 0
 456.026367188 329.55859375 455.989257812 331.296875 455.915039062 333.006835938 c 0
 455.235351562 348.567382812 451.463867188 361.731445312 444.6015625 372.498046875 c 0
 433.634765625 390.064453125 413.701171875 398.84765625 384.80078125 398.84765625 c 0
 371.201171875 398.84765625 356.541992188 397.1484375 340.823242188 393.748046875 c 0
 332.96484375 392.047851562 321.8046875 388.081054688 307.34375 381.84765625 c 0
 303.994140625 380.71484375 299.436523438 378.0234375 293.671875 373.7734375 c 0
 287.907226562 369.5234375 283.928710938 366.547851562 281.736328125 364.84765625 c 0
 271.31640625 356.915039062 262.830078125 350.115234375 256.27734375 344.448242188 c 0
 242.014648438 333.680664062 226.986328125 327.448242188 211.193359375 325.748046875 c 2
 205.243164062 325.748046875 l 2
 197.875976562 325.748046875 190.71875 327.448242188 183.770507812 330.84765625 c 0
 173.34765625 335.948242188 167.2109375 346.71484375 165.360351562 363.1484375 c 0
 164.922851562 366.689453125 164.6171875 370.443359375 164.444335938 374.41015625 c 0
 164.331054688 377.005859375 164.274414062 379.693359375 164.274414062 382.471679688 c 0
 164.274414062 392.427734375 165.001953125 403.553710938 166.459960938 415.848632812 c 0
 167.764648438 424.916015625 169.350585938 433.982421875 171.22265625 443.049804688 c 0
 174.888671875 462.8828125 181.573242188 491.5 191.2734375 528.899414062 c 0xd0
EndSplineSet
Validated: 524289
EndChar

StartChar: six
Encoding: 54 54 29
Width: 550
VWidth: 903
GlyphClass: 2
Flags: HMW
HStem: 34.9221 91.8<274.718 315.235> 376.622 96.9009<371.334 443.868>
LayerCount: 2
Fore
SplineSet
409.30859375 473.522460938 m 0
 502.041015625 473.522460938 547.596679688 431.432617188 551.328125 345.98046875 c 0
 551.5234375 341.487304688 551.62109375 336.985351562 551.62109375 332.478515625 c 0
 551.62109375 186.270507812 449.157226562 34.921875 291.608398438 34.921875 c 0
 221.942382812 34.921875 132.11328125 56.90234375 125.825195312 200.924804688 c 0
 125.807617188 201.309570312 125.748046875 203.53515625 125.748046875 207.370117188 c 0
 125.748046875 257.596679688 136.10546875 583.759765625 390.463867188 661.796875 c 0
 420.939453125 671.147460938 453.963867188 677.239257812 489.541015625 680.072265625 c 1
 498.041015625 680.072265625 l 2
 507.583007812 680.072265625 543.861328125 677.973632812 543.861328125 646.061523438 c 0
 543.861328125 622.958007812 515.989257812 601.462890625 494.06640625 595.922851562 c 0
 493.083984375 595.674804688 430.12890625 583.434570312 395.692382812 571.272460938 c 0
 355.1171875 556.280273438 299.327148438 519.729492188 253.916015625 431.022460938 c 1
 284.100585938 451.3828125 339.560546875 473.522460938 409.30859375 473.522460938 c 0
308 126.721679688 m 2
 310.55078125 126.721679688 l 2
 367.3046875 126.721679688 451.296875 195.875 451.296875 303.337890625 c 0
 451.296875 306.342773438 451.231445312 309.376953125 451.09765625 312.44140625 c 0
 448.655273438 368.39453125 411.795898438 376.622070312 368.489257812 376.622070312 c 0
 350.536132812 376.622070312 283.256835938 372.109375 224.408203125 308.622070312 c 1
 220.318359375 287.448242188 214.9921875 259.877929688 214.9921875 238.681640625 c 0
 214.9921875 237.225585938 215.764648438 126.721679688 308 126.721679688 c 2
EndSplineSet
Validated: 524289
EndChar

StartChar: seven
Encoding: 55 55 30
Width: 550
VWidth: 901
GlyphClass: 2
Flags: HMW
HStem: 32.2761 17.85G<164.909 171.142> 562.675 96.0517<391.291 438.608 391.291 516.525>
LayerCount: 2
Fore
SplineSet
344.057617188 562.674804688 m 0
 291.974609375 561.541992188 258.0859375 558.995117188 242.392578125 555.028320312 c 0
 239.017578125 554.461914062 235.353515625 554.036132812 231.397460938 553.75390625 c 0
 227.443359375 553.470703125 223.4453125 554.178710938 219.404296875 555.87890625 c 0
 213.047851562 558.711914062 208.612304688 562.961914062 206.09765625 568.62890625 c 0
 202.477539062 576.046875 200.471679688 584.21484375 200.083007812 593.131835938 c 0
 199.936523438 596.475585938 200.017578125 599.923828125 200.326171875 603.478515625 c 1
 199.44140625 597.811523438 199.428710938 598.094726562 200.2890625 604.328125 c 0
 202.602539062 616.227539062 207.552734375 626.14453125 215.139648438 634.078125 c 0
 223.29296875 642.010742188 235.241210938 647.393554688 250.984375 650.2265625 c 0
 280.770507812 655.893554688 329.096679688 658.7265625 395.962890625 658.7265625 c 0
 423.73046875 658.7265625 461.1796875 657.59375 508.311523438 655.327148438 c 0
 553.153320312 653.626953125 576.422851562 652.77734375 578.123046875 652.77734375 c 0
 584.922851562 652.77734375 591.508789062 651.21875 597.876953125 648.1015625 c 0
 604.24609375 644.985351562 609.5625 640.02734375 613.826171875 633.2265625 c 0
 616.814453125 628.693359375 618.444335938 623.301757812 618.716796875 617.051757812 c 0
 618.887695312 613.145507812 618.528320312 608.903320312 617.638671875 604.327148438 c 0
 615.81640625 594.126953125 610.928710938 582.793945312 602.97265625 570.327148438 c 0
 591.814453125 553.327148438 573.501953125 528.251953125 548.033203125 495.1015625 c 0
 522.563476562 461.952148438 495.848632812 428.09375 467.891601562 393.52734375 c 0
 438.80078125 358.959960938 402.561523438 312.91796875 359.171875 255.401367188 c 0
 315.783203125 197.883789062 273.8671875 139.091796875 233.422851562 79.025390625 c 0
 222.807617188 62.591796875 210.305664062 50.4091796875 195.919921875 42.4755859375 c 0
 184.883789062 35.67578125 174.548828125 32.2763671875 164.916015625 32.2763671875 c 0
 162.083007812 32.2763671875 159.237304688 32.5595703125 156.37890625 33.1259765625 c 0
 142.630859375 36.5263671875 134.04296875 45.0263671875 130.616210938 58.6259765625 c 0
 129.2109375 64.859375 129.203125 71.517578125 130.59375 78.6005859375 c 0
 131.984375 85.68359375 135.044921875 93.4755859375 139.7734375 101.975585938 c 0
 177.532226562 158.642578125 217.853515625 215.025390625 260.737304688 271.125 c 0
 304.754882812 327.225585938 340.9140625 371.850585938 369.216796875 405 c 0
 397.51953125 438.150390625 422.545898438 468.466796875 444.296875 495.950195312 c 0
 466.045898438 523.43359375 481.93359375 545.674804688 491.95703125 562.674804688 c 1
 469.549804688 563.2421875 446.020507812 563.525390625 421.370117188 563.525390625 c 0
 396.719726562 563.525390625 370.94921875 563.2421875 344.057617188 562.674804688 c 0
EndSplineSet
Validated: 524289
EndChar

StartChar: eight
Encoding: 56 56 31
Width: 550
VWidth: 901
GlyphClass: 2
Flags: HMW
HStem: 27.9463 93.5017<294.204 294.487> 580.446 81.6025<396.204 438.419 408.388 438.419>
VStem: 454.289 95.1983
LayerCount: 2
Fore
SplineSet
542.344726562 260.849609375 m 0
 542.223632812 250.649414062 541.28125 239.87890625 539.509765625 228.545898438 c 0
 536.359375 209.846679688 530.504882812 191.4296875 521.946289062 173.295898438 c 0
 513.388671875 155.163085938 501.848632812 137.170898438 487.328125 119.321289062 c 0
 472.807617188 101.471679688 456.482421875 86.029296875 438.350585938 72.99609375 c 0
 419.653320312 59.962890625 396.040039062 49.1962890625 367.51171875 40.6962890625 c 0
 338.982421875 32.1962890625 308.993164062 27.9462890625 277.54296875 27.9462890625 c 0
 246.09375 27.9462890625 218.861328125 31.9130859375 195.848632812 39.8466796875 c 0
 173.40234375 47.779296875 156.091796875 58.12109375 143.91796875 70.87109375 c 0
 131.745117188 83.62109375 122.447265625 98.638671875 116.025390625 115.920898438 c 0
 109.909179688 132.381835938 106.487304688 148.971679688 105.756835938 165.690429688 c 0
 105.638671875 168.395507812 105.572265625 171.287109375 105.572265625 174.354492188 c 0
 105.572265625 187.694335938 106.822265625 204.361328125 110.479492188 223.447265625 c 0
 114.171875 242.713867188 122.89453125 263.5390625 136.651367188 285.921875 c 0
 150.407226562 308.305664062 167.915039062 329.129882812 189.173828125 348.397460938 c 0
 204.447265625 361.997070312 220.409179688 372.763671875 237.0625 380.697265625 c 1
 218.385742188 393.1640625 204.387695312 408.747070312 195.071289062 427.447265625 c 0
 186.82421875 443.313476562 182.342773438 459.431640625 181.627929688 475.801757812 c 0
 181.271484375 483.987304688 181.85546875 492.235351562 183.380859375 500.546875 c 0
 184.759765625 507.9140625 186.833984375 515.564453125 189.604492188 523.497070312 c 0
 192.374023438 531.430664062 196.358398438 540.780273438 201.555664062 551.546875 c 0
 206.752929688 562.314453125 212.817382812 572.65625 219.751953125 582.573242188 c 0
 226.684570312 592.490234375 235.744140625 602.407226562 246.928710938 612.32421875 c 0
 258.112304688 622.241210938 270.35546875 630.598632812 283.659179688 637.3984375 c 0
 298.069335938 644.765625 315.092773438 650.715820312 334.728515625 655.249023438 c 0
 354.36328125 659.782226562 375.514648438 662.048828125 398.181640625 662.048828125 c 0
 420.848632812 662.048828125 441.34765625 659.782226562 459.678710938 655.249023438 c 0
 478.008789062 650.715820312 493.001953125 644.765625 504.657226562 637.3984375 c 0
 516.311523438 630.032226562 525.890625 621.532226562 533.39453125 611.8984375 c 0
 540.897460938 602.265625 546.282226562 592.491210938 549.548828125 582.57421875 c 0
 552.814453125 572.657226562 555.115234375 562.173828125 556.447265625 551.124023438 c 0
 557.11328125 545.598632812 557.551757812 540.427734375 557.76171875 535.611328125 c 0
 557.97265625 530.794921875 557.954101562 526.33203125 557.708984375 522.223632812 c 0
 557.217773438 514.006835938 556.153320312 505.931640625 554.516601562 497.999023438 c 0
 552.879882812 490.065429688 550.515625 482.557617188 547.424804688 475.474609375 c 0
 544.334960938 468.391601562 540.9296875 462.016601562 537.209960938 456.349609375 c 0
 533.491210938 450.682617188 528.786132812 444.875 523.095703125 438.924804688 c 0
 517.405273438 432.974609375 512.239257812 428.016601562 507.594726562 424.049804688 c 0
 502.952148438 420.083007812 497.057617188 415.549804688 489.913085938 410.44921875 c 0
 482.768554688 405.349609375 476.979492188 401.666992188 472.544921875 399.399414062 c 0
 468.112304688 397.1328125 462.876953125 393.732421875 456.841796875 389.19921875 c 1
 470.171875 382.399414062 481.555664062 374.75 490.993164062 366.25 c 0
 503.979492188 354.349609375 514.114257812 342.875 521.397460938 331.82421875 c 0
 528.6796875 320.774414062 534.022460938 308.732421875 537.424804688 295.69921875 c 0
 540.258789062 284.83984375 541.87109375 274.962890625 542.258789062 266.0703125 c 0
 542.336914062 264.291015625 542.365234375 262.55078125 542.344726562 260.849609375 c 0
315.309570312 554.946289062 m 0
 294.518554688 537.946289062 282.302734375 519.24609375 278.66015625 498.846679688 c 0
 278.052734375 495.446289062 277.821289062 492.116210938 277.963867188 488.856445312 c 0
 278.461914062 477.446289062 283.549804688 466.892578125 293.228515625 457.196289062 c 0
 306.831054688 444.163085938 330.94140625 430.563476562 365.559570312 416.396484375 c 1
 388.397460938 425.462890625 409.411132812 437.36328125 428.600585938 452.096679688 c 0
 447.791015625 466.829101562 458.567382812 479.579101562 460.9296875 490.346679688 c 0
 462.016601562 495.610351562 462.443359375 500.896484375 462.2109375 506.203125 c 0
 461.844726562 514.606445312 459.826171875 523.0625 456.155273438 531.571289062 c 0
 450.165039062 545.454101562 440.733398438 557.071289062 427.858398438 566.420898438 c 0
 414.983398438 575.771484375 400.329101562 580.446289062 383.896484375 580.446289062 c 2
 383.045898438 580.446289062 l 2
 358.678710938 580.446289062 336.100585938 571.946289062 315.309570312 554.946289062 c 0
242.73046875 134.196289062 m 0
 259.534179688 125.696289062 278.418945312 121.448242188 299.385742188 121.448242188 c 0
 314.119140625 121.448242188 329.462890625 123.71484375 345.4140625 128.248046875 c 0
 361.3671875 132.78125 376.240234375 139.297851562 390.036132812 147.797851562 c 0
 403.83203125 156.297851562 415.829101562 167.064453125 426.026367188 180.09765625 c 0
 435.657226562 193.130859375 441.838867188 207.297851562 444.571289062 222.59765625 c 0
 445.899414062 231.09765625 446.969726562 239.03125 447.782226562 246.3984375 c 0
 447.459960938 253.764648438 445.813476562 262.264648438 442.84375 271.8984375 c 0
 439.873046875 281.53125 434.944335938 290.59765625 428.055664062 299.09765625 c 0
 421.16796875 307.59765625 411.008789062 316.380859375 397.581054688 325.448242188 c 0
 384.151367188 334.514648438 367.913085938 343.014648438 348.8671875 350.948242188 c 1
 309.104492188 340.180664062 275.020507812 322.614257812 246.618164062 298.247070312 c 0
 218.78125 273.879882812 202.353515625 247.813476562 197.33203125 220.045898438 c 0
 195.98046875 213.24609375 195.443359375 206.670898438 195.720703125 200.321289062 c 0
 196.206054688 189.208007812 199.185546875 178.783203125 204.659179688 169.045898438 c 0
 213.827148438 153.74609375 226.517578125 142.12890625 242.73046875 134.196289062 c 0
EndSplineSet
Validated: 524289
EndChar

StartChar: nine
Encoding: 57 57 32
Width: 550
VWidth: 903
GlyphClass: 2
Flags: HMW
HStem: 34.1526 66.725 243.251 96.0525<308.609 378.305> 589.204 92.6458<414.573 483.427 424.206 483.427>
LayerCount: 2
Fore
SplineSet
198.283203125 35 m 0
 195.450195312 35 192.909179688 34.7197265625 190.666992188 34.15234375 c 0
 178.766601562 34.15234375 169.022460938 36.703125 161.432617188 41.802734375 c 0
 151.8984375 47.185546875 146.895507812 55.31640625 146.420898438 66.1943359375 c 0
 146.345703125 67.912109375 146.3828125 69.6982421875 146.534179688 71.552734375 c 2
 146.422851562 74.1025390625 l 2
 147.727539062 83.169921875 153.287109375 92.0947265625 163.103515625 100.877929688 c 0
 172.919921875 109.661132812 183.420898438 115.752929688 194.60546875 119.15234375 c 0
 201.33203125 120.852539062 212.140625 123.119140625 227.034179688 125.953125 c 0
 241.926757812 128.786132812 255.120117188 131.619140625 266.614257812 134.452148438 c 0
 278.106445312 137.28515625 290.837890625 140.967773438 304.807617188 145.500976562 c 0
 334.961914062 155.701171875 362.58984375 171.850585938 387.692382812 193.951171875 c 0
 404.024414062 209.250976562 419.689453125 226.818359375 434.69140625 246.651367188 c 0
 440.577148438 254.583984375 445.626953125 262.234375 449.837890625 269.600585938 c 1
 437.1015625 262.80078125 423.453125 257.41796875 408.89453125 253.451171875 c 0
 381.991210938 246.651367188 349.556640625 243.250976562 311.58984375 243.250976562 c 0
 284.389648438 243.250976562 259.75 249.484375 237.671875 261.951171875 c 0
 216.752929688 273.850585938 200.483398438 289.576171875 188.862304688 309.125976562 c 0
 177.2421875 328.67578125 169.169921875 351.342773438 164.643554688 377.125976562 c 0
 163.046875 386.225585938 162.046875 395.377929688 161.645507812 404.583984375 c 0
 161.510742188 407.680664062 161.442382812 410.784179688 161.442382812 413.893554688 c 0
 161.442382812 427.7265625 162.782226562 441.678710938 165.4609375 455.75 c 0
 171.41796875 488.049804688 182.142578125 518.225585938 197.634765625 546.275390625 c 0
 213.126953125 574.325195312 231.631835938 598.267578125 253.1484375 618.100585938 c 0
 274.666015625 637.93359375 299.626953125 653.516601562 328.032226562 664.849609375 c 0
 357.004882812 676.182617188 386.506835938 681.849609375 416.540039062 681.849609375 c 0
 490.7734375 681.849609375 539.83203125 654.932617188 563.715820312 601.099609375 c 0
 574.291992188 576.647460938 580.327148438 547.310546875 581.821289062 513.088867188 c 0
 582.067382812 507.45703125 582.190429688 501.693359375 582.190429688 495.797851562 c 0
 582.190429688 462.79296875 578.3359375 425.643554688 570.62890625 384.349609375 c 0
 561.423828125 335.616210938 548.15234375 292.408203125 530.814453125 254.725585938 c 0
 513.475585938 217.041992188 493.60546875 185.450195312 471.202148438 159.950195312 c 0
 448.798828125 134.450195312 422.692382812 112.6328125 392.884765625 94.5 c 0
 362.509765625 76.3671875 331.234375 62.625 299.059570312 53.275390625 c 0
 266.884765625 43.9248046875 233.29296875 37.8330078125 198.283203125 35 c 0
290.766601562 525.453125 m 0
 276.874023438 506.185546875 268.10546875 486.354492188 264.462890625 465.954101562 c 0
 261.736328125 451.298828125 260.372070312 437.915039062 260.372070312 425.803710938 c 0
 260.372070312 423.545898438 260.418945312 421.33203125 260.513671875 419.163085938 c 0
 262.818359375 366.373046875 293.177734375 339.752929688 351.591796875 339.303710938 c 0
 375.391601562 339.303710938 399.251953125 344.403320312 423.173828125 354.603515625 c 0
 447.095703125 364.803710938 466.926757812 377.836914062 482.666992188 393.703125 c 0
 483.135742188 395.970703125 483.590820312 398.520507812 484.034179688 401.353515625 c 0
 486.790039062 416.086914062 489.87890625 436.203125 493.298828125 461.703125 c 0
 494.0078125 468.84375 494.208007812 475.931640625 493.900390625 482.969726562 c 0
 493.18359375 499.391601562 489.702148438 515.536132812 483.456054688 531.403320312 c 0
 478.969726562 543.303710938 472.999023438 553.50390625 465.543945312 562.00390625 c 0
 458.08984375 570.50390625 448.733398438 577.161132812 437.471679688 581.978515625 c 0
 426.211914062 586.795898438 413.78125 589.203125 400.181640625 589.203125 c 2
 398.481445312 589.203125 l 2
 379.21484375 589.203125 359.918945312 583.395507812 340.592773438 571.778320312 c 0
 321.267578125 560.161132812 304.658203125 544.719726562 290.766601562 525.453125 c 0
EndSplineSet
Validated: 524289
EndChar

StartChar: colon
Encoding: 58 58 33
Width: 550
VWidth: 887
GlyphClass: 2
Flags: HMW
HStem: 60.5251 153.001<291.523 336.859> 288.325 152.151<350.744 385.877 350.744 385.877>
VStem: 250.441 183.602
LayerCount: 2
Fore
SplineSet
414.859375 380.974609375 m 0
 411.610351562 364.541992188 406.120117188 347.54296875 398.38671875 329.975585938 c 0
 392.772460938 315.80859375 383.609375 305.041992188 370.897460938 297.674804688 c 0
 359.836914062 291.442382812 349.7734375 288.325195312 340.706054688 288.325195312 c 2
 338.15625 288.325195312 l 2
 322.83203125 288.891601562 310.783203125 292.291992188 302.010742188 298.525390625 c 0
 292.2578125 305.608398438 287.09765625 315.642578125 286.530273438 328.627929688 c 0
 286.416992188 331.225585938 286.48828125 333.94140625 286.741210938 336.775390625 c 0
 287.4296875 346.974609375 288.8203125 357.317382812 290.912109375 367.799804688 c 0
 293.00390625 378.283203125 295.126953125 388.05859375 297.282226562 397.125 c 0
 299.436523438 406.192382812 303.62890625 413.984375 309.861328125 420.500976562 c 0
 316.09375 427.017578125 322.97265625 431.692382812 330.499023438 434.526367188 c 0
 338.025390625 437.359375 344.467773438 439.05859375 349.826171875 439.625976562 c 0
 355.184570312 440.192382812 359.280273438 440.475585938 362.11328125 440.475585938 c 0
 371.180664062 440.475585938 378.4296875 439.909179688 383.862304688 438.776367188 c 0
 389.295898438 437.642578125 394.77734375 435.375976562 400.30859375 431.975585938 c 0
 405.83984375 428.576171875 410.170898438 423.475585938 413.30078125 416.67578125 c 0
 416.430664062 409.875976562 417.627929688 401.942382812 416.889648438 392.875976562 c 0
 415.9296875 388.909179688 415.25390625 384.942382812 414.859375 380.974609375 c 0
372.514648438 143.826171875 m 0
 370.275390625 130.225585938 365.7890625 116.05859375 359.06640625 101.326171875 c 0
 352.883789062 87.1591796875 342.859375 76.67578125 328.989257812 69.8759765625 c 0
 317.3359375 64.208984375 306.139648438 61.091796875 295.397460938 60.525390625 c 0
 282.364257812 60.525390625 270.420898438 64.775390625 259.56640625 73.275390625 c 0
 250.642578125 80.263671875 245.926757812 89.55078125 245.420898438 101.13671875 c 0
 245.311523438 103.641601562 245.3984375 106.254882812 245.68359375 108.974609375 c 0
 247.823242188 124.841796875 249.127929688 133.909179688 249.596679688 136.17578125 c 0
 250.063476562 138.442382812 251.2578125 143.54296875 253.178710938 151.475585938 c 0
 255.099609375 159.409179688 256.52734375 165.641601562 257.462890625 170.174804688 c 0
 259.333007812 179.2421875 263.385742188 187.034179688 269.618164062 193.55078125 c 0
 275.849609375 200.067382812 282.87109375 204.743164062 290.680664062 207.576171875 c 0
 302.407226562 211.54296875 313.086914062 213.526367188 322.719726562 213.526367188 c 0
 332.353515625 213.526367188 340.626953125 212.250976562 347.538085938 209.701171875 c 0
 354.44921875 207.151367188 360.8984375 202.192382812 366.887695312 194.826171875 c 0
 371.877929688 188.686523438 374.567382812 181.169921875 374.956054688 172.275390625 c 0
 375.033203125 170.498046875 375.018554688 168.6640625 374.913085938 166.776367188 c 0
 374.666992188 159.409179688 373.868164062 151.758789062 372.514648438 143.826171875 c 0
EndSplineSet
Validated: 524289
EndChar

StartChar: semicolon
Encoding: 59 59 34
Width: 550
VWidth: 864
GlyphClass: 2
Flags: HMW
HStem: 229.67 153.001<353.65 391.334>
VStem: 305.767 132.598
LayerCount: 2
Fore
SplineSet
421.706054688 323.168945312 m 0
 418.456054688 306.735351562 412.978515625 289.453125 405.270507812 271.3203125 c 0
 399.655273438 257.153320312 390.4921875 246.38671875 377.78125 239.01953125 c 0
 366.719726562 232.787109375 356.65625 229.669921875 347.58984375 229.669921875 c 0
 339.65625 229.669921875 331.5078125 231.370117188 323.141601562 234.76953125 c 0
 314.776367188 238.169921875 307.895507812 243.26953125 302.499023438 250.069335938 c 0
 296.931640625 256.782226562 293.95703125 264.509765625 293.575195312 273.251953125 c 0
 293.505859375 274.840820312 293.522460938 276.463867188 293.624023438 278.120117188 c 2
 293.586914062 278.969726562 l 2
 294.275390625 289.169921875 295.8125 299.370117188 298.200195312 309.569335938 c 0
 300.586914062 319.76953125 302.717773438 329.40234375 304.587890625 338.469726562 c 0
 306.458984375 347.537109375 310.504882812 355.469726562 316.724609375 362.26953125 c 0
 322.944335938 369.069335938 329.689453125 373.602539062 336.95703125 375.870117188 c 0
 349.250976562 379.836914062 360.485351562 382.103515625 370.66015625 382.670898438 c 0
 378.592773438 382.670898438 385.282226562 381.962890625 390.7265625 380.545898438 c 0
 396.171875 379.12890625 401.654296875 376.861328125 407.172851562 373.745117188 c 0
 412.692382812 370.627929688 417.016601562 365.669921875 420.146484375 358.870117188 c 0
 423.301757812 351.502929688 424.509765625 343.286132812 423.772460938 334.21875 c 0
 422.788085938 330.819335938 422.098632812 327.135742188 421.706054688 323.168945312 c 0
360.845703125 81.76953125 m 0
 360.919921875 80.0693359375 360.4296875 78.369140625 359.37109375 76.6689453125 c 0
 354.520507812 57.96875 323.491210938 -16.5478515625 266.282226562 -146.880859375 c 0
 260.099609375 -161.047851562 251.50390625 -171.815429688 240.4921875 -179.181640625 c 0
 231.391601562 -184.895507812 222.404296875 -187.751953125 213.53125 -187.751953125 c 0
 212.724609375 -187.751953125 211.91796875 -187.728515625 211.11328125 -187.680664062 c 0
 197.512695312 -187.680664062 186.27734375 -183.430664062 177.40625 -174.930664062 c 0
 171.305664062 -169.0859375 168.059570312 -161.701171875 167.670898438 -152.779296875 c 0
 167.53125 -149.592773438 167.756835938 -146.209960938 168.346679688 -142.630859375 c 0
 170.118164062 -131.297851562 181.6796875 -97.5810546875 203.030273438 -41.4814453125 c 0
 224.379882812 14.619140625 240.682617188 56.5517578125 251.9375 84.3193359375 c 0
 256.049804688 93.9521484375 260.654296875 102.02734375 265.75390625 108.543945312 c 0
 270.852539062 115.060546875 276.467773438 119.453125 282.602539062 121.719726562 c 0
 290.411132812 124.552734375 297.704101562 126.252929688 304.479492188 126.819335938 c 0
 306.747070312 126.819335938 309.309570312 126.537109375 312.166992188 125.969726562 c 0
 323.5 125.969726562 334.390625 123.13671875 344.837890625 117.469726562 c 0
 351.219726562 114.069335938 355.975585938 108.969726562 359.10546875 102.169921875 c 0
 361.64453125 95.9365234375 362.224609375 89.13671875 360.845703125 81.76953125 c 0
EndSplineSet
Validated: 524289
EndChar

StartChar: less
Encoding: 60 60 35
Width: 550
VWidth: 902
GlyphClass: 2
Flags: HMW
HStem: 32.1751 17.85G<440.559 444.809 444.809 452.459>
LayerCount: 2
Fore
SplineSet
443.40625 32.1748046875 m 2
 434.90625 32.1748046875 425.764648438 33.8759765625 415.983398438 37.2763671875 c 0
 402.752929688 41.80859375 387.57421875 52.0087890625 370.448242188 67.8759765625 c 0
 353.322265625 83.7431640625 335.5 102.584960938 316.98046875 124.401367188 c 0
 298.4609375 146.21875 280.224609375 168.036132812 262.272460938 189.852539062 c 0
 244.319335938 211.669921875 225.34375 234.194335938 205.34765625 257.427734375 c 0
 185.349609375 280.661132812 167.970703125 299.078125 153.209960938 312.677734375 c 0
 146.11328125 319.477539062 142.3046875 328.828125 141.78515625 340.727539062 c 0
 141.5625 345.828125 142.029296875 351.352539062 143.186523438 357.302734375 c 0
 144.34375 363.252929688 146.203125 369.344726562 148.763671875 375.578125 c 0
 153.911132812 387.477539062 161.47265625 395.977539062 171.450195312 401.078125 c 0
 205.543945312 424.877929688 246.03125 454.76953125 292.91015625 490.752929688 c 0
 339.7890625 526.735351562 382.849609375 559.318359375 422.092773438 588.501953125 c 0
 461.334960938 617.684570312 495.884765625 640.776367188 525.743164062 657.776367188 c 0
 537.887695312 665.143554688 549.060546875 668.827148438 559.260742188 668.827148438 c 0
 567.193359375 668.827148438 573.796875 666.84375 579.0703125 662.876953125 c 0
 589.591796875 655.509765625 596.256835938 645.592773438 599.069335938 633.125976562 c 0
 600.44921875 627.458984375 600.580078125 621.225585938 599.459960938 614.42578125 c 0
 598.33984375 607.625976562 594.823242188 600.54296875 588.912109375 593.17578125 c 0
 580.340820312 581.842773438 565.314453125 569.092773438 543.83203125 554.92578125 c 0
 510.23046875 532.826171875 461.5703125 498.68359375 397.854492188 452.500976562 c 0
 334.137695312 406.318359375 290.73828125 375.009765625 267.654296875 358.577148438 c 1
 282.490234375 343.276367188 299.610351562 324.293945312 319.017578125 301.626953125 c 0
 338.423828125 278.959960938 355.772460938 257.993164062 371.063476562 238.725585938 c 0
 386.354492188 219.458984375 403.08203125 199.767578125 421.243164062 179.650390625 c 0
 439.404296875 159.533203125 456.118164062 143.3828125 471.3828125 131.200195312 c 0
 486.647460938 119.017578125 496.486328125 107.825195312 500.8984375 97.625 c 0
 504.028320312 90.8251953125 504.633789062 83.4580078125 502.711914062 75.525390625 c 0
 501.827148438 69.8583984375 499.794921875 64.4755859375 496.6171875 59.375 c 0
 486.518554688 44.0751953125 471.33203125 35.0078125 451.055664062 32.1748046875 c 2
 443.40625 32.1748046875 l 2
EndSplineSet
Validated: 524289
EndChar

StartChar: equal
Encoding: 61 61 36
Width: 550
VWidth: 908
GlyphClass: 2
Flags: HMW
HStem: 257.95 90.95<228.366 256.416> 427.95 90.1
LayerCount: 2
Fore
SplineSet
503.8125 518.049804688 m 0
 519.112304688 518.049804688 529.203125 514.08203125 534.083007812 506.149414062 c 0
 537.334960938 500.860351562 539.116210938 494.690429688 539.423828125 487.639648438 c 0
 539.578125 484.11328125 539.36328125 480.366210938 538.78125 476.399414062 c 2
 538.818359375 475.548828125 l 2
 537.95703125 469.31640625 536.504882812 463.649414062 534.459960938 458.548828125 c 0
 532.416015625 453.44921875 529.245117188 448.20703125 524.947265625 442.82421875 c 0
 520.649414062 437.44140625 514.877929688 433.333007812 507.634765625 430.5 c 0
 502.609375 428.799804688 497.545898438 427.950195312 492.446289062 427.950195312 c 2
 485.646484375 427.950195312 l 2
 466.921875 428.516601562 447.359375 428.799804688 426.958984375 428.799804688 c 2
 339.520507812 426.25 l 2
 302.737304688 425.1171875 275.561523438 424.549804688 257.995117188 424.549804688 c 0
 242.694335938 424.549804688 231.17578125 428.799804688 223.438476562 437.299804688 c 0
 217.848632812 443.439453125 214.869140625 450.760742188 214.498046875 459.264648438 c 0
 214.35546875 462.53515625 214.598632812 465.98046875 215.227539062 469.599609375 c 2
 215.116210938 472.150390625 l 2
 217.4296875 484.049804688 223.340820312 494.674804688 232.849609375 504.025390625 c 0
 242.358398438 513.375 254.478515625 518.049804688 269.211914062 518.049804688 c 2
 272.612304688 518.049804688 l 2
 303.595703125 517.030273438 337.6171875 516.520507812 374.676757812 516.520507812 c 0
 399.383789062 516.520507812 425.44140625 516.747070312 452.849609375 517.200195312 c 0
 481.157226562 517.766601562 498.145507812 518.049804688 503.8125 518.049804688 c 0
460.62109375 261.349609375 m 2
 454.671875 261.349609375 l 2
 442.747070312 261.916992188 431.401367188 262.200195312 420.634765625 262.200195312 c 0
 398.534179688 262.200195312 364.565429688 261.4921875 318.727539062 260.075195312 c 0
 272.889648438 258.658203125 241.752929688 257.950195312 225.3203125 257.950195312 c 0
 208.88671875 257.950195312 197.356445312 262.483398438 190.7265625 271.549804688 c 0
 186.169921875 277.783203125 183.713867188 284.955078125 183.360351562 293.0625 c 0
 183.19921875 296.748046875 183.471679688 300.626953125 184.1796875 304.700195312 c 2
 184.10546875 306.400390625 l 2
 186.418945312 318.299804688 192.637695312 328.358398438 202.762695312 336.575195312 c 0
 212.88671875 344.791992188 225.599609375 348.900390625 240.899414062 348.900390625 c 0
 241.465820312 348.900390625 246.01171875 348.6171875 254.536132812 348.049804688 c 0
 265.6953125 347.861328125 278.077148438 347.766601562 291.685546875 347.766601562 c 0
 318.880859375 347.766601562 350.96875 348.143554688 387.948242188 348.899414062 c 2
 471.987304688 351.44921875 l 2
 487.287109375 351.44921875 497.517578125 347.482421875 502.681640625 339.548828125 c 0
 506.192382812 334.155273438 508.106445312 327.842773438 508.421875 320.614257812 c 0
 508.5703125 317.212890625 508.365234375 313.607421875 507.805664062 309.798828125 c 2
 507.842773438 308.94921875 l 2
 506.981445312 302.715820312 505.380859375 297.19140625 503.041015625 292.374023438 c 0
 500.702148438 287.557617188 497.66015625 282.599609375 493.916015625 277.499023438 c 0
 489.630859375 271.83203125 483.877929688 267.298828125 476.659179688 263.899414062 c 0
 471.633789062 262.19921875 466.287109375 261.349609375 460.62109375 261.349609375 c 2
EndSplineSet
Validated: 524289
EndChar

StartChar: greater
Encoding: 62 62 37
Width: 550
VWidth: 903
GlyphClass: 2
Flags: HMW
HStem: 38.1749 17.85G<144.611 153.678>
LayerCount: 2
Fore
SplineSet
146.627929688 38.1748046875 m 0
 139.260742188 38.1748046875 132.939453125 40.15625 127.665039062 44.123046875 c 0
 122.392578125 48.08984375 118.0859375 52.623046875 114.74609375 57.7236328125 c 0
 111.407226562 62.8232421875 109.047851562 68.2060546875 107.666015625 73.873046875 c 0
 106.286132812 79.5400390625 106.15625 85.7734375 107.276367188 92.5732421875 c 0
 108.395507812 99.373046875 111.627929688 106.456054688 116.973632812 113.823242188 c 0
 125.545898438 125.15625 140.856445312 137.90625 162.905273438 152.073242188 c 0
 196.506835938 174.172851562 245.166015625 208.315429688 308.8828125 254.498046875 c 0
 372.599609375 300.681640625 415.715820312 331.989257812 438.23046875 348.422851562 c 1
 422.830078125 363.72265625 405.709960938 382.705078125 386.869140625 405.372070312 c 0
 368.030273438 428.0390625 350.822265625 449.005859375 335.248046875 468.2734375 c 0
 319.674804688 487.540039062 302.805664062 507.232421875 284.645507812 527.348632812 c 0
 266.483398438 547.465820312 249.911132812 563.616210938 234.9296875 575.798828125 c 0
 219.947265625 587.982421875 210.250976562 599.173828125 205.838867188 609.374023438 c 0
 202.708984375 616.173828125 202.103515625 623.541015625 204.025390625 631.473632812 c 0
 204.91015625 637.140625 206.942382812 642.524414062 210.120117188 647.624023438 c 0
 220.217773438 662.923828125 235.405273438 671.991210938 255.681640625 674.82421875 c 2
 263.331054688 674.82421875 l 2
 271.831054688 674.82421875 280.97265625 673.124023438 290.75390625 669.723632812 c 0
 303.985351562 665.19140625 319.299804688 655.1328125 336.696289062 639.549804688 c 0
 354.09375 623.966796875 371.916992188 605.125 390.165039062 583.025390625 c 0
 408.413085938 560.924804688 426.512695312 538.966796875 444.465820312 517.150390625 c 0
 462.41796875 495.333007812 481.393554688 472.807617188 501.391601562 449.575195312 c 0
 521.389648438 426.341796875 538.767578125 407.924804688 553.528320312 394.325195312 c 0
 560.625 387.525390625 564.43359375 378.174804688 564.953125 366.275390625 c 0
 565.17578125 361.174804688 564.708984375 355.650390625 563.551757812 349.700195312 c 0
 562.39453125 343.75 560.536132812 337.658203125 557.974609375 331.424804688 c 0
 552.827148438 319.525390625 545.265625 311.025390625 535.288085938 305.924804688 c 0
 501.169921875 282.69140625 460.676757812 252.94140625 413.810546875 216.674804688 c 0
 366.943359375 180.408203125 323.888671875 147.682617188 284.646484375 118.5 c 0
 245.404296875 89.31640625 210.853515625 66.224609375 180.99609375 49.224609375 c 0
 168.8515625 41.8583984375 157.39453125 38.1748046875 146.627929688 38.1748046875 c 0
EndSplineSet
Validated: 524289
EndChar

StartChar: question
Encoding: 63 63 38
Width: 550
VWidth: 903
GlyphClass: 2
Flags: HMW
HStem: 31.0008 151.302<266.641 331.523 275.991 331.523> 485.748 17.85G<278.823 280.24 280.24 287.04> 584.352 92.6458<429.557 434.939>
VStem: 292.141 98.6
LayerCount: 2
Fore
SplineSet
324.01171875 223.950195312 m 0
 319.479492188 223.950195312 314.638671875 224.517578125 309.48828125 225.650390625 c 0
 289.646484375 231.439453125 279.322265625 243.524414062 278.51953125 261.90625 c 0
 278.30078125 266.919921875 278.791015625 272.401367188 279.98828125 278.3515625 c 0
 281.341796875 286.284179688 284.087890625 294.784179688 288.224609375 303.8515625 c 0
 295.439453125 320.284179688 303.98046875 335.584960938 313.844726562 349.751953125 c 0
 323.709960938 363.918945312 333.944335938 376.1015625 344.548828125 386.301757812 c 0
 355.154296875 396.501953125 365.931640625 405.993164062 376.880859375 414.776367188 c 0
 387.830078125 423.559570312 398.239257812 431.776367188 408.104492188 439.426757812 c 0
 417.970703125 447.076171875 426.709960938 454.584960938 434.321289062 461.951171875 c 0
 450.627929688 477.818359375 460.39453125 494.251953125 463.619140625 511.251953125 c 0
 465.486328125 520.80859375 466.256835938 529.337890625 465.9296875 536.838867188 c 0
 465.36328125 549.794921875 461.522460938 559.68359375 454.405273438 566.501953125 c 0
 442.552734375 578.40234375 423.026367188 584.352539062 395.826171875 584.352539062 c 0
 389.592773438 584.352539062 383.002929688 582.793945312 376.055664062 579.677734375 c 0
 369.109375 576.560546875 362.747070312 573.018554688 356.969726562 569.051757812 c 0
 351.193359375 565.084960938 344.782226562 559.41796875 337.737304688 552.05078125 c 0
 330.692382812 544.68359375 325.0078125 538.591796875 320.685546875 533.775390625 c 0
 316.362304688 528.958007812 310.979492188 522.44140625 304.5390625 514.223632812 c 0
 298.09765625 506.006835938 291.723632812 499.490234375 285.41796875 494.672851562 c 0
 279.110351562 489.856445312 272.583007812 486.880859375 265.83203125 485.748046875 c 2
 259.032226562 485.748046875 l 2
 256.19921875 485.748046875 253.056640625 486.315429688 249.608398438 487.448242188 c 0
 246.158203125 488.581054688 241.254882812 490.564453125 234.8984375 493.397460938 c 0
 224.401367188 500.197265625 218.880859375 509.830078125 218.336914062 522.297851562 c 0
 218.212890625 525.130859375 218.34765625 528.530273438 218.741210938 532.497070312 c 0
 220.563476562 542.697265625 225.451171875 554.030273438 233.407226562 566.497070312 c 0
 241.928710938 578.96484375 251.603515625 591.005859375 262.428710938 602.623046875 c 0
 273.254882812 614.240234375 286.19921875 625.998046875 301.262695312 637.8984375 c 0
 316.326171875 649.797851562 333.337890625 659.290039062 352.294921875 666.373046875 c 0
 371.252929688 673.456054688 390.365234375 676.998046875 409.631835938 676.998046875 c 0
 468.564453125 676.998046875 511.018554688 661.83984375 536.9921875 631.5234375 c 0
 553.731445312 611.985351562 562.791015625 586.388671875 564.173828125 554.73046875 c 0
 564.297851562 551.880859375 564.360351562 548.983398438 564.360351562 546.036132812 c 0
 564.360351562 530.915039062 562.72265625 514.502929688 559.450195312 496.797851562 c 0
 556.200195312 480.365234375 550.912109375 465.20703125 543.584960938 451.32421875 c 0
 536.258789062 437.44140625 527.563476562 425.682617188 517.500976562 416.049804688 c 0
 507.439453125 406.416992188 497.061523438 397.4921875 486.370117188 389.275390625 c 0
 475.678710938 381.057617188 464.833007812 373.125 453.833984375 365.474609375 c 0
 442.834960938 357.825195312 432.556640625 349.891601562 422.998046875 341.674804688 c 0
 413.439453125 333.458007812 404.659179688 323.682617188 396.653320312 312.349609375 c 0
 388.6484375 301.016601562 382.688476562 288.266601562 378.7734375 274.099609375 c 0
 373.282226562 257.099609375 364.797851562 243.783203125 353.317382812 234.150390625 c 0
 344.547851562 227.349609375 334.779296875 223.950195312 324.01171875 223.950195312 c 0
274.637695312 31.0009765625 m 2
 255.9375 31.0009765625 241.756835938 37.80078125 232.096679688 51.400390625 c 0
 224.3203125 62.16796875 220.146484375 74.1083984375 219.573242188 87.2236328125 c 0
 219.302734375 93.4365234375 219.838867188 99.912109375 221.184570312 106.651367188 c 0
 225.368164062 127.618164062 236.501953125 145.185546875 254.583007812 159.352539062 c 0
 273.748046875 174.65234375 293.530273438 182.302734375 313.930664062 182.302734375 c 0
 333.197265625 182.302734375 348.228515625 175.501953125 359.022460938 161.90234375 c 0
 366.370117188 152.279296875 370.323242188 141.087890625 370.880859375 128.328125 c 0
 371.143554688 122.302734375 370.649414062 115.926757812 369.397460938 109.201171875 c 0
 365.49609375 88.234375 355.638671875 70.66796875 339.823242188 56.5009765625 c 0
 324.008789062 42.333984375 305.396484375 33.833984375 283.987304688 31.0009765625 c 2
 274.637695312 31.0009765625 l 2
EndSplineSet
Validated: 524289
EndChar

StartChar: at
Encoding: 64 64 39
Width: 550
VWidth: 892
GlyphClass: 2
Flags: HMW
HStem: -77.7222 93.5017<245.985 294.152 260.718 294.152> 132.225 89.2508<321.072 321.639> 357.05 85.425 553.827 96.8991<419.669 455.084>
VStem: 112.393 92.6517 509.347 83.7208
LayerCount: 2
Fore
SplineSet
374.047851562 168.775390625 m 1
 354.145507812 144.408203125 330.032226562 132.225585938 301.69921875 132.225585938 c 0
 267.69921875 132.225585938 243.244140625 143.983398438 228.333984375 167.5 c 0
 219.936523438 180.745117188 215.297851562 197.450195312 214.41796875 217.615234375 c 0
 214.314453125 219.978515625 214.262695312 222.389648438 214.262695312 224.848632812 c 0
 214.262695312 238.657226562 215.892578125 253.966796875 219.151367188 270.775390625 c 0
 223.26171875 293.442382812 229.434570312 314.267578125 237.673828125 333.25 c 0
 245.911132812 352.233398438 255.400390625 368.525390625 266.139648438 382.125 c 0
 276.87890625 395.725585938 288.837890625 407.341796875 302.018554688 416.975585938 c 0
 325.075195312 433.975585938 350.204101562 442.475585938 377.404296875 442.475585938 c 0
 393.270507812 442.475585938 408.436523438 439.075195312 422.900390625 432.275390625 c 0
 435.615234375 426.608398438 445.298828125 418.958007812 451.953125 409.325195312 c 0
 456.83203125 401.392578125 458.583007812 393.7421875 457.205078125 386.375 c 0
 456.810546875 382.408203125 455.013671875 378.158203125 451.811523438 373.625 c 0
 448.609375 369.091796875 444.827148438 364.841796875 440.46875 360.875 c 0
 436.108398438 356.908203125 431.415039062 354.075195312 426.389648438 352.375 c 0
 419.12109375 350.108398438 413.50390625 348.975585938 409.537109375 348.975585938 c 0
 402.737304688 348.975585938 395.3203125 350.108398438 387.2890625 352.375 c 0
 384.99609375 352.942382812 381.264648438 354.075195312 376.08984375 355.775390625 c 0
 370.373046875 356.908203125 364.830078125 357.333007812 359.459960938 357.05078125 c 0
 354.087890625 356.767578125 348.5078125 354.784179688 342.719726562 351.1015625 c 0
 336.9296875 347.41796875 331.325195312 342.743164062 325.90625 337.076171875 c 0
 320.486328125 331.409179688 315.579101562 323.758789062 311.182617188 314.125976562 c 0
 306.786132812 304.493164062 303.7265625 293.443359375 302.00390625 280.9765625 c 0
 300.600585938 274.17578125 299.610351562 267.659179688 299.032226562 261.42578125 c 0
 298.455078125 255.193359375 298.59765625 248.67578125 299.4609375 241.875976562 c 0
 300.622070312 228.276367188 306.301757812 221.4765625 316.501953125 221.4765625 c 0
 322.734375 221.4765625 327.78515625 222.609375 331.653320312 224.875976562 c 0
 337.221679688 227.142578125 341.865234375 231.110351562 345.584960938 236.77734375 c 0
 354.107421875 249.244140625 361.666992188 270.77734375 368.264648438 301.376953125 c 0
 371.094726562 314.41015625 381.969726562 324.892578125 400.891601562 332.826171875 c 0
 411.484375 336.79296875 421.018554688 339.059570312 429.494140625 339.626953125 c 0
 435.727539062 339.626953125 440.875976562 338.494140625 444.942382812 336.2265625 c 0
 452.901367188 332.557617188 457.065429688 326.473632812 457.436523438 317.9765625 c 0
 457.5234375 315.977539062 457.400390625 313.84375 457.068359375 311.577148438 c 0
 457.1171875 310.444335938 456.599609375 309.310546875 455.516601562 308.177734375 c 0
 449.58203125 288.344726562 445.495117188 271.627929688 443.255859375 258.02734375 c 0
 440.924804688 244.97265625 439.759765625 233.568359375 439.759765625 223.813476562 c 0
 439.759765625 217.661132812 440.064453125 213.059570312 441.934570312 210.427734375 c 0
 443.19140625 207.594726562 444.953125 206.177734375 447.219726562 206.177734375 c 0
 448.302734375 207.310546875 449.645507812 209.010742188 451.247070312 211.27734375 c 0
 454.916992188 218.078125 458.783203125 226.861328125 462.846679688 237.627929688 c 0
 468.755859375 258.02734375 473.322265625 276.727539062 476.547851562 293.727539062 c 0
 482.110351562 322.060546875 485.923828125 348.268554688 487.990234375 372.3515625 c 0
 489.6875 392.1484375 490.536132812 409.458007812 490.536132812 424.27734375 c 0
 490.536132812 427.485351562 490.497070312 430.577148438 490.416992188 433.551757812 c 0
 490.3671875 435.407226562 490.302734375 437.244140625 490.223632812 439.061523438 c 0
 489.587890625 453.615234375 487.999023438 466.936523438 485.456054688 479.02734375 c 0
 482.594726562 492.626953125 479.43359375 503.393554688 475.969726562 511.327148438 c 0
 472.506835938 519.259765625 467.959960938 526.059570312 462.329101562 531.7265625 c 0
 456.69921875 537.393554688 451.702148438 541.501953125 447.340820312 544.051757812 c 0
 442.979492188 546.6015625 437.787109375 548.7265625 431.762695312 550.426757812 c 0
 425.73828125 552.126953125 421.162109375 553.119140625 418.033203125 553.40234375 c 0
 414.903320312 553.684570312 410.505859375 553.827148438 404.838867188 553.827148438 c 0
 386.138671875 553.827148438 367.014648438 547.309570312 347.466796875 534.27734375 c 0
 327.919921875 521.244140625 309.328125 502.543945312 291.69140625 478.176757812 c 0
 274.055664062 453.809570312 257.818359375 423.3515625 242.981445312 386.801757812 c 0
 228.14453125 350.251953125 216.848632812 310.444335938 209.096679688 267.376953125 c 0
 201.686523438 229.41015625 197.928710938 195.41015625 197.823242188 165.376953125 c 0
 197.795898438 157.47265625 197.936523438 149.98046875 198.245117188 142.900390625 c 0
 199.110351562 123.079101562 201.296875 106.48828125 204.802734375 93.1279296875 c 0
 209.561523438 74.9951171875 216.45703125 59.8369140625 225.48828125 47.6533203125 c 0
 234.520507812 35.470703125 243.952148438 27.1123046875 253.784179688 22.5791015625 c 0
 263.614257812 18.046875 274.763671875 15.779296875 287.23046875 15.779296875 c 0
 299.697265625 15.779296875 311.393554688 17.1962890625 322.3203125 20.029296875 c 0
 333.24609375 22.8623046875 342.458984375 25.9794921875 349.9609375 29.3798828125 c 0
 357.462890625 32.779296875 364.90234375 37.5966796875 372.280273438 43.8291015625 c 0
 379.658203125 50.0625 385.637695312 55.8701171875 390.219726562 61.25390625 c 0
 394.801757812 66.63671875 400.319335938 73.294921875 406.772460938 81.2275390625 c 0
 409.974609375 85.7607421875 412.51171875 89.302734375 414.383789062 91.8525390625 c 0
 416.254882812 94.40234375 418.811523438 97.51953125 422.049804688 101.203125 c 0
 425.290039062 104.885742188 428.146484375 107.578125 430.623046875 109.27734375 c 0
 433.098632812 110.977539062 435.999023438 112.677734375 439.325195312 114.377929688 c 0
 442.650390625 116.078125 446.296875 116.927734375 450.263671875 116.927734375 c 0
 454.23046875 116.927734375 457.951171875 116.078125 461.424804688 114.377929688 c 0
 466.625 112.111328125 470.71484375 109.27734375 473.696289062 105.877929688 c 0
 476.677734375 102.477539062 478.69921875 98.3701171875 479.758789062 93.552734375 c 0
 480.8203125 88.736328125 480.89453125 83.77734375 479.983398438 78.677734375 c 0
 478.137695312 69.044921875 473.544921875 57.427734375 466.205078125 43.828125 c 0
 461.477539062 35.328125 456.981445312 27.9609375 452.720703125 21.7275390625 c 0
 448.458984375 15.4951171875 442.84375 7.8447265625 435.873046875 -1.22265625 c 0
 428.901367188 -10.2890625 421.880859375 -18.22265625 414.811523438 -25.0224609375 c 0
 407.741210938 -31.822265625 398.693359375 -38.763671875 387.669921875 -45.84765625 c 0
 376.645507812 -52.9306640625 365.27734375 -58.59765625 353.5625 -62.84765625 c 0
 341.84765625 -67.09765625 328.685546875 -70.638671875 314.076171875 -73.47265625 c 0
 299.467773438 -76.3056640625 284.51171875 -77.72265625 269.211914062 -77.72265625 c 2
 264.112304688 -77.72265625 l 2
 234.64453125 -77.72265625 208.65625 -69.7890625 186.147460938 -53.921875 c 0
 163.63671875 -38.0556640625 145.697265625 -16.5224609375 132.327148438 10.677734375 c 0
 118.956054688 37.8779296875 110.71484375 70.8857421875 107.602539062 109.703125 c 0
 107.223632812 114.4375 106.928710938 119.223632812 106.716796875 124.063476562 c 0
 106.451171875 130.141601562 106.319335938 136.303710938 106.319335938 142.548828125 c 0
 106.319335938 172.09765625 109.2890625 203.506835938 115.229492188 236.77734375 c 0
 124.927734375 287.2109375 137.459960938 334.385742188 152.826171875 378.302734375 c 0
 168.19140625 422.219726562 185.788085938 460.469726562 205.615234375 493.052734375 c 0
 225.442382812 525.635742188 246.873046875 553.96875 269.904296875 578.051757812 c 0
 292.935546875 602.134765625 316.936523438 620.267578125 341.904296875 632.451171875 c 0
 366.872070312 644.633789062 392.106445312 650.7265625 417.606445312 650.7265625 c 0
 435.739257812 650.7265625 452.098632812 649.16796875 466.685546875 646.05078125 c 0
 481.271484375 642.934570312 495.106445312 637.55078125 508.190429688 629.901367188 c 0
 521.274414062 622.250976562 532.055664062 612.193359375 540.533203125 599.7265625 c 0
 549.009765625 587.258789062 556.065429688 571.67578125 561.69921875 552.9765625 c 0
 567.33203125 534.276367188 570.693359375 512.458984375 571.78125 487.526367188 c 0
 572.076171875 480.768554688 572.223632812 473.791015625 572.223632812 466.595703125 c 0
 572.223632812 418.279296875 565.572265625 360.08984375 552.267578125 292.026367188 c 0
 543.947265625 248.958984375 531.142578125 211.276367188 513.853515625 178.9765625 c 0
 503.877929688 160.842773438 491.907226562 146.250976562 477.939453125 135.201171875 c 0
 463.971679688 124.151367188 448.770507812 118.625976562 432.337890625 118.625976562 c 0
 407.970703125 118.625976562 390.87109375 127.409179688 381.037109375 144.9765625 c 0
 377.365234375 151.208984375 375.03515625 159.142578125 374.047851562 168.775390625 c 1
EndSplineSet
Validated: 524289
EndChar

StartChar: A
Encoding: 65 65 40
Width: 550
VWidth: 903
GlyphClass: 2
Flags: HMW
HStem: 48.8981 17.85G<100.821 107.338> 267.35 78.1983<432.6 432.6>
VStem: 432.601 93.0767 436.855 98.5983
LayerCount: 2
Fore
SplineSet
156.424804688 95.6494140625 m 0xe0
 146.547851562 75.25 135.247070312 61.6484375 122.510742188 54.84765625 c 0
 115.31640625 50.880859375 108.461914062 48.8984375 101.944335938 48.8984375 c 0
 95.427734375 48.8984375 89.5576171875 50.3154296875 84.333984375 53.1484375 c 0
 75.6357421875 57.681640625 69.943359375 64.7646484375 67.2568359375 74.3974609375 c 0
 65.234375 81.7646484375 65.0234375 89.8388671875 66.6240234375 98.6220703125 c 0
 68.22265625 107.405273438 71.0791015625 116.61328125 75.19140625 126.24609375 c 0
 81.791015625 143.813476562 104.080078125 184.896484375 142.059570312 249.49609375 c 1
 137.069335938 255.635742188 134.388671875 262.956054688 134.016601562 271.45703125 c 0
 133.943359375 273.15625 133.9609375 274.903320312 134.071289062 276.697265625 c 0
 134.046875 277.264648438 134.305664062 277.831054688 134.84765625 278.3984375 c 0
 136.668945312 288.59765625 142.791015625 297.665039062 153.2109375 305.59765625 c 0
 161.956054688 312.96484375 172.19140625 318.631835938 183.918945312 322.598632812 c 1
 280.864257812 477.298828125 353.107421875 581.282226562 400.6484375 634.548828125 c 0
 412.029296875 646.44921875 422.127929688 655.232421875 430.948242188 660.899414062 c 0
 439.7421875 667.131835938 449.240234375 670.249023438 459.439453125 670.249023438 c 0
 462.2734375 670.249023438 464.52734375 670.532226562 466.203125 671.098632812 c 0
 476.969726562 671.098632812 485.876953125 668.265625 492.923828125 662.598632812 c 0
 502.372070312 656.478515625 507.369140625 647.145507812 507.916992188 634.599609375 c 0
 507.977539062 633.205078125 507.983398438 631.772460938 507.93359375 630.298828125 c 0xd0
 507.693359375 613.951171875 507.57421875 595.981445312 507.57421875 576.391601562 c 0
 507.57421875 514.494140625 508.771484375 436.4140625 511.1640625 342.149414062 c 0
 512.241210938 302.641601562 513.3828125 269.102539062 514.5859375 241.53125 c 0
 515.489257812 220.856445312 516.426757812 203.537109375 517.400390625 189.575195312 c 0
 519.672851562 156.9921875 522.103515625 137.016601562 524.692382812 129.649414062 c 0
 526.741210938 123.274414062 527.895507812 117.12109375 528.154296875 111.188476562 c 0
 528.309570312 107.62890625 528.143554688 104.149414062 527.654296875 100.75 c 0
 527.161132812 99.0498046875 526.680664062 97.06640625 526.212890625 94.7998046875 c 0
 523.258789062 84.599609375 518.393554688 75.9580078125 511.620117188 68.875 c 0
 504.845703125 61.7919921875 497.283203125 56.5498046875 488.931640625 53.1494140625 c 0
 479.421875 50.31640625 473.534179688 48.8994140625 471.267578125 48.8994140625 c 0
 464.466796875 48.8994140625 457.86328125 50.8828125 451.45703125 54.849609375 c 0
 440.393554688 61.6494140625 433.294921875 74.966796875 430.162109375 94.7998046875 c 0
 427.896484375 106.133789062 425.84375 132.852539062 424.005859375 174.956054688 c 0
 422.903320312 200.216796875 421.877929688 231.014648438 420.928710938 267.349609375 c 1
 354.185546875 264.516601562 293.515625 258.849609375 238.919921875 250.349609375 c 1
 212.516601562 206.149414062 185.018554688 154.583007812 156.424804688 95.6494140625 c 0xe0
289.576171875 336.198242188 m 1
 336.38671875 341.297851562 379.03515625 344.415039062 417.518554688 345.547851562 c 1
 413.41796875 536.797851562 l 1
 383.466796875 495.998046875 342.185546875 429.130859375 289.576171875 336.198242188 c 1
EndSplineSet
Validated: 524289
EndChar

StartChar: B
Encoding: 66 66 41
Width: 550
VWidth: 901
GlyphClass: 2
Flags: HMW
HStem: 31.9002 17.85G<147.088 153.321> 293.702 83.2983 565.704 88.3991<383.106 387.355>
LayerCount: 2
Fore
SplineSet
95.3994140625 87.150390625 m 0
 99.78125 103.583007812 105.65234375 131.353515625 113.012695312 170.453125 c 0
 126.771484375 244.686523438 140.750976562 326.853515625 154.951171875 416.953125 c 0
 160.708984375 453.786132812 164.7265625 478.578125 167.002929688 491.328125 c 0
 169.279296875 504.078125 172.787109375 521.078125 177.526367188 542.328125 c 0
 182.265625 563.578125 185.595703125 578.170898438 187.515625 586.103515625 c 0
 191.282226562 603.670898438 198.763671875 617.270507812 209.959960938 626.903320312 c 0
 221.155273438 636.536132812 233.270507812 641.353515625 246.303710938 641.353515625 c 2
 248.853515625 641.353515625 l 1
 263.956054688 645.88671875 282.223632812 649.286132812 303.658203125 651.553710938 c 0
 312.67578125 652.686523438 321.995117188 653.39453125 331.616210938 653.677734375 c 0
 341.236328125 653.9609375 348.879882812 654.102539062 354.546875 654.102539062 c 2
 371.546875 654.102539062 l 1
 381.747070312 654.102539062 l 2
 421.98046875 654.102539062 456.856445312 647.01953125 486.375 632.852539062 c 0
 515.326171875 618.685546875 535.520507812 597.435546875 546.958007812 569.102539062 c 0
 554.141601562 552.912109375 558.150390625 535.241210938 558.986328125 516.08984375 c 0
 559.096679688 513.56640625 559.151367188 511.017578125 559.151367188 508.442382812 c 0
 559.151367188 496.361328125 557.939453125 483.715820312 555.512695312 470.502929688 c 0
 549.555664062 438.203125 536.614257812 410.15234375 516.686523438 386.352539062 c 0
 502.177734375 368.219726562 485.2421875 353.76953125 465.87890625 343.002929688 c 1
 476.893554688 337.3359375 487.095703125 330.818359375 496.483398438 323.452148438 c 0
 511.760742188 310.985351562 524.280273438 296.818359375 534.0390625 280.951171875 c 0
 541.13671875 269.411132812 544.930664062 258.022460938 545.421875 246.783203125 c 0
 545.60546875 242.567382812 545.326171875 238.374023438 544.580078125 234.201171875 c 0
 544.60546875 233.633789062 544.333984375 233.350585938 543.767578125 233.350585938 c 0
 539.631835938 211.250976562 530.102539062 189.434570312 515.174804688 167.901367188 c 0
 500.248046875 146.368164062 480.990234375 126.67578125 457.404296875 108.826171875 c 0
 433.81640625 90.9755859375 404.16015625 75.818359375 368.438476562 63.3505859375 c 0
 332.149414062 50.8837890625 293.678710938 42.951171875 253.02734375 39.55078125 c 1
 248.668945312 42.2939453125 244.096679688 43.6650390625 239.309570312 43.6650390625 c 0
 233.216796875 43.6650390625 226.776367188 41.443359375 219.989257812 37.0009765625 c 1
 192.3203125 34.734375 175.098632812 33.3173828125 168.32421875 32.75 c 0
 161.548828125 32.18359375 155.044921875 31.900390625 148.811523438 31.900390625 c 0
 142.578125 31.900390625 136.885742188 32.466796875 131.737304688 33.6005859375 c 2
 130.037109375 33.6005859375 l 2
 117.00390625 33.6005859375 106.875976562 38.4169921875 99.65625 48.0498046875 c 0
 95.8818359375 53.3623046875 93.8359375 59.6708984375 93.517578125 66.9755859375 c 0
 93.326171875 71.3583984375 93.7568359375 76.099609375 94.8095703125 81.2001953125 c 0
 94.7099609375 83.466796875 94.90625 85.4501953125 95.3994140625 87.150390625 c 0
246.08984375 393.153320312 m 0
 245.204101562 387.486328125 244.303710938 382.100585938 243.393554688 377 c 1
 266.650390625 376.43359375 287.63671875 376.0078125 306.348632812 375.725585938 c 0
 308.21875 375.697265625 310.064453125 375.682617188 311.885742188 375.682617188 c 0
 328.283203125 375.682617188 342.6796875 376.830078125 355.075195312 379.125 c 0
 368.84765625 381.674804688 380.604492188 384.93359375 390.348632812 388.900390625 c 0
 400.091796875 392.8671875 408.94921875 397.684570312 416.918945312 403.350585938 c 0
 424.887695312 409.017578125 431.157226562 414.684570312 435.727539062 420.3515625 c 0
 440.295898438 426.018554688 444.55078125 432.393554688 448.4921875 439.4765625 c 0
 452.432617188 446.559570312 455.413085938 452.934570312 457.431640625 458.6015625 c 0
 459.451171875 464.268554688 460.891601562 470.21875 461.751953125 476.452148438 c 0
 462.95703125 483.013671875 463.426757812 489.33984375 463.161132812 495.430664062 c 0
 462.921875 500.912109375 462.0859375 506.203125 460.655273438 511.302734375 c 0
 457.635742188 522.069335938 452.583984375 530.711914062 445.499023438 537.228515625 c 0
 438.415039062 543.745117188 430.240234375 549.270507812 420.975585938 553.803710938 c 0
 404.690429688 561.772460938 386.586914062 565.756835938 366.666015625 565.756835938 c 0
 365.337890625 565.756835938 364 565.739257812 362.655273438 565.703125 c 0
 335.456054688 565.703125 308.3671875 563.153320312 281.389648438 558.053710938 c 1
 279.001953125 547.853515625 275.703125 532.553710938 271.493164062 512.153320312 c 0
 261.424804688 470.220703125 252.956054688 430.553710938 246.08984375 393.153320312 c 0
426.989257812 192.125 m 0
 436.422851562 203.174804688 441.819335938 212.670898438 443.171875 220.603515625 c 0
 444.107421875 225.13671875 442.59765625 230.51953125 438.642578125 236.752929688 c 0
 434.686523438 242.985351562 427.596679688 249.643554688 417.370117188 256.7265625 c 0
 407.143554688 263.809570312 391.82421875 270.751953125 371.41015625 277.551757812 c 0
 350.99609375 284.3515625 327.385742188 289.735351562 300.580078125 293.702148438 c 1
 230.030273438 293.702148438 l 1
 217.577148438 215.501953125 208.49609375 157.418945312 202.787109375 119.452148438 c 1
 208.453125 119.452148438 216.947265625 119.59375 228.268554688 119.876953125 c 0
 239.58984375 120.16015625 248.920898438 120.584960938 256.262695312 121.15234375 c 0
 281.713867188 122.28515625 306.18359375 126.392578125 329.674804688 133.475585938 c 0
 353.166015625 140.559570312 372.8984375 149.341796875 388.874023438 159.825195312 c 0
 404.849609375 170.30859375 417.5546875 181.075195312 426.989257812 192.125 c 0
EndSplineSet
Validated: 524289
EndChar

StartChar: C
Encoding: 67 67 42
Width: 550
VWidth: 903
GlyphClass: 2
Flags: HMW
HStem: 26.9019 96.9009<249.221 301.921 261.404 301.921> 570.054 89.2466<498.271 499.121>
LayerCount: 2
Fore
SplineSet
620.1484375 641.44921875 m 0
 620.30078125 637.958984375 620.377929688 634.43359375 620.377929688 630.873046875 c 0
 620.377929688 611.88671875 618.211914062 591.8984375 613.879882812 570.90234375 c 0
 610.655273438 553.90234375 608.549804688 543.703125 607.565429688 540.302734375 c 0
 604.784179688 526.135742188 597.333984375 511.828125 585.21484375 497.377929688 c 0
 573.095703125 482.927734375 561.393554688 475.135742188 550.110351562 474.002929688 c 0
 547.842773438 474.002929688 545.305664062 473.719726562 542.497070312 473.15234375 c 0
 532.864257812 473.15234375 524.215820312 476.552734375 516.551757812 483.352539062 c 0
 507.529296875 490.327148438 502.78515625 499.145507812 502.319335938 509.80859375 c 0
 502.1796875 513.0078125 502.42578125 516.372070312 503.056640625 519.90234375 c 0
 504.015625 523.870117188 506.403320312 534.069335938 510.219726562 550.502929688 c 1
 503.788085938 555.036132812 499.69140625 558.010742188 497.9296875 559.427734375 c 0
 496.166992188 560.844726562 493.537109375 562.686523438 490.0390625 564.954101562 c 0
 483.657226562 568.353515625 477.349609375 570.053710938 471.1171875 570.053710938 c 0
 455.25 570.053710938 436.772460938 564.954101562 415.684570312 554.75390625 c 0
 394.596679688 544.553710938 373.4296875 529.678710938 352.182617188 510.12890625 c 0
 330.936523438 490.579101562 310.522460938 468.1953125 290.939453125 442.978515625 c 0
 271.357421875 417.76171875 254.190429688 389.14453125 239.4375 357.127929688 c 0
 224.686523438 325.111328125 214.319335938 293.236328125 208.338867188 261.502929688 c 0
 206.573242188 251.766601562 205.690429688 242.16015625 205.690429688 232.685546875 c 0
 205.690429688 230.482421875 205.73828125 228.287109375 205.833007812 226.098632812 c 0
 206.284179688 215.78515625 207.794921875 205.627929688 210.364257812 195.627929688 c 0
 215.825195312 174.377929688 225.50390625 157.094726562 239.403320312 143.77734375 c 0
 253.30078125 130.4609375 269.317382812 123.802734375 287.450195312 123.802734375 c 0
 305.583007812 123.802734375 323.353515625 125.64453125 340.758789062 129.328125 c 0
 358.165039062 133.010742188 374.110351562 137.685546875 388.596679688 143.352539062 c 0
 403.083007812 149.01953125 415.720703125 154.828125 426.510742188 160.77734375 c 0
 437.30078125 166.727539062 447.376953125 172.819335938 456.73828125 179.052734375 c 0
 464.990234375 184.719726562 472.442382812 189.252929688 479.094726562 192.65234375 c 0
 485.74609375 196.052734375 492.90234375 197.611328125 500.565429688 197.328125 c 0
 508.2265625 197.044921875 514.719726562 194.352539062 520.04296875 189.252929688 c 0
 527.638671875 181.974609375 531.641601562 173.645507812 532.05078125 164.264648438 c 0
 532.18359375 161.228515625 531.939453125 158.083007812 531.3203125 154.828125 c 0
 528.784179688 141.510742188 519.646484375 126.918945312 503.90625 111.051757812 c 0
 448.005859375 54.9462890625 370.329101562 26.8935546875 270.872070312 26.8935546875 c 0
 269.876953125 26.8935546875 268.87890625 26.896484375 267.879882812 26.90234375 c 2
 260.229492188 26.90234375 l 2
 235.86328125 26.90234375 213.306640625 30.869140625 192.560546875 38.8017578125 c 0
 172.381835938 46.7353515625 156.328125 57.501953125 144.401367188 71.1015625 c 0
 132.474609375 84.7021484375 122.7265625 100.28515625 115.16015625 117.8515625 c 0
 107.59375 135.418945312 103.09375 154.119140625 101.661132812 173.952148438 c 0
 101.500976562 176.15625 101.374023438 178.361328125 101.27734375 180.56640625 c 0
 101.130859375 183.932617188 101.057617188 187.299804688 101.057617188 190.666015625 c 0
 101.057617188 204.927734375 102.375976562 219.189453125 105.012695312 233.451171875 c 0
 112.864257812 274.250976562 124.3125 313.776367188 139.359375 352.026367188 c 0
 154.40625 390.276367188 171.603515625 424.701171875 190.951171875 455.30078125 c 0
 210.297851562 485.901367188 231.868164062 514.234375 255.6640625 540.30078125 c 0
 280.05078125 565.80078125 305.182617188 587.193359375 331.0625 604.4765625 c 0
 356.940429688 621.758789062 382.702148438 635.216796875 408.349609375 644.850585938 c 0
 433.995117188 654.483398438 458.151367188 659.30078125 480.818359375 659.30078125 c 0
 498.951171875 659.30078125 515.731445312 657.883789062 531.154296875 655.05078125 c 1
 535.416015625 661.283203125 540.563476562 666.666015625 546.59765625 671.19921875 c 0
 555.368164062 677.999023438 564.275390625 681.682617188 573.31640625 682.249023438 c 0
 576.692382812 682.81640625 578.8046875 683.099609375 579.654296875 683.099609375 c 2
 580.9296875 683.099609375 l 2
 589.4296875 683.099609375 597.203125 680.266601562 604.250976562 674.599609375 c 0
 614.23046875 666.666015625 619.529296875 655.616210938 620.1484375 641.44921875 c 0
EndSplineSet
Validated: 524289
EndChar

StartChar: D
Encoding: 68 68 43
Width: 550
VWidth: 901
GlyphClass: 2
Flags: HMW
HStem: 24.871 93.5008<303.886 352.621 316.919 352.621> 641.121 17G<259.971 275.838>
LayerCount: 2
Fore
SplineSet
258.368164062 124.321289062 m 0
 281.491210938 120.354492188 308.919921875 118.372070312 340.653320312 118.372070312 c 0
 354.252929688 118.372070312 368.208984375 123.188476562 382.522460938 132.822265625 c 0
 396.833984375 142.455078125 409.741210938 155.063476562 421.245117188 170.646484375 c 0
 432.747070312 186.229492188 443.036132812 203.654296875 452.111328125 222.920898438 c 0
 461.1875 242.188476562 467.313476562 260.887695312 470.48828125 279.021484375 c 0
 474.475585938 300.177734375 476.467773438 320.310546875 476.467773438 339.418945312 c 0
 476.467773438 343.33203125 476.384765625 347.202148438 476.216796875 351.029296875 c 0
 473.244140625 419.110351562 443.825195312 473.590820312 387.958984375 514.470703125 c 0
 361.6171875 533.73828125 321.651367188 553.571289062 268.060546875 573.970703125 c 1
 253.51171875 504.837890625 240.517578125 432.587890625 229.07421875 357.220703125 c 0
 225.038085938 332.854492188 219.365234375 297.295898438 212.056640625 250.545898438 c 0
 204.748046875 203.795898438 199.087890625 167.954101562 195.077148438 143.021484375 c 1
 214.147460938 134.521484375 235.244140625 128.288085938 258.368164062 124.321289062 c 0
87.1328125 103.920898438 m 0
 91.9580078125 123.188476562 98.298828125 153.220703125 106.150390625 194.021484375 c 0
 119.883789062 268.821289062 134.982421875 357.788085938 151.447265625 460.920898438 c 0
 156.34375 491.521484375 159.708984375 511.779296875 161.543945312 521.696289062 c 0
 163.376953125 531.61328125 166.682617188 546.771484375 171.458007812 567.170898438 c 0
 175.116210938 582.794921875 177.49609375 593.432617188 178.598632812 599.084960938 c 0
 178.662109375 599.666015625 178.8671875 601.2109375 179.212890625 603.720703125 c 0
 182.979492188 621.287109375 190.33203125 634.604492188 201.268554688 643.670898438 c 0
 212.181640625 653.303710938 224.4375 658.12109375 238.037109375 658.12109375 c 0
 256.169921875 658.12109375 279.244140625 655.288085938 307.258789062 649.62109375 c 0
 324.973632812 646.220703125 343.028320312 641.545898438 361.420898438 635.595703125 c 0
 379.813476562 629.646484375 399.162109375 621.288085938 419.46484375 610.521484375 c 0
 439.768554688 599.75390625 458.723632812 587.428710938 476.329101562 573.545898438 c 0
 493.935546875 559.663085938 510.008789062 541.955078125 524.548828125 520.421875 c 0
 537.931640625 499.455078125 548.572265625 476.36328125 556.473632812 451.146484375 c 0
 563.765625 427.869140625 568.08984375 400.73046875 569.443359375 369.729492188 c 0
 569.555664062 367.145507812 569.6484375 364.534179688 569.719726562 361.896484375 c 0
 569.825195312 358.037109375 569.876953125 354.143554688 569.876953125 350.215820312 c 0
 569.876953125 319.254882812 566.622070312 286.171875 560.112304688 250.970703125 c 0
 556.4453125 231.137695312 550.110351562 210.73828125 541.110351562 189.771484375 c 0
 532.108398438 168.803710938 520.518554688 148.6875 506.34375 129.419921875 c 0
 492.16796875 110.153320312 476.353515625 92.728515625 458.901367188 77.1455078125 c 0
 441.448242188 61.5625 421.03125 48.9541015625 397.65234375 39.3212890625 c 0
 374.990234375 29.658203125 351.86328125 24.826171875 328.271484375 24.826171875 c 0
 326.959960938 24.826171875 325.647460938 24.8408203125 324.333007812 24.87109375 c 2
 315.833007812 24.87109375 l 2
 289.766601562 24.87109375 263.927734375 26.146484375 238.31640625 28.6962890625 c 0
 212.705078125 31.24609375 192.174804688 34.220703125 176.7265625 37.62109375 c 0
 161.844726562 41.021484375 149.526367188 44.1376953125 139.76953125 46.970703125 c 0
 130.01171875 49.8037109375 124.000976562 51.220703125 121.733398438 51.220703125 c 0
 108.700195312 51.220703125 98.57421875 56.0380859375 91.3525390625 65.6708984375 c 0
 87.328125 71.337890625 85.146484375 78.0126953125 84.8115234375 85.6943359375 c 0
 84.6435546875 89.53515625 84.9375 93.626953125 85.69140625 97.970703125 c 0
 86.1591796875 100.23828125 86.640625 102.220703125 87.1328125 103.920898438 c 0
178.943359375 600.924804688 m 1
 179.08984375 601.743164062 179.19140625 602.391601562 179.25 602.87109375 c 1
 179.1328125 602.1171875 179.030273438 601.46875 178.943359375 600.924804688 c 1
EndSplineSet
Validated: 524289
EndChar

StartChar: E
Encoding: 69 69 44
Width: 550
VWidth: 901
GlyphClass: 2
Flags: HMW
HStem: 34.3 97.75 46.2 97.75<446.21 496.925 452.16 496.925> 307.15 92.6491 322.45 90.1<516.193 549.058> 552.798 91.7983<444.79 470.858 428.358 489.274>
VStem: 209.059 0.85<595.3 595.3>
LayerCount: 2
Fore
SplineSet
245.291015625 649.700195312 m 2x8c
 258.32421875 649.700195312 268.439453125 645.1640625 275.635742188 636.096679688 c 1
 322.421875 641.763671875 381.23046875 644.596679688 452.063476562 644.596679688 c 0
 470.197265625 644.596679688 487.4921875 644.313476562 503.950195312 643.747070312 c 0
 536.8671875 642.61328125 562.157226562 640.9140625 579.823242188 638.646484375 c 0
 594.064453125 636.946289062 603.748046875 632.5546875 608.875 625.471679688 c 0
 612.360351562 620.655273438 614.256835938 614.725585938 614.564453125 607.681640625 c 0
 614.709960938 604.366210938 614.501953125 600.8046875 613.942382812 596.997070312 c 0
 613.08203125 590.763671875 611.493164062 584.955078125 609.178710938 579.572265625 c 0
 606.864257812 574.189453125 603.821289062 569.231445312 600.052734375 564.698242188 c 0
 595.766601562 559.03125 590.015625 554.498046875 582.796875 551.098632812 c 0
 577.770507812 549.3984375 572.424804688 548.548828125 566.7578125 548.548828125 c 2
 560.807617188 548.548828125 l 2
 524.984375 551.381835938 486.955078125 552.798828125 446.72265625 552.798828125 c 2
 404.22265625 552.798828125 l 2
 353.838867188 551.665039062 309.762695312 548.83203125 271.993164062 544.298828125 c 1
 260.521484375 495.56640625 250.44140625 447.399414062 241.751953125 399.798828125 c 1
 282.52734375 400.366210938 337.961914062 402.6328125 408.055664062 406.599609375 c 0
 476.44921875 410.567382812 514.895507812 412.549804688 523.395507812 412.549804688 c 0
 538.6953125 412.549804688 548.927734375 408.583007812 554.08984375 400.650390625 c 0
 557.341796875 395.655273438 559.110351562 389.873046875 559.397460938 383.3046875 c 0
 559.56640625 379.442382812 559.221679688 375.306640625 558.364257812 370.900390625 c 2
 558.40234375 370.049804688 l 2
 556.163085938 356.450195312 551.237304688 345.966796875 543.626953125 338.599609375 c 0
 533.896484375 327.833007812 521.665039062 322.450195312 506.931640625 322.450195312 c 0x9c
 497.298828125 322.450195312 456.030273438 320.182617188 383.12890625 315.650390625 c 0
 308.551757812 310.549804688 255.974609375 307.716796875 225.399414062 307.150390625 c 1
 223.16015625 293.549804688 220.779296875 279.950195312 218.255859375 266.349609375 c 0
 215.732421875 252.75 213.375976562 238.583007812 211.186523438 223.849609375 c 0
 204.34375 185.8828125 200.39453125 159.533203125 199.337890625 144.799804688 c 0
 198.993164062 139.700195312 198.612304688 135.450195312 198.193359375 132.049804688 c 1xac
 208.443359375 130.916992188 224.057617188 130.208984375 245.036132812 129.92578125 c 0
 249.23046875 129.869140625 253.63671875 129.840820312 258.2578125 129.840820312 c 0
 276.755859375 129.840820312 298.680664062 130.293945312 324.030273438 131.201171875 c 0
 398.139648438 134.034179688 445.295898438 137.716796875 465.498046875 142.25 c 0
 473.94921875 143.3828125 481.291015625 143.950195312 487.5234375 143.950195312 c 0
 493.756835938 143.950195312 499.061523438 142.533203125 503.434570312 139.700195312 c 0
 507.80859375 136.8671875 511.337890625 133.891601562 514.024414062 130.775390625 c 0
 516.7109375 127.658203125 518.435546875 123.833007812 519.200195312 119.299804688 c 0
 519.96484375 114.766601562 520.420898438 110.799804688 520.569335938 107.400390625 c 0
 520.717773438 104 520.595703125 100.317382812 520.202148438 96.349609375 c 0
 517.938476562 83.3173828125 511.375 71.4169921875 500.51171875 60.650390625 c 0
 490.732421875 51.0166015625 479.0546875 45.9169921875 465.479492188 45.349609375 c 1
 462.891601562 52.716796875 458.62890625 53 452.692382812 46.2001953125 c 1
 450.142578125 46.2001953125 l 2x4c
 438.2421875 46.2001953125 415.341796875 45.0673828125 381.440429688 42.7998046875 c 0
 346.407226562 40.533203125 310.509765625 38.5498046875 273.750976562 36.849609375 c 0
 236.9921875 35.150390625 209.262695312 34.2998046875 190.5625 34.2998046875 c 0
 172.4296875 34.2998046875 157.955078125 34.8671875 147.138671875 36 c 0
 132.922851562 37.1328125 120.133789062 44.5 108.772460938 58.099609375 c 0
 99.4091796875 68.8662109375 94.3994140625 81.759765625 93.7431640625 96.779296875 c 0
 93.60546875 99.9423828125 93.66015625 103.19921875 93.9072265625 106.549804688 c 0
 94.447265625 120.150390625 97.9404296875 143.950195312 104.389648438 177.950195312 c 0
 110.396484375 209.1171875 116.537109375 240.424804688 122.813476562 271.875 c 0
 129.090820312 303.325195312 134.296875 330.099609375 138.431640625 352.200195312 c 0
 142.567382812 374.299804688 147.4765625 404.6171875 153.16015625 443.150390625 c 0
 158.525390625 476.016601562 162.2421875 497.974609375 164.309570312 509.025390625 c 0
 166.376953125 520.075195312 169.798828125 535.799804688 174.575195312 556.200195312 c 0
 178.869140625 574.541015625 181.590820312 586.927734375 182.740234375 593.359375 c 1
 182.268554688 590.313476562 182.661132812 590.959960938 183.91796875 595.299804688 c 0
 187.68359375 612.8671875 195.029296875 626.325195312 205.954101562 635.674804688 c 0
 216.87890625 645.025390625 228.858398438 649.700195312 241.891601562 649.700195312 c 2
 245.291015625 649.700195312 l 2x8c
182.740234375 593.359375 m 1
 182.823242188 593.892578125 182.932617188 594.540039062 183.067382812 595.299804688 c 1
 182.977539062 594.728515625 182.869140625 594.081054688 182.740234375 593.359375 c 1
EndSplineSet
Validated: 524289
EndChar

StartChar: F
Encoding: 70 70 45
Width: 550
VWidth: 901
GlyphClass: 2
Flags: HMW
HStem: 34.1232 17.85G<127.794 134.311 134.311 136.861> 318.448 90.5267 559.425 93.5<483.093 517.093> 641.875 17G<281.36 285.61 285.61 292.41>
LayerCount: 2
Fore
SplineSet
256.84375 658.875 m 2xd0
 270.443359375 658.875 280.55859375 654.341796875 287.188476562 645.274414062 c 1
 356.098632812 650.375 422.5703125 652.924804688 486.603515625 652.924804688 c 0
 528.536132812 652.924804688 562.880859375 651.5078125 589.637695312 648.674804688 c 0
 603.853515625 647.541992188 613.53125 643.291992188 618.670898438 635.924804688 c 0
 622.467773438 630.479492188 624.546875 623.641601562 624.90625 615.41015625 c 0
 625.033203125 612.504882812 624.9453125 609.426757812 624.64453125 606.173828125 c 0
 623.265625 598.806640625 622.982421875 598.806640625 623.793945312 606.173828125 c 1
 621.529296875 593.140625 615.791992188 581.807617188 606.580078125 572.174804688 c 0
 597.366210938 562.541992188 585.110351562 557.724609375 569.810546875 557.724609375 c 2
 568.110351562 557.724609375 l 2
 539.727539062 558.857421875 509.103515625 559.424804688 476.236328125 559.424804688 c 0xe0
 415.036132812 559.424804688 350.53515625 557.158203125 282.733398438 552.625 c 1
 280.836914062 544.125 277.723632812 531.091796875 273.390625 513.524414062 c 0
 265.783203125 480.091796875 259.493164062 448.924804688 254.522460938 420.024414062 c 0
 253.611328125 414.924804688 252.689453125 410.107421875 251.75390625 405.575195312 c 1
 273.754882812 407.841796875 297.505859375 408.974609375 323.005859375 408.974609375 c 0
 329.805664062 408.974609375 336.618164062 408.69140625 343.442382812 408.125 c 0
 380.868164062 407.557617188 414.646484375 406.140625 444.778320312 403.874023438 c 0
 475.477539062 401.607421875 498.403320312 398.915039062 513.555664062 395.797851562 c 0
 528.708984375 392.681640625 538.694335938 387.864257812 543.51171875 381.34765625 c 0
 547.015625 376.607421875 548.926757812 370.594726562 549.245117188 363.306640625 c 0
 549.364257812 360.57421875 549.258789062 357.663085938 548.930664062 354.572265625 c 1
 548.90625 355.139648438 548.623046875 355.139648438 548.080078125 354.572265625 c 0
 545.767578125 342.671875 541.408203125 332.189453125 535.004882812 323.122070312 c 0
 530.71875 317.455078125 524.670898438 313.205078125 516.862304688 310.372070312 c 0
 511.8359375 308.671875 506.490234375 307.822265625 500.823242188 307.822265625 c 2
 494.873046875 307.822265625 l 2
 479.44921875 310.655273438 456.387695312 313.205078125 425.689453125 315.47265625 c 0
 396.3828125 317.487304688 366.111328125 318.495117188 334.877929688 318.495117188 c 0
 330.977539062 318.495117188 327.0625 318.479492188 323.133789062 318.448242188 c 0
 287.728515625 318.165039062 258.458984375 316.889648438 235.325195312 314.623046875 c 1
 223.80859375 240.956054688 211.8984375 163.323242188 199.59375 81.7236328125 c 0
 195.161132812 66.4228515625 185.763671875 54.5234375 171.40234375 46.0234375 c 0
 159.848632812 38.08984375 147.838867188 34.123046875 135.372070312 34.123046875 c 2
 132.821289062 34.123046875 l 2
 119.7890625 34.123046875 109.662109375 38.9404296875 102.440429688 48.5732421875 c 0
 98.66796875 53.8857421875 96.62109375 60.1943359375 96.3017578125 67.4990234375 c 0
 96.1103515625 71.8818359375 96.541015625 76.623046875 97.59375 81.7236328125 c 0
 98.0859375 83.4228515625 98.283203125 85.40625 98.18359375 87.6728515625 c 0
 102.517578125 105.240234375 108.879882812 134.70703125 117.274414062 176.07421875 c 0
 131.993164062 254.274414062 146.352539062 340.69140625 160.354492188 435.32421875 c 0
 166.112304688 472.157226562 170.272460938 496.94921875 172.833007812 509.69921875 c 0
 175.393554688 522.44921875 179.184570312 539.44921875 184.206054688 560.69921875 c 0
 189.228515625 581.94921875 192.416015625 596.541015625 193.770507812 604.473632812 c 0
 197.536132812 622.041015625 204.887695312 635.357421875 215.825195312 644.424804688 c 0
 226.737304688 654.057617188 238.993164062 658.875 252.59375 658.875 c 2
 256.84375 658.875 l 2xd0
EndSplineSet
Validated: 524289
EndChar

StartChar: G
Encoding: 71 71 46
Width: 550
VWidth: 901
GlyphClass: 2
Flags: HMW
HStem: 25.625 96.9<250.876 299.608> 578.125 89.25<501.342 502.19>
LayerCount: 2
Fore
SplineSet
101.666992188 172.674804688 m 2
 101.370117188 179.474609375 l 2
 101.204101562 183.296875 101.116210938 187.081054688 101.116210938 190.841796875 c 0
 101.116210938 204.645507812 102.291015625 218.147460938 105.018554688 232.174804688 c 0
 112.55078125 273.825195312 124.405273438 313.775390625 139.698242188 352.875 c 0
 154.991210938 391.974609375 172.1328125 427.674804688 192.009765625 459.125 c 0
 211.88671875 490.575195312 233.612304688 518.625 257.111328125 544.974609375 c 0
 282.311523438 571.325195312 307.696289062 593.424804688 333.267578125 611.275390625 c 0
 358.837890625 629.125 383.744140625 642.724609375 409.684570312 652.075195312 c 0
 435.58984375 662.275390625 460.8671875 667.375 484.666992188 667.375 c 0
 508.466796875 667.375 534.2265625 661.424804688 561.060546875 650.375 c 0
 587.9296875 638.474609375 604.525390625 628.275390625 611.733398438 618.924804688 c 0
 617.166992188 611.275390625 620.05078125 603.625 620.421875 595.125 c 0
 620.607421875 590.875 619.943359375 586.625 619.279296875 582.375 c 0
 617.875976562 575.575195312 615.66015625 567.924804688 611.744140625 560.275390625 c 0
 607.088867188 550.075195312 598.922851562 542.424804688 587.208984375 538.174804688 c 0
 581.370117188 535.625 576.306640625 534.775390625 570.357421875 534.775390625 c 0
 564.407226562 534.775390625 560.120117188 535.625 556.645507812 537.325195312 c 0
 553.171875 539.025390625 545.3359375 543.275390625 534.801757812 550.924804688 c 0
 524.267578125 558.575195312 513.771484375 565.375 502.498046875 570.474609375 c 0
 491.225585938 575.575195312 481.764648438 578.125 472.4140625 578.125 c 0
 456.264648438 578.125 438.63671875 573.025390625 417.83203125 562.825195312 c 0
 397.02734375 552.625 375.595703125 537.325195312 353.536132812 516.924804688 c 0
 331.4765625 496.525390625 311.228515625 473.575195312 291.979492188 447.224609375 c 0
 272.729492188 420.875 255.291015625 391.974609375 240.588867188 358.825195312 c 0
 225.885742188 325.674804688 214.546875 293.375 208.344726562 260.224609375 c 0
 206.637695312 250.219726562 205.53125 240.213867188 205.53125 230.208007812 c 0
 205.53125 228.314453125 205.571289062 226.419921875 205.653320312 224.525390625 c 0
 206.098632812 214.325195312 207.356445312 204.974609375 210.3515625 194.775390625 c 0
 215.529296875 173.525390625 225.622070312 156.525390625 239.815429688 142.924804688 c 0
 254.008789062 129.325195312 270.456054688 122.525390625 288.305664062 122.525390625 c 0
 300.206054688 122.525390625 313.620117188 126.775390625 327.736328125 134.424804688 c 0
 341.852539062 142.075195312 356.744140625 151.424804688 369.788085938 164.174804688 c 0
 382.831054688 176.924804688 395.836914062 190.525390625 408.732421875 206.674804688 c 0
 428.90625 231.325195312 445.6796875 255.974609375 459.016601562 281.474609375 c 1
 428.491210938 279.775390625 397.15234375 277.224609375 365.038085938 272.974609375 c 0
 332.922851562 268.724609375 310.233398438 262.775390625 296.892578125 256.825195312 c 0
 290.241210938 253.424804688 284.365234375 251.724609375 277.565429688 251.724609375 c 0
 270.765625 251.724609375 264.741210938 253.424804688 258.60546875 257.674804688 c 0
 249.845703125 263.625 245.224609375 272.125 244.81640625 281.474609375 c 2
 244.59375 286.575195312 l 2
 244.482421875 289.125 244.333984375 292.525390625 245.073242188 295.075195312 c 0
 247.103515625 306.974609375 253.419921875 318.025390625 264.061523438 327.375 c 0
 271.415039062 334.174804688 281.35546875 340.125 293.8828125 345.224609375 c 0
 313.061523438 353.724609375 350.201171875 359.674804688 405.265625 363.924804688 c 0
 445.104492188 366.474609375 477.330078125 368.174804688 503.643554688 369.025390625 c 0
 512.993164062 369.025390625 522.34375 369.025390625 530.030273438 368.174804688 c 0
 544.517578125 367.325195312 554.866210938 363.924804688 561.076171875 357.974609375 c 0
 566.3984375 352.875 569.245117188 346.075195312 569.653320312 336.724609375 c 0
 569.838867188 332.474609375 569.174804688 328.224609375 568.546875 323.125 c 0
 565.040039062 306.125 557.059570312 294.224609375 542.944335938 286.575195312 c 1
 539.989257812 276.375 l 2
 539.250976562 273.825195312 537.7734375 268.724609375 536.370117188 261.924804688 c 0
 528.946289062 237.275390625 512.432617188 206.674804688 486.865234375 169.275390625 c 0
 474.89453125 151.424804688 460.336914062 134.424804688 444.116210938 116.575195312 c 0
 427.0078125 99.5751953125 408.975585938 84.275390625 390.01953125 70.6748046875 c 0
 371.063476562 57.0751953125 351.108398438 46.875 328.530273438 38.375 c 0
 305.951171875 29.875 284.036132812 25.625 262.786132812 25.625 c 0
 236.436523438 25.625 213.30078125 29.875 193.416992188 37.525390625 c 0
 173.533203125 45.1748046875 157.750976562 56.224609375 145.256835938 69.8251953125 c 0
 132.762695312 83.4248046875 122.745117188 98.724609375 115.166015625 116.575195312 c 0
 107.586914062 134.424804688 103.370117188 153.125 101.666992188 172.674804688 c 2
EndSplineSet
Validated: 524289
EndChar

StartChar: H
Encoding: 72 72 47
Width: 550
VWidth: 901
GlyphClass: 2
Flags: HMW
HStem: 34.1254 17.85G<123.92 130.437 130.437 132.987> 317.175 73.1042 641.88 17G<285.137 288.537 288.537 294.77>
LayerCount: 2
Fore
SplineSet
92.90625 80.875 m 0
 93.3740234375 83.142578125 94.1259765625 85.412109375 95.1611328125 87.6787109375 c 0
 99.025390625 102.978515625 106.447265625 140.662109375 117.424804688 200.728515625 c 0
 123.848632812 235.295898438 132.353515625 277.37109375 142.938476562 326.954101562 c 2
 161.9921875 416.204101562 l 2
 164.109375 426.12109375 166.083984375 436.037109375 167.91796875 445.954101562 c 0
 169.752929688 455.87109375 172.5703125 472.446289062 176.373046875 495.6796875 c 0
 180.17578125 518.912109375 182.901367188 534.354492188 184.55078125 542.004882812 c 0
 186.200195312 549.654296875 187.841796875 557.446289062 189.479492188 565.379882812 c 0
 191.115234375 573.3125 192.173828125 578.270507812 192.655273438 580.25390625 c 0
 193.134765625 582.236328125 193.603515625 584.50390625 194.05859375 587.053710938 c 0
 194.514648438 589.603515625 195.111328125 592.153320312 195.848632812 594.704101562 c 0
 196.587890625 597.25390625 197.197265625 599.520507812 197.676757812 601.50390625 c 2
 198.397460938 604.478515625 l 2
 202.1640625 622.045898438 209.515625 635.362304688 220.452148438 644.4296875 c 0
 231.365234375 654.0625 243.337890625 658.879882812 256.370117188 658.879882812 c 2
 259.770507812 658.879882812 l 2
 272.237304688 658.879882812 282.328125 654.912109375 290.041015625 646.979492188 c 0
 295.842773438 641.06640625 298.961914062 633.104492188 299.3984375 623.094726562 c 0
 299.631835938 617.755859375 299.102539062 611.833984375 297.809570312 605.329101562 c 0
 296.948242188 599.096679688 293.950195312 586.629882812 288.818359375 567.9296875 c 0
 283.684570312 549.229492188 279.745117188 532.37109375 277.000976562 517.354492188 c 0
 274.255859375 502.337890625 270.645507812 481.229492188 266.166015625 454.029296875 c 0
 261.686523438 426.829101562 258.081054688 405.579101562 255.348632812 390.279296875 c 1
 301.791015625 390.846679688 358.235351562 395.946289062 424.681640625 405.579101562 c 0
 444.390625 408.412109375 459.887695312 410.395507812 471.170898438 411.528320312 c 0
 471.639648438 413.795898438 472.180664062 417.62109375 472.794921875 423.00390625 c 0
 473.41015625 428.38671875 475.41015625 440.995117188 478.793945312 460.828125 c 0
 482.177734375 480.661132812 484.903320312 496.102539062 486.971679688 507.153320312 c 0
 489.0390625 518.203125 492.669921875 535.627929688 497.864257812 559.427734375 c 0
 503.057617188 583.227539062 506.39453125 597.677734375 507.87109375 602.778320312 c 0
 511.612304688 620.911132812 519.22265625 634.793945312 530.702148438 644.426757812 c 0
 542.182617188 654.060546875 554.154296875 658.876953125 566.62109375 658.876953125 c 2
 570.021484375 658.876953125 l 2
 583.0546875 658.876953125 593.145507812 654.91015625 600.291015625 646.9765625 c 0
 605.84375 640.932617188 608.83984375 632.874023438 609.279296875 622.799804688 c 0
 609.5 617.762695312 609.080078125 612.221679688 608.022460938 606.176757812 c 0
 606.224609375 595.41015625 601.76953125 574.16015625 594.655273438 542.426757812 c 0
 586.186523438 502.759765625 579.09765625 467.202148438 573.387695312 435.751953125 c 0
 567.677734375 404.301757812 563.241210938 379.369140625 560.078125 360.952148438 c 0
 556.916015625 342.53515625 554.263671875 325.393554688 552.123046875 309.526367188 c 0
 546.118164062 278.359375 537.65625 238.55078125 526.73828125 190.1015625 c 0
 515.8203125 141.651367188 508.798828125 107.79296875 505.672851562 88.5263671875 c 2
 504.26953125 81.7265625 l 2
 500.404296875 66.42578125 491.57421875 54.5263671875 477.778320312 46.0263671875 c 0
 466.224609375 38.0927734375 454.21484375 34.1259765625 441.748046875 34.1259765625 c 2
 439.198242188 34.1259765625 l 2
 426.165039062 34.1259765625 416.038085938 38.943359375 408.817382812 48.576171875 c 0
 404.528320312 54.443359375 402.212890625 61.2587890625 401.874023438 69.0234375 c 0
 401.689453125 73.2587890625 402.092773438 77.7763671875 403.083007812 82.576171875 c 0
 403.575195312 84.2763671875 403.771484375 86.2587890625 403.672851562 88.5263671875 c 0
 422.11328125 159.359375 439.616210938 238.692382812 456.181640625 326.525390625 c 2
 458.913085938 341.825195312 l 1
 440.854492188 340.125 406.479492188 335.733398438 355.788085938 328.650390625 c 0
 305.09765625 321.567382812 266.165039062 317.7421875 238.989257812 317.17578125 c 1
 238.030273438 313.208007812 237.57421875 310.658203125 237.623046875 309.525390625 c 0
 230.360351562 281.192382812 223.154296875 248.325195312 216.00390625 210.92578125 c 0
 208.853515625 173.525390625 201.796875 130.7421875 194.833007812 82.5751953125 c 0
 189.859375 66.7080078125 180.756835938 54.525390625 167.528320312 46.025390625 c 0
 155.974609375 38.0927734375 143.96484375 34.125 131.498046875 34.125 c 2
 128.948242188 34.125 l 2
 115.915039062 34.125 105.788085938 38.9423828125 98.5673828125 48.5751953125 c 0
 94.5419921875 54.2421875 92.3603515625 60.9169921875 92.025390625 68.5986328125 c 0
 91.857421875 72.439453125 92.1513671875 76.53125 92.90625 80.875 c 0
EndSplineSet
Validated: 524289
EndChar

StartChar: I
Encoding: 73 73 48
Width: 550
VWidth: 902
GlyphClass: 2
Flags: HMW
HStem: 42.8479 87.55<467.064 476.839 467.064 467.064> 47.0987 83.2991<379.231 484.918> 563.047 92.6491<288.568 444.684 295.368 444.684>
LayerCount: 2
Fore
SplineSet
196.629882812 42 m 1x60
 161.546875 40.8662109375 137.493164062 40.2978515625 124.459960938 40.2978515625 c 0
 108.592773438 40.2978515625 97.099609375 43.9814453125 89.9775390625 51.34765625 c 0
 84.423828125 56.6689453125 81.48046875 63.171875 81.14453125 70.8564453125 c 0
 81.015625 73.8125 81.2724609375 76.9423828125 81.9150390625 80.248046875 c 2
 81.8037109375 82.7978515625 l 2
 83.576171875 94.130859375 89.3818359375 103.90625 99.2236328125 112.123046875 c 0
 109.064453125 120.33984375 121.893554688 125.014648438 137.7109375 126.147460938 c 1
 138.645507812 130.680664062 138.928710938 130.680664062 138.560546875 126.147460938 c 1
 160.04296875 127.28125 197.961914062 128.4140625 252.311523438 129.546875 c 1
 267.305664062 188.48046875 280.770507812 249.962890625 292.708984375 313.99609375 c 0
 299.181640625 347.4296875 305.076171875 381.146484375 310.391601562 415.146484375 c 0
 313.861328125 439.513671875 318.09375 465.86328125 323.08984375 494.196289062 c 0
 323.950195312 500.4296875 324.965820312 506.37890625 326.135742188 512.045898438 c 0
 327.305664062 517.712890625 329.3359375 526.35546875 332.228515625 537.971679688 c 0
 335.122070312 549.588867188 337.306640625 557.947265625 338.784179688 563.046875 c 1
 270.784179688 563.046875 l 2
 257.184570312 563.046875 243.030273438 562.763671875 228.321289062 562.197265625 c 2
 226.62109375 562.197265625 l 2
 211.887695312 562.197265625 200.947265625 566.1640625 193.801757812 574.096679688 c 0
 188.442382812 580.046875 185.569335938 587.430664062 185.18359375 596.249023438 c 0
 185.055664062 599.188476562 185.203125 602.288085938 185.62890625 605.545898438 c 0
 185.603515625 606.11328125 185.849609375 606.962890625 186.3671875 608.096679688 c 0
 188.680664062 619.99609375 194.734375 630.62109375 204.525390625 639.971679688 c 0
 214.317382812 649.321289062 227.430664062 653.99609375 243.86328125 653.99609375 c 0
 289.713867188 655.12890625 333.322265625 655.696289062 374.689453125 655.696289062 c 0
 457.421875 655.696289062 524.68359375 653.146484375 576.473632812 648.045898438 c 0
 588.421875 646.913085938 597.650390625 643.23046875 604.155273438 636.997070312 c 0
 610.255859375 631.151367188 613.514648438 623.459960938 613.930664062 613.922851562 c 0
 614.080078125 610.516601562 613.865234375 606.875 613.290039062 602.998046875 c 0
 611.000976562 590.53125 605.274414062 578.9140625 596.112304688 568.147460938 c 0
 591.284179688 561.9140625 584.977539062 557.096679688 577.193359375 553.697265625 c 0
 572.166992188 551.997070312 567.400390625 550.864257812 562.891601562 550.296875 c 0
 560.05859375 550.296875 557.212890625 550.580078125 554.35546875 551.147460938 c 0
 540.65625 553.4140625 504.537109375 556.53125 445.997070312 560.498046875 c 1
 444.568359375 554.264648438 442.23046875 542.931640625 438.981445312 526.499023438 c 0
 435.70703125 510.631835938 433.122070312 498.44921875 431.2265625 489.94921875 c 0
 429.330078125 481.44921875 427.447265625 472.666015625 425.576171875 463.598632812 c 0
 419.126953125 429.598632812 414.248046875 401.83203125 410.9375 380.298828125 c 0
 407.627929688 358.765625 403.776367188 336.666015625 399.381835938 313.999023438 c 0
 394.989257812 291.33203125 388.169921875 259.314453125 378.926757812 217.948242188 c 0
 369.682617188 176.581054688 363.435546875 147.680664062 360.186523438 131.248046875 c 1
 382.853515625 131.248046875 400.999023438 130.96484375 414.624023438 130.397460938 c 2
 479.223632812 130.397460938 l 1
 480.158203125 134.930664062 480.44140625 134.930664062 480.073242188 130.397460938 c 1xa0
 481.0078125 134.930664062 481.291015625 134.930664062 480.921875 130.397460938 c 1
 481.856445312 134.930664062 482.139648438 134.930664062 481.771484375 130.397460938 c 1x60
 482.706054688 134.930664062 482.989257812 134.930664062 482.620117188 130.397460938 c 1
 497.920898438 130.397460938 508.145507812 126.573242188 513.296875 118.922851562 c 0
 516.799804688 113.720703125 518.70703125 107.536132812 519.020507812 100.369140625 c 0
 519.166992188 96.9970703125 518.9609375 93.40625 518.401367188 89.59765625 c 0
 517.516601562 83.9306640625 516.05078125 78.5478515625 514.006835938 73.4482421875 c 0
 511.962890625 68.34765625 509.068359375 63.248046875 505.32421875 58.1474609375 c 0
 500.49609375 51.9150390625 494.44921875 47.6650390625 487.180664062 45.3974609375 c 0
 482.721679688 43.6982421875 478.650390625 42.84765625 474.967773438 42.84765625 c 2
 465.192382812 42.84765625 l 2xa0
 451.494140625 45.115234375 427.916015625 46.5322265625 394.45703125 47.0986328125 c 0
 359.890625 47.0986328125 328.182617188 46.5322265625 299.331054688 45.3984375 c 1
 285.533203125 47.759765625 271.541015625 48.9404296875 257.353515625 48.9404296875 c 0
 237.493164062 48.9404296875 217.251953125 46.626953125 196.629882812 42 c 1x60
EndSplineSet
Validated: 524289
EndChar

StartChar: J
Encoding: 74 74 49
Width: 550
VWidth: 900
GlyphClass: 2
Flags: HMW
HStem: 20.8768 107.099<287.072 291.891> 560.626 93.4992<391.906 417.407>
LayerCount: 2
Fore
SplineSet
430.942382812 235.075195312 m 0
 403.513671875 136.475585938 372.850585938 73.009765625 338.955078125 44.6767578125 c 0
 320.947265625 28.8095703125 301.4609375 20.876953125 280.494140625 20.876953125 c 0
 259.526367188 20.876953125 239.815429688 24.5595703125 221.361328125 31.9267578125 c 0
 202.90625 39.2939453125 187.48046875 48.6435546875 175.086914062 59.9765625 c 0
 163.798828125 71.876953125 153.745117188 84.7685546875 144.921875 98.6513671875 c 0
 136.098632812 112.53515625 129.123046875 126.276367188 123.997070312 139.876953125 c 0
 118.870117188 153.4765625 115.21484375 165.801757812 113.032226562 176.8515625 c 0
 111.396484375 185.138671875 110.44140625 192.390625 110.170898438 198.60546875 c 0
 110.080078125 200.677734375 110.064453125 202.634765625 110.125976562 204.4765625 c 0
 109.853515625 210.709960938 110.826171875 217.651367188 113.041992188 225.301757812 c 0
 115.2578125 232.952148438 117.91796875 240.176757812 121.020507812 246.9765625 c 0
 124.6171875 255.4765625 130.109375 262.702148438 137.5 268.651367188 c 0
 144.889648438 274.6015625 153.634765625 278.709960938 163.736328125 280.9765625 c 0
 167.112304688 281.543945312 170.51171875 281.543945312 173.936523438 280.9765625 c 0
 184.703125 280.9765625 192.78515625 277.577148438 198.181640625 270.776367188 c 0
 202.978515625 264.732421875 205.55859375 257.5546875 205.921875 249.243164062 c 0
 206.102539062 245.086914062 205.73046875 240.6484375 204.803710938 235.92578125 c 0
 203.932617188 230.913085938 203.626953125 225.439453125 203.885742188 219.504882812 c 0
 204.30078125 210.008789062 206.161132812 199.333007812 209.46875 187.475585938 c 0
 212.206054688 176.708984375 216.458007812 166.93359375 222.223632812 158.151367188 c 0
 227.990234375 149.368164062 236.6640625 142.142578125 248.244140625 136.475585938 c 0
 259.825195312 130.80859375 273.548828125 127.975585938 289.415039062 127.975585938 c 0
 289.982421875 127.975585938 290.8203125 128.258789062 291.928710938 128.826171875 c 0
 295.772460938 131.659179688 300.303710938 138.17578125 305.525390625 148.375976562 c 0
 317.51953125 172.17578125 328.661132812 209.008789062 338.951171875 258.875976562 c 2
 339.301757812 260.576171875 l 2
 339.53515625 261.708984375 340.557617188 267.517578125 342.366210938 278 c 0
 344.17578125 288.483398438 348.89453125 316.674804688 356.524414062 362.575195312 c 0
 367.697265625 431.142578125 379.83203125 497.159179688 392.927734375 560.625976562 c 1
 363.423828125 561.475585938 335.708984375 561.901367188 309.784179688 561.901367188 c 0
 283.859375 561.901367188 259.723632812 561.475585938 237.376953125 560.625976562 c 2
 235.677734375 560.625976562 l 2
 220.944335938 560.625976562 210.004882812 564.592773438 202.857421875 572.526367188 c 0
 197.813476562 578.125976562 195.114257812 584.99609375 194.758789062 593.137695312 c 0
 194.610351562 596.529296875 194.868164062 600.141601562 195.53515625 603.975585938 c 2
 195.423828125 606.525390625 l 2
 197.737304688 618.424804688 203.931640625 629.049804688 214.005859375 638.400390625 c 0
 224.081054688 647.75 237.051757812 652.424804688 252.918945312 652.424804688 c 0
 299.3359375 653.55859375 342.944335938 654.125 383.744140625 654.125 c 0
 466.477539062 654.125 533.739257812 651.575195312 585.528320312 646.475585938 c 0
 597.478515625 645.341796875 606.421875 641.659179688 612.361328125 635.42578125 c 0
 618.80078125 629.255859375 622.245117188 621.029296875 622.693359375 610.74609375 c 0
 622.822265625 607.807617188 622.706054688 604.701171875 622.344726562 601.426757812 c 0
 620.055664062 588.959960938 614.330078125 577.342773438 605.166992188 566.576171875 c 0
 600.338867188 560.342773438 594.032226562 555.526367188 586.248046875 552.125976562 c 0
 581.221679688 550.42578125 576.455078125 549.29296875 571.946289062 548.725585938 c 0
 569.11328125 548.725585938 565.983398438 549.008789062 562.55859375 549.576171875 c 0
 546.568359375 552.409179688 521.5234375 554.958984375 487.424804688 557.225585938 c 1
 485.209960938 543.05859375 477.7421875 493.475585938 465.020507812 408.475585938 c 0
 461.501953125 385.243164062 458.247070312 365.693359375 455.256835938 349.826171875 c 0
 452.266601562 333.958984375 450.57421875 324.041992188 450.180664062 320.075195312 c 0
 443.239257812 284.375 436.827148438 256.041992188 430.942382812 235.075195312 c 0
EndSplineSet
Validated: 524289
EndChar

StartChar: K
Encoding: 75 75 50
Width: 550
VWidth: 902
GlyphClass: 2
Flags: HMW
HStem: 34.1932 17.85G<120.398 126.915 126.915 129.464> 641.941 17.85G
LayerCount: 2
Fore
SplineSet
127.971679688 34.193359375 m 2
 125.422851562 34.193359375 l 2
 112.389648438 34.193359375 102.029296875 37.8759765625 94.3408203125 45.2431640625 c 0
 89.8505859375 49.91796875 87.45703125 55.6650390625 87.1591796875 62.482421875 c 0
 87.0244140625 65.58203125 87.3232421875 68.9013671875 88.052734375 72.443359375 c 0
 88.521484375 74.7099609375 89.271484375 76.9775390625 90.3056640625 79.244140625 c 0
 95.1806640625 97.376953125 101.237304688 127.41015625 108.473632812 169.342773438 c 0
 123.634765625 250.375976562 138.708984375 339.909179688 153.6953125 437.942382812 c 0
 159.50390625 473.642578125 163.528320312 498.291992188 165.767578125 511.892578125 c 0
 168.03125 524.92578125 172.043945312 543.342773438 177.8046875 567.142578125 c 0
 183.541015625 591.509765625 187.123046875 606.809570312 188.55078125 613.041992188 c 0
 191.875 627.775390625 198.734375 639.392578125 209.129882812 647.892578125 c 0
 219.384765625 655.295898438 230.540039062 658.998046875 242.59765625 658.998046875 c 0
 243.459960938 658.998046875 244.326171875 658.979492188 245.197265625 658.94140625 c 2
 247.747070312 658.94140625 l 2
 260.213867188 658.94140625 270.549804688 655.82421875 278.755859375 649.591796875 c 0
 285.056640625 644.329101562 288.41015625 637.043945312 288.81640625 627.734375 c 0
 288.978515625 624.010742188 288.669921875 619.962890625 287.889648438 615.591796875 c 0
 285.650390625 601.991210938 280.025390625 575.07421875 271.015625 534.841796875 c 0
 261.979492188 495.174804688 255.185546875 462.591796875 250.631835938 437.091796875 c 1
 273.123046875 454.091796875 305.4921875 478.458007812 347.740234375 510.19140625 c 0
 439.6484375 585.55859375 494.115234375 629.475585938 511.137695312 641.942382812 c 0
 521.58203125 649.309570312 530.993164062 654.409179688 539.369140625 657.2421875 c 0
 544.961914062 658.942382812 549.741210938 659.791992188 553.708007812 659.791992188 c 0
 557.67578125 659.791992188 560.8046875 659.509765625 563.096679688 658.942382812 c 0
 569.403320312 657.2421875 574.923828125 654.125 579.653320312 649.592773438 c 0
 586.184570312 642.791992188 588.78515625 635.142578125 587.45703125 626.642578125 c 0
 584.724609375 611.342773438 575.80859375 594.909179688 560.708984375 577.342773438 c 0
 550.412109375 566.575195312 516.060546875 535.692382812 457.654296875 484.692382812 c 0
 397.96484375 437.092773438 345.654296875 395.725585938 300.720703125 360.592773438 c 1
 316.912109375 340.192382812 343.168945312 309.875 379.493164062 269.642578125 c 0
 416.283203125 231.67578125 448.096679688 197.392578125 474.932617188 166.791992188 c 0
 488.782226562 148.092773438 498.776367188 133.359375 504.913085938 122.592773438 c 0
 511.71484375 109.559570312 515.227539062 100.4921875 515.450195312 95.392578125 c 0
 515.771484375 88.025390625 515.513671875 80.9423828125 514.677734375 74.142578125 c 0
 513.743164062 69.609375 511.958007812 65.076171875 509.322265625 60.54296875 c 0
 504.001953125 52.6103515625 496.625 46.376953125 487.188476562 41.84375 c 0
 475.051757812 36.6923828125 467.014648438 34.1162109375 463.081054688 34.1162109375 c 0
 462.6875 34.1162109375 462.334960938 34.142578125 462.022460938 34.1943359375 c 2
 461.172851562 34.1943359375 l 2
 447.005859375 34.1943359375 435.080078125 41.27734375 425.39453125 55.4443359375 c 0
 421.697265625 62.244140625 405.260742188 81.7939453125 376.083984375 114.09375 c 0
 346.930664062 145.827148438 315.659179688 180.676757812 282.26953125 218.643554688 c 0
 257.380859375 243.577148438 237.469726562 264.827148438 222.536132812 282.393554688 c 1
 190.865234375 73.2939453125 l 2
 186.875976562 60.8271484375 177.958984375 50.91015625 164.114257812 43.54296875 c 0
 152.486328125 37.310546875 140.438476562 34.193359375 127.971679688 34.193359375 c 2
EndSplineSet
Validated: 524289
EndChar

StartChar: L
Encoding: 76 76 51
Width: 550
VWidth: 901
GlyphClass: 2
Flags: HMW
HStem: 44.175 89.25 634.925 17G<283.92 286.47 286.47 292.987>
LayerCount: 2
Fore
SplineSet
78.396484375 73.9248046875 m 0
 78.2109375 78.1748046875 78.875 82.4248046875 79.5400390625 86.6748046875 c 0
 80.3154296875 88.375 80.2041015625 90.9248046875 80.9052734375 94.3251953125 c 0
 81.607421875 97.724609375 90.4716796875 128.325195312 107.4609375 186.974609375 c 0
 124.44921875 245.625 139.849609375 301.724609375 151.961914062 355.275390625 c 0
 155.506835938 371.424804688 159.716796875 391.825195312 164.626953125 415.625 c 0
 168.775390625 436.752929688 179.639648438 496.53515625 196.3828125 594.969726562 c 0
 196.44921875 595.647460938 196.533203125 596.497070312 196.634765625 597.525390625 c 0
 200.10546875 615.375 207.162109375 628.974609375 218.653320312 638.325195312 c 0
 230.145507812 647.674804688 242.709960938 651.924804688 255.459960938 651.924804688 c 2
 258.009765625 651.924804688 l 2
 270.759765625 651.924804688 281.145507812 647.674804688 289.129882812 640.025390625 c 0
 295.338867188 634.075195312 299.073242188 626.424804688 299.518554688 616.224609375 c 0
 299.741210938 611.125 299.114257812 606.025390625 297.673828125 600.075195312 c 0
 294.978515625 583.924804688 290.806640625 562.674804688 284.344726562 535.474609375 c 0
 276.590820312 498.924804688 268.76171875 464.075195312 261.671875 431.775390625 c 0
 253.84375 396.924804688 245.202148438 361.224609375 237.448242188 324.674804688 c 0
 232.5 301.724609375 223.709960938 269.424804688 212.741210938 228.625 c 0
 201.7734375 187.825195312 194.646484375 156.375 189.698242188 133.424804688 c 1
 191.952148438 140.224609375 191.952148438 140.224609375 191.3984375 133.424804688 c 1
 236.448242188 133.424804688 289.887695312 135.974609375 351.677734375 141.924804688 c 0
 411.767578125 147.875 452.344726562 152.974609375 472.522460938 158.075195312 c 0
 475.885742188 158.924804688 479.248046875 159.775390625 483.498046875 159.775390625 c 0
 487.748046875 159.775390625 491.185546875 158.924804688 494.622070312 158.075195312 c 0
 500.68359375 155.525390625 506.006835938 150.424804688 509.703125 143.625 c 0
 512.512695312 137.674804688 513.623046875 131.724609375 513.8828125 125.775390625 c 0
 515.029296875 118.974609375 514.439453125 113.025390625 513.811523438 107.924804688 c 0
 511.818359375 95.1748046875 506.276367188 85.8251953125 498.147460938 77.3251953125 c 0
 490.018554688 68.8251953125 479.228515625 62.875 463.190429688 60.3251953125 c 0
 425.274414062 52.6748046875 365.997070312 47.5751953125 286.245117188 44.1748046875 c 0
 206.493164062 40.775390625 149.618164062 39.0751953125 114.767578125 39.0751953125 c 0
 102.017578125 39.0751953125 91.5947265625 44.1748046875 85.2373046875 53.525390625 c 0
 81.5771484375 59.474609375 78.73046875 66.275390625 78.396484375 73.9248046875 c 0
EndSplineSet
Validated: 524289
EndChar

StartChar: M
Encoding: 77 77 52
Width: 550
VWidth: 902
GlyphClass: 2
Flags: HMW
HStem: 43.598 17.85G<93.741 96.5743 96.5743 98.2743>
LayerCount: 2
Fore
SplineSet
154.016601562 105.649414062 m 2
 152.68359375 97.1484375 l 2
 149.951171875 81.84765625 143.424804688 69.09765625 133.103515625 58.8984375 c 0
 121.6484375 48.6982421875 109.404296875 43.59765625 96.37109375 43.59765625 c 2
 94.6708984375 43.59765625 l 2
 89.00390625 43.59765625 83.8544921875 44.7314453125 79.22265625 46.998046875 c 0
 72.841796875 50.3984375 68.6015625 56.630859375 66.5068359375 65.6982421875 c 0
 66.1982421875 67.68359375 65.7275390625 71.388671875 65.7275390625 76.8525390625 c 0
 65.7275390625 85.201171875 66.810546875 95.0830078125 68.9755859375 106.498046875 c 0
 70.353515625 113.865234375 73.22265625 126.047851562 77.580078125 143.047851562 c 0
 81.962890625 159.481445312 88.0927734375 181.297851562 95.9716796875 208.498046875 c 0
 104.342773438 237.3984375 113.61328125 271.680664062 123.78125 311.34765625 c 0
 133.950195312 351.014648438 142.481445312 382.748046875 149.375 406.547851562 c 0
 171.311523438 488.1484375 187.821289062 544.815429688 198.90234375 576.547851562 c 0
 205.970703125 596.380859375 212.447265625 610.263671875 218.333007812 618.197265625 c 0
 226.880859375 630.09765625 238.126953125 638.59765625 252.071289062 643.697265625 c 0
 263.772460938 648.23046875 275.291015625 650.497070312 286.624023438 650.497070312 c 2
 291.723632812 650.497070312 l 2
 304.756835938 650.497070312 315.043945312 648.513671875 322.583984375 644.546875 c 0
 333.573242188 639.447265625 339.89453125 630.947265625 341.546875 619.046875 c 0
 341.951171875 614.514648438 342.275390625 609.447265625 342.520507812 603.84765625 c 0
 342.895507812 595.259765625 343.083007812 585.416992188 343.083007812 574.318359375 c 0
 343.083007812 552.84375 342.380859375 526.670898438 340.977539062 495.797851562 c 0
 338.376953125 438.565429688 334.422851562 373.3984375 329.114257812 300.297851562 c 0
 328.131835938 283.865234375 327.099609375 268.565429688 326.017578125 254.3984375 c 1
 337.26953125 295.198242188 348.053710938 333.731445312 358.37109375 369.998046875 c 0
 372.184570312 417.03125 387.993164062 463.78125 405.796875 510.248046875 c 0
 423.577148438 557.28125 438.143554688 593.547851562 449.497070312 619.047851562 c 0
 453.659179688 627.547851562 460.999023438 634.630859375 471.51953125 640.297851562 c 0
 480.9296875 645.3984375 490.426757812 648.514648438 500.010742188 649.6484375 c 0
 506.21875 650.21484375 511.30078125 650.639648438 515.254882812 650.922851562 c 0
 519.208984375 651.206054688 522.333007812 651.064453125 524.624023438 650.497070312 c 2
 528.024414062 650.497070312 l 1
 540.348632812 650.497070312 l 2
 543.465820312 650.497070312 547.611328125 649.647460938 552.78515625 647.947265625 c 0
 558.501953125 646.814453125 563.109375 645.114257812 566.608398438 642.84765625 c 0
 570.106445312 640.580078125 573.087890625 637.180664062 575.553710938 632.647460938 c 0
 578.04296875 627.546875 579.435546875 621.59765625 579.732421875 614.796875 c 0
 578.774414062 597.796875 569.341796875 515.34765625 551.432617188 367.447265625 c 0
 534.868164062 226.924804688 526.584960938 144.65234375 526.584960938 120.62890625 c 0
 526.584960938 120.541015625 526.76953125 112.952148438 526.76953125 111.83984375 c 0
 526.76953125 102.673828125 525.768554688 94.09375 523.766601562 86.09765625 c 0
 522.412109375 78.1650390625 519.591796875 71.365234375 515.307617188 65.6982421875 c 0
 509.419921875 57.7646484375 501.16796875 52.09765625 490.549804688 48.6982421875 c 0
 484.390625 46.998046875 478.200195312 46.005859375 471.98046875 45.72265625 c 0
 465.758789062 45.4404296875 459.458007812 46.998046875 453.077148438 50.3984375 c 0
 442.061523438 56.0654296875 435.322265625 67.681640625 432.85546875 85.2490234375 c 0
 432.59765625 87.2724609375 432.41015625 89.642578125 432.291992188 92.3583984375 c 0
 432.190429688 94.6865234375 432.138671875 97.2685546875 432.138671875 100.10546875 c 0
 432.138671875 149.567382812 447.591796875 276.365234375 478.498046875 480.499023438 c 1
 463.403320312 436.866210938 450.760742188 395.499023438 440.567382812 356.3984375 c 0
 422.987304688 291.798828125 404.692382812 230.598632812 385.682617188 172.798828125 c 0
 366.107421875 114.999023438 352.0703125 79.58203125 343.572265625 66.548828125 c 0
 332.833007812 52.94921875 312.73046875 46.1484375 283.263671875 46.1484375 c 2
 279.013671875 46.1484375 l 2
 267.680664062 46.1484375 258.255859375 47.8486328125 250.740234375 51.2490234375 c 0
 241.5 55.2158203125 236.15234375 60.8828125 234.698242188 68.25 c 0
 234.5625 70.3427734375 234.440429688 72.642578125 234.331054688 75.1474609375 c 0
 233.86328125 85.8525390625 233.629882812 100.32421875 233.629882812 118.5625 c 0
 233.629882812 151.532226562 234.393554688 196.811523438 235.920898438 254.399414062 c 0
 237.55859375 320.69921875 239.567382812 385.016601562 241.946289062 447.349609375 c 1
 239.041015625 436.016601562 233.698242188 415.616210938 225.918945312 386.149414062 c 2
 215.135742188 341.099609375 l 1
 195.451171875 266.299804688 l 2
 189.666015625 243.06640625 183.350585938 218.983398438 176.504882812 194.05078125 c 0
 171.114257812 174.783203125 165.758789062 154.666992188 160.440429688 133.69921875 c 0
 157.018554688 121.232421875 154.876953125 111.8828125 154.016601562 105.649414062 c 2
EndSplineSet
Validated: 524289
EndChar

StartChar: N
Encoding: 78 78 53
Width: 550
VWidth: 901
GlyphClass: 2
Flags: HMW
HStem: 41.6261 17.85G<116.794 130.961> 634.076 17G<279.712 287.646 596.479 609.512>
VStem: 94.9761 85.0017
LayerCount: 2
Fore
SplineSet
250.626953125 464.924804688 m 1
 246.640625 439.424804688 243.03515625 418.17578125 239.810546875 401.17578125 c 0
 236.635742188 383.04296875 231.798828125 357.54296875 225.30078125 324.67578125 c 0
 218.77734375 292.375976562 210.567382812 253.276367188 200.671875 207.375976562 c 0
 190.825195312 160.342773438 184.461914062 130.875976562 181.58203125 118.975585938 c 0
 179.268554688 107.076171875 177.90234375 99.42578125 177.483398438 96.0263671875 c 0
 177.040039062 93.193359375 176.583984375 90.642578125 176.1171875 88.3759765625 c 0
 173.384765625 73.076171875 167.091796875 61.458984375 157.23828125 53.5263671875 c 0
 146.818359375 45.5927734375 135.374023438 41.6259765625 122.907226562 41.6259765625 c 0
 107.040039062 41.6259765625 96.900390625 46.7255859375 92.48828125 56.92578125 c 0
 91.501953125 60.6357421875 90.90625 64.8310546875 90.7021484375 69.5146484375 c 0
 90.3447265625 77.7099609375 91.18359375 87.3974609375 93.2197265625 98.576171875 c 0
 94.9921875 109.909179688 103.841796875 153.826171875 119.767578125 230.326171875 c 0
 144.088867188 348.193359375 160.66796875 429.225585938 169.505859375 473.42578125 c 0
 177.775390625 517.625976562 184.518554688 557.859375 189.735351562 594.125976562 c 0
 190.203125 596.392578125 190.659179688 598.943359375 191.1015625 601.776367188 c 0
 192.430664062 610.276367188 195.509765625 617.642578125 200.336914062 623.875976562 c 0
 205.658203125 631.809570312 212.481445312 637.758789062 220.807617188 641.725585938 c 0
 232.436523438 647.958984375 244.766601562 651.076171875 257.799804688 651.076171875 c 0
 260.6328125 651.076171875 263.478515625 650.79296875 266.3359375 650.225585938 c 0
 278.235351562 650.225585938 287.956054688 648.243164062 295.495117188 644.276367188 c 0
 306.485351562 639.17578125 312.806640625 630.67578125 314.458984375 618.776367188 c 0
 319.442382812 582.508789062 339.94140625 515.359375 375.955078125 417.326171875 c 0
 406.200195312 334.592773438 433.005859375 265.743164062 456.372070312 210.776367188 c 1
 466.711914062 259.508789062 478.661132812 323.258789062 492.22265625 402.026367188 c 0
 509.943359375 502.326171875 520.081054688 568.625976562 522.637695312 600.92578125 c 0
 523.056640625 604.326171875 523.487304688 607.443359375 523.930664062 610.276367188 c 0
 525.751953125 620.475585938 530.752929688 629.258789062 538.930664062 636.625976562 c 0
 549.27734375 646.258789062 561.249023438 651.076171875 574.849609375 651.076171875 c 0
 587.31640625 651.076171875 597.047851562 648.809570312 604.045898438 644.276367188 c 0
 607.545898438 642.008789062 610.244140625 638.609375 612.141601562 634.076171875 c 0
 612.907226562 629.54296875 613.362304688 625.576171875 613.510742188 622.17578125 c 0
 613.684570312 618.208984375 613.377929688 612.258789062 612.590820312 604.326171875 c 0
 612.444335938 594.693359375 604.791015625 549.360351562 589.62890625 468.327148438 c 0
 587.315429688 456.426757812 585.28515625 444.52734375 583.537109375 432.626953125 c 0
 570.197265625 361.793945312 555.5390625 288.693359375 539.561523438 213.327148438 c 0
 529.22265625 164.59375 520.606445312 128.327148438 513.712890625 104.52734375 c 0
 507.334960938 81.8603515625 502.015625 67.41015625 497.754882812 61.1767578125 c 0
 487.58203125 47.5771484375 468.908203125 40.494140625 441.733398438 39.9267578125 c 2
 438.333007812 39.9267578125 l 2
 428.1328125 39.9267578125 419.545898438 41.91015625 412.573242188 45.876953125 c 0
 403.875 50.41015625 398.528320312 56.0771484375 396.53125 62.876953125 c 0
 393.203125 74.2099609375 384.180664062 99.142578125 369.465820312 137.67578125 c 0
 354.109375 177.909179688 338.259765625 216.442382812 321.91796875 253.275390625 c 0
 305.921875 295.208007812 289.725585938 341.674804688 273.33203125 392.674804688 c 0
 264.260742188 418.7421875 256.692382812 442.825195312 250.626953125 464.924804688 c 1
EndSplineSet
Validated: 524289
EndChar

